<svg xmlns="http://www.w3.org/2000/svg" xmlns:xlink="http://www.w3.org/1999/xlink" width="108.914" height="108.914" viewBox="0 0 108.914 108.914">
  <defs>
    <filter id="Trazado_896036" x="0" y="0" width="108.914" height="108.914" filterUnits="userSpaceOnUse">
      <feOffset dy="3" input="SourceAlpha"/>
      <feGaussianBlur stdDeviation="3" result="blur"/>
      <feFlood flood-opacity="0.161"/>
      <feComposite operator="in" in2="blur"/>
      <feComposite in="SourceGraphic"/>
    </filter>
  </defs>
  <g id="Grupo_1108440" data-name="Grupo 1108440" transform="translate(2484.98 9209.702)">
    <g id="Grupo_1105800" data-name="Grupo 1105800" transform="translate(-2475.98 -9203.702)">
      <g transform="matrix(1, 0, 0, 1, -9, -6)" filter="url(#Trazado_896036)">
        <g id="Trazado_896036-2" data-name="Trazado 896036" transform="translate(9 6)" fill="#9ec9ff" opacity="0.859">
          <path d="M 45.45676803588867 89.41407012939453 C 39.52198028564453 89.41407012939453 33.76551818847656 88.25206756591797 28.34726715087891 85.96034240722656 C 23.11311721801758 83.74648284912109 18.41204261779785 80.57682800292969 14.37464332580566 76.5394287109375 C 10.33724308013916 72.50202941894531 7.167593002319336 67.80095672607422 4.953730583190918 62.56679534912109 C 2.662005424499512 57.14855575561523 1.500005483627319 51.39208221435547 1.500005483627319 45.45729446411133 C 1.500005483627319 39.52198028564453 2.662005424499512 33.76551818847656 4.953730583190918 28.34726905822754 C 7.167593002319336 23.11310577392578 10.33724308013916 18.41203117370605 14.37464332580566 14.37464332580566 C 18.41204261779785 10.33724403381348 23.11311721801758 7.167593955993652 28.34726715087891 4.953731060028076 C 33.76551818847656 2.662006139755249 39.52198028564453 1.500006198883057 45.45676803588867 1.500006198883057 C 51.39155578613281 1.500006198883057 57.14802932739258 2.662006139755249 62.56626892089844 4.953731060028076 C 67.80043029785156 7.167593955993652 72.50150299072266 10.33724403381348 76.53890228271484 14.37464332580566 C 80.57630920410156 18.41203117370605 83.74595642089844 23.11310577392578 85.95981597900391 28.34726905822754 C 88.25154113769531 33.76551818847656 89.41354370117188 39.52198028564453 89.41354370117188 45.45676803588867 C 89.41354370117188 51.39208221435547 88.25154113769531 57.14855575561523 85.95981597900391 62.56679534912109 C 83.74595642089844 67.80095672607422 80.57630920410156 72.50202941894531 76.53890228271484 76.5394287109375 C 72.50150299072266 80.57682800292969 67.80043029785156 83.74648284912109 62.56626892089844 85.96034240722656 C 57.14802932739258 88.25206756591797 51.39155578613281 89.41407012939453 45.45676803588867 89.41407012939453 Z" stroke="none"/>
          <path d="M 45.45676803588867 3 C 39.72381210327148 3 34.1639404296875 4.12213134765625 28.93159484863281 6.335227966308594 C 23.87622833251953 8.473472595214844 19.33542633056641 11.53517150878906 15.43529510498047 15.435302734375 C 11.53517150878906 19.33543395996094 8.473464965820312 23.87622833251953 6.335227966308594 28.93160247802734 C 4.122123718261719 34.16394424438477 3 39.72381591796875 3 45.4572868347168 C 3 51.19024658203125 4.122123718261719 56.75011825561523 6.335227966308594 61.98246002197266 C 8.473464965820312 67.03782653808594 11.53517150878906 71.57862854003906 15.43529510498047 75.478759765625 C 19.33542633056641 79.37889099121094 23.87622833251953 82.44058990478516 28.93159484863281 84.57883453369141 C 34.1639404296875 86.79193115234375 39.72381210327148 87.9140625 45.45676803588867 87.9140625 C 51.18972396850586 87.9140625 56.74959564208984 86.79193115234375 61.98194122314453 84.57883453369141 C 67.03730773925781 82.44058990478516 71.57810974121094 79.37889099121094 75.47824096679688 75.478759765625 C 79.37837219238281 71.57862854003906 82.44007110595703 67.03782653808594 84.57830810546875 61.98246002197266 C 86.79141235351562 56.75011825561523 87.91353607177734 51.19024658203125 87.91353607177734 45.4567756652832 C 87.91353607177734 39.72381591796875 86.79141235351562 34.16394424438477 84.57830810546875 28.93160247802734 C 82.44007110595703 23.87622833251953 79.37837219238281 19.33543395996094 75.47824096679688 15.435302734375 C 71.57810974121094 11.53517150878906 67.03730773925781 8.473472595214844 61.98194122314453 6.335227966308594 C 56.74959564208984 4.12213134765625 51.18972396850586 3 45.45676803588867 3 M 45.45676803588867 0 C 70.56185150146484 0 90.91353607177734 20.35169219970703 90.91353607177734 45.4567756652832 L 90.91353607177734 45.4572868347168 C 90.91353607177734 70.5623779296875 70.56185150146484 90.9140625 45.45676803588867 90.9140625 C 20.3516845703125 90.9140625 0 70.5623779296875 0 45.4572868347168 L 0 45.4567756652832 C 0 20.35169219970703 20.3516845703125 0 45.45676803588867 0 Z" stroke="none" fill="#fff"/>
        </g>
      </g>
      <g id="Rectángulo_400907" data-name="Rectángulo 400907" transform="translate(0 0)" fill="none" stroke="#fff" stroke-width="3">
        <rect width="90.914" height="90.914" rx="45.457" stroke="none"/>
        <rect x="1.5" y="1.5" width="87.914" height="87.914" rx="43.957" fill="none"/>
      </g>
    </g>
    <g id="Grupo_1108412" data-name="Grupo 1108412" transform="translate(-2465.022 -9192.258)">
      <path id="Trazado_896442" data-name="Trazado 896442" d="M23.031,79.566a9.942,9.942,0,0,1,19.885,0l-9.942,1.657Z" transform="translate(-13.877 -55.496)" fill="#d8ecfe"/>
      <path id="Trazado_896443" data-name="Trazado 896443" d="M38.856,87.679a9.891,9.891,0,0,1,1.91,5.315.535.535,0,0,1-.533.567H23.261a9.979,9.979,0,0,0-.23,2.134l9.942,1.657L42.916,95.7A9.929,9.929,0,0,0,38.856,87.679Z" transform="translate(-13.877 -71.625)" fill="#c4e2ff"/>
      <path id="Trazado_896444" data-name="Trazado 896444" d="M147.279,211.063l1.657-1.657,1.657,1.657,3.314,8.285-1.657,1.657-1.657-1.657Z" transform="translate(-124.869 -180.364)" fill="#fed402"/>
      <path id="Trazado_896445" data-name="Trazado 896445" d="M29.659,211.063,28,209.406l-1.657,1.657-3.314,8.285,1.657,1.657,1.657-1.657Z" transform="translate(-13.877 -180.364)" fill="#fed402"/>
      <circle id="Elipse_11667" data-name="Elipse 11667" cx="9.942" cy="9.942" r="9.942" transform="translate(38.981 14.128)" fill="#c4e2ff"/>
      <path id="Trazado_896446" data-name="Trazado 896446" d="M317.842,83.987a9.9,9.9,0,0,1,2.487,6.029.535.535,0,0,1-.533.567H302.759a9.943,9.943,0,1,0,15.082-6.6Z" transform="translate(-263.613 -68.327)" fill="#b3dafe"/>
      <path id="Trazado_896447" data-name="Trazado 896447" d="M342.3,125.3c-.782-.782-2.014-.967-3.053-1.4-1-.415-1.995-1.17-3.146-1.17s-2.145.755-3.146,1.17c-1.038.43-2.27.615-3.052,1.4a4.3,4.3,0,0,0-.929,1.708l7.139,2.134,7.116-2.134A4.3,4.3,0,0,0,342.3,125.3Z" transform="translate(-287.181 -102.942)" fill="#fe9738"/>
      <path id="Trazado_896448" data-name="Trazado 896448" d="M342.3,139.266a4.153,4.153,0,0,0-1.625-.9q.068.125.128.257a.533.533,0,0,1-.487.751H329.8a4.575,4.575,0,0,0-.827,1.6l7.139,2.134,7.116-2.134A4.3,4.3,0,0,0,342.3,139.266Z" transform="translate(-287.181 -116.904)" fill="#fe860a"/>
      <path id="Trazado_896449" data-name="Trazado 896449" d="M309.222,211.063l-1.657-1.657-1.657,1.657-3.314,8.285,1.657,1.657,1.657-1.657Z" transform="translate(-263.613 -180.364)" fill="#fed402"/>
      <path id="Trazado_896450" data-name="Trazado 896450" d="M426.842,211.063l1.657-1.657,1.657,1.657,3.314,8.285-1.657,1.657-1.657-1.657Z" transform="translate(-374.605 -180.364)" fill="#fed402"/>
      <path id="Trazado_896451" data-name="Trazado 896451" d="M355.814,14.266V11.347a.533.533,0,0,1,.533-.533h2.247a.534.534,0,0,0,.533-.533V8.033a.534.534,0,0,0-.533-.533h-8.875a.534.534,0,0,0-.533.533v2.247a.534.534,0,0,0,.533.533h2.247a.533.533,0,0,1,.533.533v2.918h3.314Z" transform="translate(-305.234)" fill="#fed402"/>
      <path id="Trazado_896452" data-name="Trazado 896452" d="M25.812,379.632H23.564a.533.533,0,0,1-.533-.533v-14.38h3.314V379.1A.533.533,0,0,1,25.812,379.632Z" transform="translate(-13.877 -319.107)" fill="#fdb97e"/>
      <path id="Trazado_896453" data-name="Trazado 896453" d="M458.439,379.632h2.247a.534.534,0,0,0,.533-.533v-14.38h-3.314V379.1A.533.533,0,0,0,458.439,379.632Z" transform="translate(-402.354 -319.107)" fill="#fdb97e"/>
      <path id="Trazado_896454" data-name="Trazado 896454" d="M41.742,169.441H24.2a1.174,1.174,0,0,1-1.174-1.174v-5.455H42.916v5.455A1.174,1.174,0,0,1,41.742,169.441Z" transform="translate(-13.877 -138.743)" fill="#d8ecfe"/>
      <path id="Trazado_896455" data-name="Trazado 896455" d="M40.782,162.812v3.321a1.174,1.174,0,0,1-1.174,1.174H23.031v.96A1.174,1.174,0,0,0,24.2,169.44H41.742a1.174,1.174,0,0,0,1.174-1.174v-5.455Z" transform="translate(-13.877 -138.742)" fill="#c4e2ff"/>
      <path id="Trazado_896456" data-name="Trazado 896456" d="M104,117.876a1.657,1.657,0,1,0-3.314,0v1.657l1.657,1.657L104,119.533Z" transform="translate(-83.248 -97.12)" fill="#fac600"/>
      <path id="Trazado_896457" data-name="Trazado 896457" d="M79.034,150.6H70.158a.534.534,0,0,1-.533-.533v-2.247a.534.534,0,0,1,.533-.533h8.875a.534.534,0,0,1,.533.533v2.247A.534.534,0,0,1,79.034,150.6Z" transform="translate(-55.5 -124.869)" fill="#fed402"/>
      <path id="Trazado_896458" data-name="Trazado 896458" d="M303.768,169.441H321.3a1.174,1.174,0,0,0,1.174-1.174v-5.455H302.594v5.455A1.174,1.174,0,0,0,303.768,169.441Z" transform="translate(-263.613 -138.743)" fill="#d8ecfe"/>
      <path id="Trazado_896459" data-name="Trazado 896459" d="M320.345,162.812v3.321a1.174,1.174,0,0,1-1.174,1.174H302.594v.96a1.174,1.174,0,0,0,1.174,1.174H321.3a1.174,1.174,0,0,0,1.174-1.174v-5.455Z" transform="translate(-263.613 -138.742)" fill="#c4e2ff"/>
      <path id="Trazado_896460" data-name="Trazado 896460" d="M60.523,303.135v8.806a.27.27,0,0,1-.148.239,3.316,3.316,0,0,1-3.657-.427.524.524,0,0,0-.677,0,3.313,3.313,0,0,1-4.294,0,.524.524,0,0,0-.676,0,3.314,3.314,0,0,1-4.3,0,.524.524,0,0,0-.676,0,3.313,3.313,0,0,1-4.294,0,.524.524,0,0,0-.676,0,3.313,3.313,0,0,1-4.294,0,.524.524,0,0,0-.676,0,3.315,3.315,0,0,1-4.3,0,.524.524,0,0,0-.676,0,3.313,3.313,0,0,1-4.294,0,.524.524,0,0,0-.676,0,3.313,3.313,0,0,1-4.294,0,.524.524,0,0,0-.676,0,3.314,3.314,0,0,1-4.3,0,.524.524,0,0,0-.676,0,3.313,3.313,0,0,1-4.294,0,.524.524,0,0,0-.677,0,3.316,3.316,0,0,1-3.657.427.27.27,0,0,1-.148-.239v-8.806a.534.534,0,0,1,.533-.533H59.989A.533.533,0,0,1,60.523,303.135Z" transform="translate(0 -263.617)" fill="#eb5569"/>
      <path id="Trazado_896461" data-name="Trazado 896461" d="M59.992,302.6h-1.6v7.085a.531.531,0,0,1-.714.5,3.311,3.311,0,0,1-.953-.565.527.527,0,0,0-.681,0,3.315,3.315,0,0,1-4.294,0,.524.524,0,0,0-.676,0,3.314,3.314,0,0,1-4.3,0,.524.524,0,0,0-.676,0,3.315,3.315,0,0,1-4.294,0,.524.524,0,0,0-.676,0,3.315,3.315,0,0,1-4.294,0,.523.523,0,0,0-.676,0,3.316,3.316,0,0,1-4.3,0,.523.523,0,0,0-.676,0,3.315,3.315,0,0,1-4.294,0,.524.524,0,0,0-.676,0,3.315,3.315,0,0,1-4.294,0,.524.524,0,0,0-.676,0,3.314,3.314,0,0,1-4.3,0,.524.524,0,0,0-.676,0,3.315,3.315,0,0,1-4.294,0,.524.524,0,0,0-.676,0,3.317,3.317,0,0,1-3.656.427.271.271,0,0,1-.148-.24v2.134a.27.27,0,0,0,.148.239,3.316,3.316,0,0,0,3.657-.427.524.524,0,0,1,.676,0,3.313,3.313,0,0,0,4.294,0,.524.524,0,0,1,.676,0,3.314,3.314,0,0,0,4.3,0,.524.524,0,0,1,.676,0,3.313,3.313,0,0,0,4.294,0,.524.524,0,0,1,.677,0,3.313,3.313,0,0,0,4.294,0,.524.524,0,0,1,.676,0,3.315,3.315,0,0,0,4.3,0,.524.524,0,0,1,.676,0,3.313,3.313,0,0,0,4.294,0,.524.524,0,0,1,.676,0,3.313,3.313,0,0,0,4.294,0,.524.524,0,0,1,.676,0,3.314,3.314,0,0,0,4.3,0,.524.524,0,0,1,.676,0,3.313,3.313,0,0,0,4.294,0,.524.524,0,0,1,.677,0,3.316,3.316,0,0,0,3.657.427.269.269,0,0,0,.148-.239v-8.806A.534.534,0,0,0,59.992,302.6Z" transform="translate(-0.003 -263.616)" fill="#e53950"/>
      <path id="Trazado_896462" data-name="Trazado 896462" d="M355.814,14.159V11.347a.533.533,0,0,1,.533-.533h2.247a.534.534,0,0,0,.533-.533V8.033a.534.534,0,0,0-.533-.533h-8.875a.534.534,0,0,0-.533.533v2.247a.534.534,0,0,0,.533.533h2.247a.533.533,0,0,1,.533.533v2.811" transform="translate(-305.234)" fill="none" stroke="#000" stroke-linecap="round" stroke-linejoin="round" stroke-miterlimit="10" stroke-width="2"/>
      <path id="Trazado_896463" data-name="Trazado 896463" d="M42.916,163.812v5.348a1.174,1.174,0,0,1-1.174,1.174H24.2a1.174,1.174,0,0,1-1.174-1.174v-5.348" transform="translate(-13.877 -139.635)" fill="none" stroke="#000" stroke-linecap="round" stroke-linejoin="round" stroke-miterlimit="10" stroke-width="2"/>
      <path id="Trazado_896464" data-name="Trazado 896464" d="M75.616,70.616A9.947,9.947,0,0,1,89.89,79.567" transform="translate(-60.851 -55.497)" fill="none" stroke="#000" stroke-linecap="round" stroke-linejoin="round" stroke-miterlimit="10" stroke-width="2"/>
      <path id="Trazado_896465" data-name="Trazado 896465" d="M23.031,107.452a9.9,9.9,0,0,1,2.517-6.612" transform="translate(-13.877 -83.381)" fill="none" stroke="#000" stroke-linecap="round" stroke-linejoin="round" stroke-miterlimit="10" stroke-width="2"/>
      <path id="Trazado_896466" data-name="Trazado 896466" d="M104,119.426v-1.55a1.657,1.657,0,1,0-3.314,0v1.55" transform="translate(-83.248 -97.12)" fill="none" stroke="#000" stroke-linecap="round" stroke-linejoin="round" stroke-miterlimit="10" stroke-width="2"/>
      <path id="Trazado_896467" data-name="Trazado 896467" d="M79.034,150.6H70.158a.534.534,0,0,1-.533-.533v-2.247a.534.534,0,0,1,.533-.533h8.875a.534.534,0,0,1,.533.533v2.247A.534.534,0,0,1,79.034,150.6Z" transform="translate(-55.5 -124.869)" fill="none" stroke="#000" stroke-linecap="round" stroke-linejoin="round" stroke-miterlimit="10" stroke-width="2"/>
      <line id="Línea_608" data-name="Línea 608" x2="6.522" transform="translate(24.174 24.07)" fill="none" stroke="#000" stroke-linecap="round" stroke-linejoin="round" stroke-miterlimit="10" stroke-width="2"/>
      <line id="Línea_609" data-name="Línea 609" x2="6.521" transform="translate(7.497 24.07)" fill="none" stroke="#000" stroke-linecap="round" stroke-linejoin="round" stroke-miterlimit="10" stroke-width="2"/>
      <path id="Trazado_896468" data-name="Trazado 896468" d="M343.231,127.012a4.3,4.3,0,0,0-.929-1.708c-.782-.782-2.014-.967-3.053-1.4-1-.415-1.995-1.17-3.146-1.17s-2.145.755-3.146,1.17c-1.038.43-2.27.615-3.052,1.4a4.3,4.3,0,0,0-.929,1.708" transform="translate(-287.18 -102.941)" fill="none" stroke="#000" stroke-linecap="round" stroke-linejoin="round" stroke-miterlimit="10" stroke-width="2"/>
      <line id="Línea_610" data-name="Línea 610" x1="11.192" transform="translate(37.324 24.07)" fill="none" stroke="#000" stroke-linecap="round" stroke-linejoin="round" stroke-miterlimit="10" stroke-width="2"/>
      <line id="Línea_611" data-name="Línea 611" x1="8.273" transform="translate(52.25 24.07)" fill="none" stroke="#000" stroke-linecap="round" stroke-linejoin="round" stroke-miterlimit="10" stroke-width="2"/>
      <path id="Trazado_896469" data-name="Trazado 896469" d="M219.972,14.551v-1.6a1.067,1.067,0,0,0-.7-1l-5.3-1.929a.641.641,0,0,1-.42-.568,2.071,2.071,0,1,0-2.182,2.184.638.638,0,0,1,.565.42l1.929,5.3a1.067,1.067,0,0,0,1,.7h1.6" transform="translate(-180.367 0)" fill="none" stroke="#000" stroke-linecap="round" stroke-linejoin="round" stroke-miterlimit="10" stroke-width="2"/>
      <line id="Línea_612" data-name="Línea 612" y1="8.137" x2="3.255" transform="translate(12.496 30.778)" fill="none" stroke="#000" stroke-linecap="round" stroke-linejoin="round" stroke-miterlimit="10" stroke-width="2"/>
      <line id="Línea_613" data-name="Línea 613" x1="3.255" y2="8.137" transform="translate(9.182 30.778)" fill="none" stroke="#000" stroke-linecap="round" stroke-linejoin="round" stroke-miterlimit="10" stroke-width="2"/>
      <line id="Línea_614" data-name="Línea 614" x1="3.255" y1="8.137" transform="translate(22.442 30.778)" fill="none" stroke="#000" stroke-linecap="round" stroke-linejoin="round" stroke-miterlimit="10" stroke-width="2"/>
      <line id="Línea_615" data-name="Línea 615" x2="3.255" y2="8.137" transform="translate(25.756 30.778)" fill="none" stroke="#000" stroke-linecap="round" stroke-linejoin="round" stroke-miterlimit="10" stroke-width="2"/>
      <path id="Trazado_896470" data-name="Trazado 896470" d="M302.594,163.812v5.348a1.174,1.174,0,0,0,1.174,1.174H321.3a1.174,1.174,0,0,0,1.174-1.174v-5.348" transform="translate(-263.613 -139.635)" fill="none" stroke="#000" stroke-linecap="round" stroke-linejoin="round" stroke-miterlimit="10" stroke-width="2"/>
      <path id="Trazado_896471" data-name="Trazado 896471" d="M322.478,79.566a9.942,9.942,0,1,0-19.885,0" transform="translate(-263.612 -55.496)" fill="none" stroke="#000" stroke-linecap="round" stroke-linejoin="round" stroke-miterlimit="10" stroke-width="2"/>
      <line id="Línea_616" data-name="Línea 616" x1="3.255" y1="8.137" transform="translate(52.269 30.778)" fill="none" stroke="#000" stroke-linecap="round" stroke-linejoin="round" stroke-miterlimit="10" stroke-width="2"/>
      <line id="Línea_617" data-name="Línea 617" x2="3.255" y2="8.137" transform="translate(55.583 30.778)" fill="none" stroke="#000" stroke-linecap="round" stroke-linejoin="round" stroke-miterlimit="10" stroke-width="2"/>
      <line id="Línea_618" data-name="Línea 618" y1="8.137" x2="3.255" transform="translate(42.323 30.778)" fill="none" stroke="#000" stroke-linecap="round" stroke-linejoin="round" stroke-miterlimit="10" stroke-width="2"/>
      <line id="Línea_619" data-name="Línea 619" x1="3.255" y2="8.137" transform="translate(39.009 30.778)" fill="none" stroke="#000" stroke-linecap="round" stroke-linejoin="round" stroke-miterlimit="10" stroke-width="2"/>
      <path id="Trazado_896472" data-name="Trazado 896472" d="M60.523,303.135v8.806a.27.27,0,0,1-.148.239,3.316,3.316,0,0,1-3.657-.427.524.524,0,0,0-.677,0,3.313,3.313,0,0,1-4.294,0,.524.524,0,0,0-.676,0,3.314,3.314,0,0,1-4.3,0,.524.524,0,0,0-.676,0,3.313,3.313,0,0,1-4.294,0,.524.524,0,0,0-.676,0,3.313,3.313,0,0,1-4.294,0,.524.524,0,0,0-.676,0,3.315,3.315,0,0,1-4.3,0,.524.524,0,0,0-.676,0,3.313,3.313,0,0,1-4.294,0,.524.524,0,0,0-.676,0,3.313,3.313,0,0,1-4.294,0,.524.524,0,0,0-.676,0,3.314,3.314,0,0,1-4.3,0,.524.524,0,0,0-.676,0,3.313,3.313,0,0,1-4.294,0,.524.524,0,0,0-.677,0,3.316,3.316,0,0,1-3.657.427.27.27,0,0,1-.148-.239v-8.806a.534.534,0,0,1,.533-.533H59.989A.533.533,0,0,1,60.523,303.135Z" transform="translate(0 -263.617)" fill="none" stroke="#000" stroke-linecap="round" stroke-linejoin="round" stroke-miterlimit="10" stroke-width="2"/>
      <path id="Trazado_896473" data-name="Trazado 896473" d="M356.658,247.392a9.967,9.967,0,0,0,8.354,0" transform="translate(-311.909 -214.296)" fill="none" stroke="#000" stroke-linecap="round" stroke-linejoin="round" stroke-miterlimit="10" stroke-width="2"/>
      <line id="Línea_620" data-name="Línea 620" y1="3.834" transform="translate(12.468 48.589)" fill="none" stroke="#000" stroke-linecap="round" stroke-linejoin="round" stroke-miterlimit="10" stroke-width="2"/>
      <path id="Trazado_896474" data-name="Trazado 896474" d="M23.031,396.781V407.74a.533.533,0,0,0,.533.533h2.247a.533.533,0,0,0,.533-.533v-3.834" transform="translate(-13.877 -347.748)" fill="none" stroke="#000" stroke-linecap="round" stroke-linejoin="round" stroke-miterlimit="10" stroke-width="2"/>
      <path id="Trazado_896475" data-name="Trazado 896475" d="M461.221,393.067v10.959a.534.534,0,0,1-.533.533H458.44a.534.534,0,0,1-.533-.533v-11.4" transform="translate(-402.355 -344.034)" fill="none" stroke="#000" stroke-linecap="round" stroke-linejoin="round" stroke-miterlimit="10" stroke-width="2"/>
    </g>
  </g>
</svg>
