<svg xmlns="http://www.w3.org/2000/svg" xmlns:xlink="http://www.w3.org/1999/xlink" width="108.914" height="108.914" viewBox="0 0 108.914 108.914">
  <defs>
    <filter id="Rectángulo_400898" x="0" y="0" width="108.914" height="108.914" filterUnits="userSpaceOnUse">
      <feOffset dy="3" input="SourceAlpha"/>
      <feGaussianBlur stdDeviation="3" result="blur"/>
      <feFlood flood-opacity="0.161"/>
      <feComposite operator="in" in2="blur"/>
      <feComposite in="SourceGraphic"/>
    </filter>
  </defs>
  <g id="Grupo_1108441" data-name="Grupo 1108441" transform="translate(2172.592 9209.702)">
    <g id="Grupo_1105799" data-name="Grupo 1105799" transform="translate(-2163.592 -9203.702)">
      <g transform="matrix(1, 0, 0, 1, -9, -6)" filter="url(#Rectángulo_400898)">
        <g id="Rectángulo_400898-2" data-name="Rectángulo 400898" transform="translate(9 6)" fill="#9ec9ff" stroke="#fff" stroke-width="3" opacity="0.859">
          <rect width="90.914" height="90.914" rx="45.457" stroke="none"/>
          <rect x="1.5" y="1.5" width="87.914" height="87.914" rx="43.957" fill="none"/>
        </g>
      </g>
      <rect id="Rectángulo_400907" data-name="Rectángulo 400907" width="90.914" height="90.914" rx="45.457" transform="translate(0 0)" fill="none"/>
    </g>
    <g id="Grupo_1108415" data-name="Grupo 1108415" transform="translate(-2147.21 -9185.944)">
      <path id="Trazado_896476" data-name="Trazado 896476" d="M94.9,80.886H48C48,67.418,58.5,56.5,71.448,56.5S94.9,67.418,94.9,80.886Zm0,0" transform="translate(-42.373 -49.435)" fill="#e0e0e2"/>
      <path id="Trazado_896477" data-name="Trazado 896477" d="M64.276,264.5,62.4,270.128H9.876L8,264.5Zm0,0" transform="translate(-7.063 -233.049)" fill="#acabb1"/>
      <path id="Trazado_896478" data-name="Trazado 896478" d="M114.638,312.286a1.146,1.146,0,0,0-.131.094L104.254,320.7l-12.193.028-.009-3.733,7.513-.019a1.876,1.876,0,0,0,1.867-1.876v-.975a1.865,1.865,0,0,0-1.566-1.838,1.709,1.709,0,0,0-.31-.028l-15.035.028L79.84,317l.019,11.274,24.4-.047,13.91-11.349a2.9,2.9,0,0,0,1.079-2.261v-.009a2.85,2.85,0,0,0-1.191-2.326" transform="translate(-70.481 -275.208)" fill="#ffeb99"/>
      <path id="Trazado_896479" data-name="Trazado 896479" d="M8,336.5h8.441v14.069H8Zm0,0" transform="translate(-7.063 -296.608)" fill="#ab2300"/>
      <path id="Trazado_896480" data-name="Trazado 896480" d="M232,8.5h3.752v5.628H232Zm0,0" transform="translate(-204.801 -7.063)" fill="#acabb1"/>
      <g id="Grupo_1108414" data-name="Grupo 1108414" transform="translate(-0.001 0.499)">
        <path id="Trazado_896481" data-name="Trazado 896481" d="M83.856,117.3a.938.938,0,1,0-1.161-1.472,21.694,21.694,0,0,0-7.9,13.324.938.938,0,0,0,.761,1.086.9.9,0,0,0,.164.015.938.938,0,0,0,.922-.775A19.825,19.825,0,0,1,83.856,117.3Zm0,0" transform="translate(-66.013 -102.12)" fill="#231f20"/>
        <path id="Trazado_896482" data-name="Trazado 896482" d="M57.974,30.9a.936.936,0,0,0-.762-.389H53.439C52.992,17.962,43.721,7.721,31.889,6.3V1.437A.938.938,0,0,0,30.951.5H27.2a.938.938,0,0,0-.938.938V6.3C14.429,7.721,5.158,17.962,4.711,30.513H.937a.938.938,0,0,0-.889,1.234l1.876,5.628a.939.939,0,0,0,.889.642h8.976l-1.538,1.55a.931.931,0,0,0-.872-.612H.937A.938.938,0,0,0,0,39.892V53.961a.938.938,0,0,0,.938.938H9.378a.933.933,0,0,0,.929-.893l23.477-.045a.929.929,0,0,0,.591-.212L48.283,42.4a3.751,3.751,0,0,0,1.138-4.384h5.917a.939.939,0,0,0,.889-.642L58.1,31.747a.938.938,0,0,0-.128-.845ZM28.137,6.127V2.375h1.876V6.127ZM29.075,8c12.111,0,22.019,10.014,22.492,22.51H6.583C7.056,18.017,16.964,8,29.075,8ZM1.875,50.209H3.751a.938.938,0,0,0,0-1.876H1.875v-7.5H8.441s-.019.938-.019.968l.019,11.225H1.875Zm45.958-10.8a1.969,1.969,0,0,1-.734,1.535L33.448,52.085l-23.131.045V42.165l4.114-4.148H29.263a.925.925,0,0,1,.75.9v.975a.938.938,0,0,1-.931.938l-7.511.019a.938.938,0,0,0-.938.938l.009,3.733a.938.938,0,0,0,.938.938l12.193-.028a.939.939,0,0,0,.589-.21l10.111-8.2h2.753a1.9,1.9,0,0,1,.607,1.4Zm-16.1-1.4H41.5L33.44,44.554l-10.924.027V42.724l6.568-.018a2.814,2.814,0,0,0,2.8-2.814v-.975a2.788,2.788,0,0,0-.154-.9ZM54.66,36.141H3.489l-1.25-3.752H55.911Zm0,0" transform="translate(0.001 -0.499)" fill="#231f20"/>
        <path id="Trazado_896483" data-name="Trazado 896483" d="M49.453,408.64a.522.522,0,0,0-.159-.084.559.559,0,0,0-.179-.056.752.752,0,0,0-.355,0,.554.554,0,0,0-.178.056.735.735,0,0,0-.17.084,1.564,1.564,0,0,0-.14.113.981.981,0,0,0-.272.666.939.939,0,0,0,.065.356,1.435,1.435,0,0,0,.207.31,1.081,1.081,0,0,0,.31.2.885.885,0,0,0,.713,0,1.091,1.091,0,0,0,.31-.2.931.931,0,0,0,.272-.666.986.986,0,0,0-.272-.666.925.925,0,0,0-.15-.113Zm0,0" transform="translate(-42.372 -360.646)" fill="#231f20"/>
        <path id="Trazado_896484" data-name="Trazado 896484" d="M112.441,224.5h-7.5a.938.938,0,0,0,0,1.876h7.5a.938.938,0,0,0,0-1.876Zm0,0" transform="translate(-91.807 -198.238)" fill="#231f20"/>
        <path id="Trazado_896485" data-name="Trazado 896485" d="M193.876,224.5h-.938a.938.938,0,1,0,0,1.876h.938a.938.938,0,0,0,0-1.876Zm0,0" transform="translate(-169.49 -198.238)" fill="#231f20"/>
        <path id="Trazado_896486" data-name="Trazado 896486" d="M384.938,280.5a.938.938,0,0,0,0,1.876H391.5a.938.938,0,1,0,0-1.876Zm0,0" transform="translate(-338.979 -247.672)" fill="#231f20"/>
        <path id="Trazado_896487" data-name="Trazado 896487" d="M353.876,280.5h-.938a.938.938,0,0,0,0,1.876h.938a.938.938,0,0,0,0-1.876Zm0,0" transform="translate(-310.731 -247.672)" fill="#231f20"/>
      </g>
    </g>
  </g>
</svg>
