<svg xmlns="http://www.w3.org/2000/svg" xmlns:xlink="http://www.w3.org/1999/xlink" width="108.914" height="108.914" viewBox="0 0 108.914 108.914">
  <defs>
    <filter id="Rectángulo_400898" x="0" y="0" width="108.914" height="108.914" filterUnits="userSpaceOnUse">
      <feOffset dy="3" input="SourceAlpha"/>
      <feGaussianBlur stdDeviation="3" result="blur"/>
      <feFlood flood-opacity="0.161"/>
      <feComposite operator="in" in2="blur"/>
      <feComposite in="SourceGraphic"/>
    </filter>
  </defs>
  <g id="Grupo_1108437" data-name="Grupo 1108437" transform="translate(-798.051 -2402)">
    <g id="Grupo_1105799" data-name="Grupo 1105799" transform="translate(807.051 2408)">
      <g transform="matrix(1, 0, 0, 1, -9, -6)" filter="url(#Rectángulo_400898)">
        <g id="Rectángulo_400898-2" data-name="Rectángulo 400898" transform="translate(9 6)" fill="#9ec9ff" stroke="#fff" stroke-width="3" opacity="0.859">
          <rect width="90.914" height="90.914" rx="45.457" stroke="none"/>
          <rect x="1.5" y="1.5" width="87.914" height="87.914" rx="43.957" fill="none"/>
        </g>
      </g>
      <rect id="Rectángulo_400907" data-name="Rectángulo 400907" width="90.914" height="90.914" rx="45.457" transform="translate(0 0)" fill="none"/>
    </g>
    <g id="_27._Nachos" data-name="27. Nachos" transform="translate(819.523 2371.988)">
      <path id="Trazado_896410" data-name="Trazado 896410" d="M308.79,269.04l12.725-4.3-1.5,13.348Z" transform="translate(-269.027 -181.85)" fill="#e38343"/>
      <path id="Trazado_896411" data-name="Trazado 896411" d="M312.422,271.92l-11.23-9.049a1.03,1.03,0,0,1,.317-1.778l12.725-4.3a1.03,1.03,0,0,1,1.353,1.091L314.1,271.232a1.03,1.03,0,0,1-1.674.688Zm-8.479-9.481,8.308,6.7,1.106-9.874Z" transform="translate(-262.074 -174.879)"/>
      <path id="Trazado_896412" data-name="Trazado 896412" d="M76.63,258.781l10.542-8.321,3.074,13.075Z" transform="translate(-66.762 -169.409)" fill="#e38343"/>
      <path id="Trazado_896413" data-name="Trazado 896413" d="M83.275,257.6c-.258,0,.711.309-13.956-4.812a1.03,1.03,0,0,1-.3-1.781l10.544-8.321a1.03,1.03,0,0,1,1.641.573l3.072,13.075a1.03,1.03,0,0,1-1,1.266Zm-11.508-6.138,10.072,3.517L79.566,245.3Z" transform="translate(-59.791 -162.441)"/>
      <path id="Trazado_896414" data-name="Trazado 896414" d="M40,97.271,50.3,88l3.267,13.392Z" transform="translate(-34.849 -27.868)" fill="#e38343"/>
      <path id="Trazado_896415" data-name="Trazado 896415" d="M46.621,95.443c-.227,0,.623.236-13.867-4.166a1.03,1.03,0,0,1-.386-1.751l10.3-9.271a1.03,1.03,0,0,1,1.689.515l1.257,5.151a1.032,1.032,0,0,1-2,.5l-.847-3.477-7.666,6.9L45.192,92.9l-.577-2.365a1.03,1.03,0,1,1,2-.489l1.006,4.121a1.03,1.03,0,0,1-1,1.275Z" transform="translate(-27.902 -20.89)"/>
      <path id="Trazado_896416" data-name="Trazado 896416" d="M24,259.332,31.211,248l7.211,11.332Z" transform="translate(-20.91 -167.265)" fill="#e9a648"/>
      <path id="Trazado_896417" data-name="Trazado 896417" d="M31.454,253.4H17.032a1.03,1.03,0,0,1-.869-1.583l7.211-11.332a1.03,1.03,0,0,1,1.738,0l7.211,11.332a1.03,1.03,0,0,1-.869,1.583Zm-12.546-2.06h10.67l-5.335-8.383Z" transform="translate(-13.942 -160.299)"/>
      <path id="Trazado_896418" data-name="Trazado 896418" d="M144,259.332,151.211,248l7.211,11.332Z" transform="translate(-125.457 -167.265)" fill="#e9a648"/>
      <path id="Trazado_896419" data-name="Trazado 896419" d="M151.454,253.4H137.032a1.03,1.03,0,0,1-.869-1.583l7.211-11.332a1.03,1.03,0,0,1,1.738,0l7.211,11.332a1.03,1.03,0,0,1-.869,1.583Zm-12.546-2.06h10.67l-5.335-8.383Z" transform="translate(-118.49 -160.299)"/>
      <path id="Trazado_896420" data-name="Trazado 896420" d="M239.71,255.94l1.714-14.15,11.827,9.189Z" transform="translate(-208.843 -161.855)" fill="#e38343"/>
      <path id="Trazado_896421" data-name="Trazado 896421" d="M232.738,249.964a1.03,1.03,0,0,1-1.022-1.159l1.713-14.15a1.03,1.03,0,0,1,1.655-.69l11.829,9.189a1.03,1.03,0,0,1-.277,1.781C232.18,250.236,233.007,249.964,232.738,249.964Zm2.517-13.252-1.288,10.676,10.217-3.743Z" transform="translate(-201.87 -154.848)"/>
      <path id="Trazado_896422" data-name="Trazado 896422" d="M271.71,77.351,274.838,64l10.414,8.389Z" transform="translate(-236.722 -6.959)" fill="#e9a648"/>
      <path id="Trazado_896423" data-name="Trazado 896423" d="M264.74,71.422a1.03,1.03,0,0,1-1-1.265l3.128-13.351a1.03,1.03,0,0,1,1.647-.568l10.414,8.389a1.03,1.03,0,0,1-.291,1.769C264.183,71.694,265.009,71.422,264.74,71.422ZM268.5,58.871l-2.318,9.9,10.044-3.679Z" transform="translate(-229.752 0)"/>
      <path id="Trazado_896424" data-name="Trazado 896424" d="M272,267.332,279.211,256l7.211,11.332Z" transform="translate(-236.975 -174.235)" fill="#e9a648"/>
      <path id="Trazado_896425" data-name="Trazado 896425" d="M279.454,261.4H265.032a1.03,1.03,0,0,1-.869-1.583l7.211-11.332a1.03,1.03,0,0,1,1.738,0l7.211,11.332a1.03,1.03,0,0,1-.869,1.583Zm-12.546-2.06h10.67l-5.335-8.383Z" transform="translate(-230.007 -167.269)"/>
      <path id="Trazado_896426" data-name="Trazado 896426" d="M63.628,328c0,3.806.008,3.781-.018,4.121a7.726,7.726,0,0,1-7.708,7.211H15.726A7.726,7.726,0,0,1,8,331.606V328Z" transform="translate(-6.97 -236.964)" fill="#dcdcdc"/>
      <path id="Trazado_896427" data-name="Trazado 896427" d="M55.9,339.726H15.726A7.726,7.726,0,0,1,8,332v3.09a7.726,7.726,0,0,0,7.726,7.726H55.9a7.726,7.726,0,0,0,7.708-7.21c.025-.328.018-.234.018-3.606A7.726,7.726,0,0,1,55.9,339.726Z" transform="translate(-6.97 -240.449)" fill="#bbb"/>
      <path id="Trazado_896428" data-name="Trazado 896428" d="M63.621,328c0,3.806.008,3.781-.018,4.121H8.011c-.026-.335-.018-.278-.018-4.121Z" transform="translate(-6.962 -236.964)" fill="#f6f6f6"/>
      <path id="Trazado_896429" data-name="Trazado 896429" d="M48.932,333.392H39.146a1.03,1.03,0,0,1,0-2.06h9.786a6.7,6.7,0,0,0,6.7-6.7V322.06H2.06v2.575a6.7,6.7,0,0,0,6.7,6.7H35.025a1.03,1.03,0,0,1,0,2.06H8.756A8.765,8.765,0,0,1,0,324.636V321.03A1.03,1.03,0,0,1,1.03,320H56.658a1.03,1.03,0,0,1,1.03,1.03v3.606A8.765,8.765,0,0,1,48.932,333.392Z" transform="translate(0 -229.994)"/>
      <path id="Trazado_896430" data-name="Trazado 896430" d="M357.392,392.241h-6.181A7.211,7.211,0,0,1,344,385.03a1.03,1.03,0,0,1,1.03-1.03h18.543a1.03,1.03,0,0,1,1.03,1.03A7.211,7.211,0,0,1,357.392,392.241Z" transform="translate(-299.703 -285.753)" fill="#e38499"/>
      <path id="Trazado_896431" data-name="Trazado 896431" d="M364.228,385.819a7.211,7.211,0,0,1-6.836,4.916h-6.181a7.211,7.211,0,0,1-6.836-4.917,1.03,1.03,0,0,0-.375.8,7.211,7.211,0,0,0,7.211,7.211h6.181a7.211,7.211,0,0,0,7.211-7.211A1.03,1.03,0,0,0,364.228,385.819Z" transform="translate(-299.703 -287.338)" fill="#db4e6c"/>
      <path id="Trazado_896432" data-name="Trazado 896432" d="M350.422,386.3h-6.181A8.25,8.25,0,0,1,336,378.06a2.06,2.06,0,0,1,2.06-2.06H356.6a2.06,2.06,0,0,1,2.06,2.06A8.25,8.25,0,0,1,350.422,386.3ZM338.06,378.06a6.187,6.187,0,0,0,6.181,6.181h6.181a6.187,6.187,0,0,0,6.181-6.181Z" transform="translate(-292.734 -278.783)"/>
      <path id="Trazado_896433" data-name="Trazado 896433" d="M57.549,354.06H2.23a1.03,1.03,0,1,1,0-2.06H57.549a1.03,1.03,0,1,1,0,2.06Z" transform="translate(-1.045 -257.873)"/>
      <path id="Trazado_896434" data-name="Trazado 896434" d="M376.482,305.271a2.06,2.06,0,0,1-2.06,2.06H362.06a2.06,2.06,0,0,1,0-4.121h2.06a2.06,2.06,0,0,1-2.06-2.06c0-1.138.922-2.06,3.219-2.06a6.035,6.035,0,0,0,3.689-1.261l2.363-1.83v2.06a1.03,1.03,0,0,0,1.03,1.03,2.06,2.06,0,0,1,2.06,2.077,2.1,2.1,0,0,1-2.113,2.044h2.113A2.06,2.06,0,0,1,376.482,305.271Z" transform="translate(-313.643 -209.084)" fill="#f6edc8"/>
      <path id="Trazado_896435" data-name="Trazado 896435" d="M367.46,301.387H355.1a3.09,3.09,0,0,1-.814-6.071,2.861,2.861,0,0,1,.959-3.433,5.205,5.205,0,0,1,3.074-.8,5,5,0,0,0,3.06-1.046l2.362-1.83a1.03,1.03,0,0,1,1.661.815v2.06a3.09,3.09,0,0,1,2.869,4.227,3.09,3.09,0,0,1-.809,6.074ZM355.1,297.266a1.03,1.03,0,1,0,0,2.06H367.46a1.03,1.03,0,0,0,0-2.06h-2.113a1.03,1.03,0,0,1,0-2.06,1.06,1.06,0,0,0,1.083-1.021,1.03,1.03,0,0,0-1.03-1.039,2.06,2.06,0,0,1-2.06-2.021l-.7.545a7.06,7.06,0,0,1-4.32,1.476c-1.9,0-2.189.644-2.189,1.03a1.03,1.03,0,0,0,1.03,1.03,1.03,1.03,0,1,1,0,2.06Z" transform="translate(-306.681 -202.109)"/>
      <path id="Trazado_896436" data-name="Trazado 896436" d="M97.03,146.06a1.03,1.03,0,1,1,1.03-1.03A1.03,1.03,0,0,1,97.03,146.06Z" transform="translate(-83.638 -76.657)"/>
      <path id="Trazado_896437" data-name="Trazado 896437" d="M193.03,298.06a1.03,1.03,0,1,1,1.03-1.03A1.03,1.03,0,0,1,193.03,298.06Z" transform="translate(-167.276 -209.084)"/>
      <path id="Trazado_896438" data-name="Trazado 896438" d="M305.03,114.06a1.03,1.03,0,1,1,1.03-1.03A1.03,1.03,0,0,1,305.03,114.06Z" transform="translate(-264.854 -48.778)"/>
      <path id="Trazado_896439" data-name="Trazado 896439" d="M265.03,290.06a1.03,1.03,0,1,1,1.03-1.03A1.03,1.03,0,0,1,265.03,290.06Z" transform="translate(-230.005 -202.115)"/>
      <path id="Trazado_896440" data-name="Trazado 896440" d="M321.03,298.06a1.03,1.03,0,1,1,1.03-1.03A1.03,1.03,0,0,1,321.03,298.06Z" transform="translate(-278.794 -209.084)"/>
      <path id="Trazado_896441" data-name="Trazado 896441" d="M73.03,298.06a1.03,1.03,0,1,1,1.03-1.03A1.03,1.03,0,0,1,73.03,298.06Z" transform="translate(-62.729 -209.084)"/>
    </g>
  </g>
</svg>
