<svg xmlns="http://www.w3.org/2000/svg" xmlns:xlink="http://www.w3.org/1999/xlink" width="108.914" height="108.914" viewBox="0 0 108.914 108.914">
  <defs>
    <filter id="Trazado_896036" x="0" y="0" width="108.914" height="108.914" filterUnits="userSpaceOnUse">
      <feOffset dy="3" input="SourceAlpha"/>
      <feGaussianBlur stdDeviation="3" result="blur"/>
      <feFlood flood-opacity="0.161"/>
      <feComposite operator="in" in2="blur"/>
      <feComposite in="SourceGraphic"/>
    </filter>
  </defs>
  <g id="Grupo_1108438" data-name="Grupo 1108438" transform="translate(-1114.051 -2402.323)">
    <g id="Grupo_1105800" data-name="Grupo 1105800" transform="translate(1123.051 2408.322)">
      <g transform="matrix(1, 0, 0, 1, -9, -6)" filter="url(#Trazado_896036)">
        <g id="Trazado_896036-2" data-name="Trazado 896036" transform="translate(9 6)" fill="#9ec9ff" opacity="0.859">
          <path d="M 45.45676803588867 89.41407012939453 C 39.52198028564453 89.41407012939453 33.76551818847656 88.25206756591797 28.34726715087891 85.96034240722656 C 23.11311721801758 83.74648284912109 18.41204261779785 80.57682800292969 14.37464332580566 76.5394287109375 C 10.33724308013916 72.50202941894531 7.167593002319336 67.80095672607422 4.953730583190918 62.56679534912109 C 2.662005424499512 57.14855575561523 1.500005483627319 51.39208221435547 1.500005483627319 45.45729446411133 C 1.500005483627319 39.52198028564453 2.662005424499512 33.76551818847656 4.953730583190918 28.34726905822754 C 7.167593002319336 23.11310577392578 10.33724308013916 18.41203117370605 14.37464332580566 14.37464332580566 C 18.41204261779785 10.33724403381348 23.11311721801758 7.167593955993652 28.34726715087891 4.953731060028076 C 33.76551818847656 2.662006139755249 39.52198028564453 1.500006198883057 45.45676803588867 1.500006198883057 C 51.39155578613281 1.500006198883057 57.14802932739258 2.662006139755249 62.56626892089844 4.953731060028076 C 67.80043029785156 7.167593955993652 72.50150299072266 10.33724403381348 76.53890228271484 14.37464332580566 C 80.57630920410156 18.41203117370605 83.74595642089844 23.11310577392578 85.95981597900391 28.34726905822754 C 88.25154113769531 33.76551818847656 89.41354370117188 39.52198028564453 89.41354370117188 45.45676803588867 C 89.41354370117188 51.39208221435547 88.25154113769531 57.14855575561523 85.95981597900391 62.56679534912109 C 83.74595642089844 67.80095672607422 80.57630920410156 72.50202941894531 76.53890228271484 76.5394287109375 C 72.50150299072266 80.57682800292969 67.80043029785156 83.74648284912109 62.56626892089844 85.96034240722656 C 57.14802932739258 88.25206756591797 51.39155578613281 89.41407012939453 45.45676803588867 89.41407012939453 Z" stroke="none"/>
          <path d="M 45.45676803588867 3 C 39.72381210327148 3 34.1639404296875 4.12213134765625 28.93159484863281 6.335227966308594 C 23.87622833251953 8.473472595214844 19.33542633056641 11.53517150878906 15.43529510498047 15.435302734375 C 11.53517150878906 19.33543395996094 8.473464965820312 23.87622833251953 6.335227966308594 28.93160247802734 C 4.122123718261719 34.16394424438477 3 39.72381591796875 3 45.4572868347168 C 3 51.19024658203125 4.122123718261719 56.75011825561523 6.335227966308594 61.98246002197266 C 8.473464965820312 67.03782653808594 11.53517150878906 71.57862854003906 15.43529510498047 75.478759765625 C 19.33542633056641 79.37889099121094 23.87622833251953 82.44058990478516 28.93159484863281 84.57883453369141 C 34.1639404296875 86.79193115234375 39.72381210327148 87.9140625 45.45676803588867 87.9140625 C 51.18972396850586 87.9140625 56.74959564208984 86.79193115234375 61.98194122314453 84.57883453369141 C 67.03730773925781 82.44058990478516 71.57810974121094 79.37889099121094 75.47824096679688 75.478759765625 C 79.37837219238281 71.57862854003906 82.44007110595703 67.03782653808594 84.57830810546875 61.98246002197266 C 86.79141235351562 56.75011825561523 87.91353607177734 51.19024658203125 87.91353607177734 45.4567756652832 C 87.91353607177734 39.72381591796875 86.79141235351562 34.16394424438477 84.57830810546875 28.93160247802734 C 82.44007110595703 23.87622833251953 79.37837219238281 19.33543395996094 75.47824096679688 15.435302734375 C 71.57810974121094 11.53517150878906 67.03730773925781 8.473472595214844 61.98194122314453 6.335227966308594 C 56.74959564208984 4.12213134765625 51.18972396850586 3 45.45676803588867 3 M 45.45676803588867 0 C 70.56185150146484 0 90.91353607177734 20.35169219970703 90.91353607177734 45.4567756652832 L 90.91353607177734 45.4572868347168 C 90.91353607177734 70.5623779296875 70.56185150146484 90.9140625 45.45676803588867 90.9140625 C 20.3516845703125 90.9140625 0 70.5623779296875 0 45.4572868347168 L 0 45.4567756652832 C 0 20.35169219970703 20.3516845703125 0 45.45676803588867 0 Z" stroke="none" fill="#fff"/>
        </g>
      </g>
      <g id="Rectángulo_400907" data-name="Rectángulo 400907" transform="translate(0 0)" fill="none" stroke="#fff" stroke-width="3">
        <rect width="90.914" height="90.914" rx="45.457" stroke="none"/>
        <rect x="1.5" y="1.5" width="87.914" height="87.914" rx="43.957" fill="none"/>
      </g>
    </g>
    <g id="Grupo_1108411" data-name="Grupo 1108411" transform="translate(1135.916 2423.19)">
      <g id="Grupo_1108409" data-name="Grupo 1108409" transform="translate(3.467 0.896)">
        <g id="Grupo_1108399" data-name="Grupo 1108399" transform="translate(0.598 1.303)">
          <g id="Grupo_1108395" data-name="Grupo 1108395">
            <g id="Grupo_1108394" data-name="Grupo 1108394">
              <g id="Grupo_1108393" data-name="Grupo 1108393">
                <g id="Grupo_1108390" data-name="Grupo 1108390">
                  <circle id="Elipse_11661" data-name="Elipse 11661" cx="29.041" cy="29.041" r="29.041" fill="#f5f7f8"/>
                  <g id="Grupo_1108389" data-name="Grupo 1108389" transform="translate(0.187 0)">
                    <path id="Trazado_896378" data-name="Trazado 896378" d="M43.307,140.851H50.7a1.25,1.25,0,0,0,1.184-1.644,18.858,18.858,0,0,0-11.792-11.913H50.463a1.25,1.25,0,0,0,1.184-1.644,18.814,18.814,0,0,0-33.78-4.138,28.875,28.875,0,0,0-1.234,5.694,1.243,1.243,0,0,0,.463.089H27.939A18.868,18.868,0,0,0,17.133,136.8a28.815,28.815,0,0,0,1.214,4.052H28.629a18.864,18.864,0,0,0-7.393,5.63,29.2,29.2,0,0,0,7.085,7.445h24.33a1.25,1.25,0,0,0,1.184-1.644,18.865,18.865,0,0,0-10.528-11.432Z" transform="translate(-16.634 -101.461)" fill="#d9e7eb"/>
                    <path id="Trazado_896379" data-name="Trazado 896379" d="M269.068,47.447a29.04,29.04,0,0,1-29.041,29.041q-1.24,0-2.454-.1a29.042,29.042,0,0,0,0-57.875q1.215-.1,2.454-.1a29.04,29.04,0,0,1,29.041,29.041Z" transform="translate(-211.174 -18.406)" fill="#d9e7eb"/>
                  </g>
                </g>
                <g id="Grupo_1108392" data-name="Grupo 1108392" transform="translate(4.266 4.266)">
                  <circle id="Elipse_11662" data-name="Elipse 11662" cx="24.775" cy="24.775" r="24.775" transform="translate(0 0)" fill="#d9e7eb"/>
                  <g id="Grupo_1108391" data-name="Grupo 1108391" transform="translate(0.032)">
                    <path id="Trazado_896380" data-name="Trazado 896380" d="M73.6,140.851h7.391a1.25,1.25,0,0,0,1.184-1.644A18.858,18.858,0,0,0,70.38,127.293H80.755a1.25,1.25,0,0,0,1.184-1.644,18.822,18.822,0,0,0-24.623-11.664,24.68,24.68,0,0,0-6.1,13.309h7.02a18.8,18.8,0,0,0-7.195,4.479,24.642,24.642,0,0,0,2.228,9.078H58.92a18.783,18.783,0,0,0-4.3,2.549,24.848,24.848,0,0,0,13.071,10.526H82.942a1.25,1.25,0,0,0,1.184-1.644A18.865,18.865,0,0,0,73.6,140.851Z" transform="translate(-51.036 -105.727)" fill="#c5d3dd"/>
                    <path id="Trazado_896381" data-name="Trazado 896381" d="M349.418,260.212a24.624,24.624,0,0,1-4,9.578,7.845,7.845,0,1,1,4-9.578Z" transform="translate(-300.315 -230.898)" fill="#c5d3dd"/>
                    <path id="Trazado_896382" data-name="Trazado 896382" d="M322.929,83.2A11.462,11.462,0,0,1,307.461,66.44,24.827,24.827,0,0,1,322.929,83.2Z" transform="translate(-274.284 -64.966)" fill="#c5d3dd"/>
                    <path id="Trazado_896383" data-name="Trazado 896383" d="M264.724,78.88a24.774,24.774,0,0,1-24.774,24.774q-1.249,0-2.466-.121a24.777,24.777,0,0,0,0-49.308q1.217-.119,2.466-.121A24.775,24.775,0,0,1,264.724,78.88Z" transform="translate(-215.206 -54.105)" fill="#c5d3dd"/>
                  </g>
                </g>
              </g>
            </g>
          </g>
          <g id="Grupo_1108398" data-name="Grupo 1108398" transform="translate(38.866 25.109)">
            <g id="Grupo_1108396" data-name="Grupo 1108396">
              <circle id="Elipse_11663" data-name="Elipse 11663" cx="7.845" cy="7.845" r="7.845" fill="#1ca56f"/>
              <path id="Trazado_896384" data-name="Trazado 896384" d="M403,236.4a7.848,7.848,0,0,1-9.316,7.706,7.846,7.846,0,0,0,0-15.412A7.848,7.848,0,0,1,403,236.4Z" transform="translate(-387.314 -228.553)" fill="#158f5e"/>
            </g>
            <g id="Grupo_1108397" data-name="Grupo 1108397" transform="translate(2.844 2.844)">
              <circle id="Elipse_11664" data-name="Elipse 11664" cx="5.001" cy="5.001" r="5.001" transform="translate(0 0)" fill="#fde784"/>
              <path id="Trazado_896385" data-name="Trazado 896385" d="M394.277,252.7V262a5.023,5.023,0,0,1-3.681,0v-9.3a5.022,5.022,0,0,1,3.681,0Z" transform="translate(-387.435 -252.346)" fill="#fdf0b2"/>
            </g>
          </g>
        </g>
        <g id="Grupo_1108401" data-name="Grupo 1108401" transform="translate(0 9.505)">
          <g id="Grupo_1108400" data-name="Grupo 1108400">
            <path id="Trazado_896386" data-name="Trazado 896386" d="M44.676,101.613a1.25,1.25,0,0,0,1.184-1.644,18.816,18.816,0,0,0-35.734,0,1.25,1.25,0,0,0,1.184,1.644H44.676Z" transform="translate(-10.062 -87.052)" fill="#ffd496"/>
            <path id="Trazado_896387" data-name="Trazado 896387" d="M162.415,101.615h-3.907a1.251,1.251,0,0,0,1.184-1.645,18.83,18.83,0,0,0-15.914-12.817,19.092,19.092,0,0,1,1.954-.1A18.817,18.817,0,0,1,163.6,99.97,1.25,1.25,0,0,1,162.415,101.615Z" transform="translate(-127.801 -87.053)" fill="#fcc16d"/>
            <path id="Trazado_896388" data-name="Trazado 896388" d="M70.814,132.271a14.654,14.654,0,0,0-28.047,0Z" transform="translate(-38.859 -117.71)" fill="#fcb44d"/>
            <path id="Trazado_896389" data-name="Trazado 896389" d="M161.127,132.27h-3.537a14.665,14.665,0,0,0-12.254-10.3,14.664,14.664,0,0,1,15.792,10.3Z" transform="translate(-129.172 -117.709)" fill="#fca62f"/>
          </g>
        </g>
        <g id="Grupo_1108403" data-name="Grupo 1108403" transform="translate(0.234 23.063)">
          <g id="Grupo_1108402" data-name="Grupo 1108402">
            <path id="Trazado_896390" data-name="Trazado 896390" d="M46.634,215.079a1.25,1.25,0,0,0,1.184-1.644,18.816,18.816,0,0,0-35.734,0,1.25,1.25,0,0,0,1.184,1.644Z" transform="translate(-12.02 -200.518)" fill="#ffd496"/>
            <path id="Trazado_896391" data-name="Trazado 896391" d="M164.374,215.08h-3.907a1.251,1.251,0,0,0,1.184-1.645,18.83,18.83,0,0,0-15.914-12.817,19.088,19.088,0,0,1,1.954-.1,18.817,18.817,0,0,1,17.867,12.917A1.25,1.25,0,0,1,164.374,215.08Z" transform="translate(-129.76 -200.519)" fill="#fcc16d"/>
            <path id="Trazado_896392" data-name="Trazado 896392" d="M72.773,245.737a14.654,14.654,0,0,0-28.047,0Z" transform="translate(-40.818 -231.176)" fill="#fcb44d"/>
            <path id="Trazado_896393" data-name="Trazado 896393" d="M163.085,245.736h-3.537a14.665,14.665,0,0,0-12.254-10.3,14.664,14.664,0,0,1,15.792,10.3Z" transform="translate(-131.13 -231.175)" fill="#fca62f"/>
          </g>
        </g>
        <g id="Grupo_1108405" data-name="Grupo 1108405" transform="translate(2.188 36.139)">
          <g id="Grupo_1108404" data-name="Grupo 1108404">
            <path id="Trazado_896394" data-name="Trazado 896394" d="M62.986,324.51a1.25,1.25,0,0,0,1.184-1.644,18.816,18.816,0,0,0-35.734,0,1.25,1.25,0,0,0,1.184,1.644Z" transform="translate(-28.372 -309.949)" fill="#ffd496"/>
            <path id="Trazado_896395" data-name="Trazado 896395" d="M180.726,324.511h-3.907A1.25,1.25,0,0,0,178,322.867a18.83,18.83,0,0,0-15.914-12.817,19.084,19.084,0,0,1,1.954-.1,18.817,18.817,0,0,1,17.867,12.917A1.25,1.25,0,0,1,180.726,324.511Z" transform="translate(-146.112 -309.95)" fill="#fcc16d"/>
            <path id="Trazado_896396" data-name="Trazado 896396" d="M89.125,355.168a14.654,14.654,0,0,0-28.047,0Z" transform="translate(-57.17 -340.607)" fill="#fcb44d"/>
            <path id="Trazado_896397" data-name="Trazado 896397" d="M179.438,355.167H175.9a14.665,14.665,0,0,0-12.254-10.3,14.664,14.664,0,0,1,15.792,10.3Z" transform="translate(-147.482 -340.606)" fill="#fca62f"/>
          </g>
        </g>
        <g id="Grupo_1108408" data-name="Grupo 1108408" transform="translate(35.846)">
          <g id="Grupo_1108407" data-name="Grupo 1108407">
            <circle id="Elipse_11665" data-name="Elipse 11665" cx="11.463" cy="11.463" r="11.463" fill="#f5f7f8"/>
            <path id="Trazado_896398" data-name="Trazado 896398" d="M401.991,18.968a11.469,11.469,0,0,1-13.562,11.27,11.464,11.464,0,0,0,0-22.539,11.469,11.469,0,0,1,13.562,11.269Z" transform="translate(-379.065 -7.506)" fill="#d9e7eb"/>
            <g id="Grupo_1108406" data-name="Grupo 1108406" transform="translate(3.377 3.377)">
              <circle id="Elipse_11666" data-name="Elipse 11666" cx="8.085" cy="8.085" r="8.085" fill="#fb4a59"/>
              <path id="Trazado_896399" data-name="Trazado 896399" d="M398.54,43.852a8.085,8.085,0,0,1-10.193,7.807,8.086,8.086,0,0,0,0-15.613,8.091,8.091,0,0,1,10.193,7.807Z" transform="translate(-382.371 -35.768)" fill="#f82f40"/>
            </g>
          </g>
        </g>
      </g>
      <g id="Grupo_1108410" data-name="Grupo 1108410" transform="translate(2.572)">
        <path id="Trazado_896400" data-name="Trazado 896400" d="M362.538,244.847a5.9,5.9,0,1,0,5.9,5.9A5.9,5.9,0,0,0,362.538,244.847Zm-4.105,5.9a4.1,4.1,0,0,1,1.369-3.057V253.8A4.1,4.1,0,0,1,358.432,250.745Zm3.161,3.994V246.75a4.079,4.079,0,0,1,1.889,0v7.989a4.078,4.078,0,0,1-1.889,0Zm3.681-.938v-6.113a4.1,4.1,0,0,1,0,6.113Z" transform="translate(-314.333 -215.591)"/>
        <path id="Trazado_896401" data-name="Trazado 896401" d="M160.7,141.28a.9.9,0,0,0-.9.9v.013a.9.9,0,0,0,1.792,0v-.013A.9.9,0,0,0,160.7,141.28Z" transform="translate(-141.013 -124.399)"/>
        <path id="Trazado_896402" data-name="Trazado 896402" d="M182.052,157.25a.9.9,0,0,0-.9.9v.013a.9.9,0,0,0,1.792,0v-.013A.9.9,0,0,0,182.052,157.25Z" transform="translate(-159.818 -138.461)"/>
        <path id="Trazado_896403" data-name="Trazado 896403" d="M162.655,254.747a.9.9,0,0,0-.9.9v.013a.9.9,0,0,0,1.792,0v-.013a.9.9,0,0,0-.9-.9Z" transform="translate(-142.738 -224.308)"/>
        <path id="Trazado_896404" data-name="Trazado 896404" d="M184.01,270.716a.9.9,0,0,0-.9.9v.013a.9.9,0,0,0,1.792,0v-.013A.9.9,0,0,0,184.01,270.716Z" transform="translate(-161.542 -238.369)"/>
        <path id="Trazado_896405" data-name="Trazado 896405" d="M149.767,372.532a.9.9,0,0,0-.9.9v.013a.9.9,0,1,0,1.792,0v-.013A.9.9,0,0,0,149.767,372.532Z" transform="translate(-131.39 -328.019)"/>
        <path id="Trazado_896406" data-name="Trazado 896406" d="M126.03,390.59a.9.9,0,0,0-.9.9v.013a.9.9,0,1,0,1.792,0v-.013A.9.9,0,0,0,126.03,390.59Z" transform="translate(-110.489 -343.92)"/>
        <path id="Trazado_896407" data-name="Trazado 896407" d="M217.967,391.486a.9.9,0,0,0-1.792,0v.013a.9.9,0,0,0,1.792,0Z" transform="translate(-190.652 -343.92)"/>
        <path id="Trazado_896408" data-name="Trazado 896408" d="M63.135,12.359a12.352,12.352,0,0,0-20.32-9.445A30.025,30.025,0,0,0,20.162,4.239a.9.9,0,1,0,.776,1.616A28.244,28.244,0,0,1,41.385,4.334,12.411,12.411,0,0,0,39.907,6.48,25.739,25.739,0,0,0,19.258,9.621a19.675,19.675,0,0,0-5.949,1.612,28.222,28.222,0,0,1,4.037-3.315.9.9,0,0,0-1-1.484,29.9,29.9,0,0,0-8.032,8.031,19.677,19.677,0,0,0-5.63,8.572A2.155,2.155,0,0,0,3.7,25.605a30.139,30.139,0,0,0-.269,9.6q-.282.681-.517,1.39a2.158,2.158,0,0,0,.3,1.934,2.121,2.121,0,0,0,1.055.777A29.747,29.747,0,0,0,6.79,45.523a19.775,19.775,0,0,0-1.923,4.148,2.157,2.157,0,0,0,.3,1.934,2.12,2.12,0,0,0,1.736.887h5.123a29.942,29.942,0,0,0,48.7-32.814,12.292,12.292,0,0,0,2.407-7.319Zm-1.792,0A10.566,10.566,0,1,1,50.776,1.792,10.578,10.578,0,0,1,61.342,12.359ZM50.776,42.1a6.949,6.949,0,1,1,6.949-6.949A6.957,6.957,0,0,1,50.776,42.1ZM39.16,8.136a12.357,12.357,0,0,0,16.6,15.531,23.651,23.651,0,0,1,1.112,5.227A8.74,8.74,0,1,0,53.66,43.4,23.9,23.9,0,0,1,22.2,52.492h4.128a.9.9,0,0,0,0-1.792h-15.5a13.9,13.9,0,0,1,4.485-5.846,13.756,13.756,0,0,1,16.538,0A13.9,13.9,0,0,1,36.341,50.7H30.6a.9.9,0,0,0,0,1.792h9.667a2.12,2.12,0,0,0,1.736-.887,2.157,2.157,0,0,0,.3-1.934,19.665,19.665,0,0,0-7.817-10.255h3.828a2.12,2.12,0,0,0,1.735-.886,2.158,2.158,0,0,0,.3-1.935,19.664,19.664,0,0,0-8.583-10.736h6.313a2.12,2.12,0,0,0,1.735-.886,2.16,2.16,0,0,0,.3-1.936A19.666,19.666,0,0,0,23.055,9.575,23.972,23.972,0,0,1,39.16,8.136Zm-15.574,28a19.727,19.727,0,0,0-7.526,1.485H8.878a13.893,13.893,0,0,1,4.485-5.845,13.756,13.756,0,0,1,16.538,0,13.892,13.892,0,0,1,4.485,5.845H31.112a19.728,19.728,0,0,0-7.526-1.485ZM11.12,40.569q-.242-.569-.454-1.153h2.02Q11.874,39.954,11.12,40.569ZM4.949,37.624a.343.343,0,0,1-.283-.145.352.352,0,0,1-.05-.323q.241-.73.539-1.428a.88.88,0,0,0,.037-.086q.23-.532.492-1.045l.3.176a.9.9,0,1,0,.9-1.552l-.307-.177a17.849,17.849,0,0,1,2.86-3.412l.229.273a.9.9,0,0,0,1.373-1.152l-.229-.273a17.881,17.881,0,0,1,3.857-2.224l.121.333a.9.9,0,1,0,1.684-.613l-.121-.332a17.94,17.94,0,0,1,4.383-.767v.347a.9.9,0,0,0,1.792,0v-.347a17.945,17.945,0,0,1,4.383.767l-.121.331a.9.9,0,1,0,1.684.613l.121-.333a17.881,17.881,0,0,1,3.857,2.224l-.229.273A.9.9,0,1,0,33.6,29.907l.229-.273a17.85,17.85,0,0,1,2.86,3.412l-.307.177a.9.9,0,1,0,.9,1.552l.305-.176a18.029,18.029,0,0,1,1.068,2.558.352.352,0,0,1-.049.323.342.342,0,0,1-.283.145H36.3a15.693,15.693,0,0,0-5.324-7.277,15.548,15.548,0,0,0-18.7,0A15.694,15.694,0,0,0,6.96,37.625H4.949ZM21.641,23.063h-.017a19.754,19.754,0,0,0-6.22,1H8.643a13.9,13.9,0,0,1,4.486-5.846,13.756,13.756,0,0,1,16.538,0,13.9,13.9,0,0,1,4.486,5.846H27.861a19.758,19.758,0,0,0-6.22-1ZM11.5,25.859a19.673,19.673,0,0,0-1.923,1.312q.113-.66.263-1.312ZM9.2,16.075l.229.274A.9.9,0,0,0,10.807,15.2l-.23-.274A17.877,17.877,0,0,1,14.434,12.7l.121.333a.9.9,0,1,0,1.684-.613l-.121-.332a17.942,17.942,0,0,1,4.384-.767v.347a.9.9,0,1,0,1.792,0v-.347a17.942,17.942,0,0,1,4.384.767l-.121.332a.9.9,0,1,0,1.684.613l.121-.333a17.882,17.882,0,0,1,3.857,2.224l-.23.274a.9.9,0,1,0,1.373,1.152l.229-.273a17.85,17.85,0,0,1,2.86,3.412l-.307.177a.9.9,0,1,0,.9,1.552l.305-.176A18.029,18.029,0,0,1,38.414,23.6a.354.354,0,0,1-.05.325.342.342,0,0,1-.283.145H36.07a15.693,15.693,0,0,0-5.324-7.277,15.548,15.548,0,0,0-18.7,0,15.693,15.693,0,0,0-5.324,7.277H4.715a.342.342,0,0,1-.283-.145.353.353,0,0,1-.05-.324A18.031,18.031,0,0,1,5.45,21.04l.305.176a.9.9,0,0,0,.9-1.552l-.307-.177A17.854,17.854,0,0,1,9.2,16.075ZM4.961,31.24a28.338,28.338,0,0,1,.515-5.38H8a25.5,25.5,0,0,0-.466,3.126,19.636,19.636,0,0,0-2.556,3.235q-.017-.491-.017-.981Zm1.207,8.176h2.6a25.5,25.5,0,0,0,.951,2.414,19.638,19.638,0,0,0-1.778,2.02A27.951,27.951,0,0,1,6.168,39.416Zm.452,11.139a.351.351,0,0,1-.049-.323,18.034,18.034,0,0,1,1.068-2.558l.3.176a.9.9,0,1,0,.9-1.552l-.305-.176a.9.9,0,0,0,.106-.166,17.848,17.848,0,0,1,2.752-3.247l.229.273a.9.9,0,0,0,1.373-1.152l-.229-.273a17.873,17.873,0,0,1,3.782-2.192q.039-.014.076-.031l.121.332a.9.9,0,1,0,1.684-.613l-.121-.332a17.94,17.94,0,0,1,4.383-.767V38.3a.9.9,0,1,0,1.792,0v-.347a17.94,17.94,0,0,1,4.383.767l-.121.332a.9.9,0,1,0,1.684.613l.121-.331c.025.011.051.022.077.031a17.885,17.885,0,0,1,3.78,2.191l-.229.273a.9.9,0,1,0,1.373,1.152l.229-.273a17.853,17.853,0,0,1,2.86,3.412l-.307.177a.9.9,0,1,0,.9,1.552l.3-.176A18.034,18.034,0,0,1,40.6,50.232a.352.352,0,0,1-.049.323.342.342,0,0,1-.284.145H38.258a15.693,15.693,0,0,0-5.324-7.277,15.548,15.548,0,0,0-18.7,0A15.693,15.693,0,0,0,8.914,50.7H6.9a.342.342,0,0,1-.283-.145Zm46.388.586a28.145,28.145,0,0,1-38.354,1.351H18.7A25.679,25.679,0,0,0,56.552,41.706a8.72,8.72,0,0,0,2.22-10.079c0-.129,0-.258,0-.387a25.567,25.567,0,0,0-1.416-8.427A12.447,12.447,0,0,0,59.4,21.2a28.17,28.17,0,0,1-6.4,29.944Z" transform="translate(-2.572)"/>
        <path id="Trazado_896409" data-name="Trazado 896409" d="M339.811,46.228a9,9,0,0,0,8.666-6.623.9.9,0,1,0-1.73-.47,7.19,7.19,0,1,1-.006-3.8.9.9,0,0,0,1.728-.475,8.981,8.981,0,1,0-8.659,11.366Z" transform="translate(-291.607 -24.888)"/>
      </g>
    </g>
  </g>
</svg>
