<svg xmlns="http://www.w3.org/2000/svg" xmlns:xlink="http://www.w3.org/1999/xlink" width="108.914" height="108.914" viewBox="0 0 108.914 108.914">
  <defs>
    <filter id="Rectángulo_400898" x="0" y="0" width="108.914" height="108.914" filterUnits="userSpaceOnUse">
      <feOffset dy="3" input="SourceAlpha"/>
      <feGaussianBlur stdDeviation="3" result="blur"/>
      <feFlood flood-opacity="0.161"/>
      <feComposite operator="in" in2="blur"/>
      <feComposite in="SourceGraphic"/>
    </filter>
  </defs>
  <g id="Grupo_1108439" data-name="Grupo 1108439" transform="translate(2800.592 9209.702)">
    <g id="Grupo_1105799" data-name="Grupo 1105799" transform="translate(-2791.592 -9203.702)">
      <g transform="matrix(1, 0, 0, 1, -9, -6)" filter="url(#Rectángulo_400898)">
        <g id="Rectángulo_400898-2" data-name="Rectángulo 400898" transform="translate(9 6)" fill="#9ec9ff" stroke="#fff" stroke-width="3" opacity="0.859">
          <rect width="90.914" height="90.914" rx="45.457" stroke="none"/>
          <rect x="1.5" y="1.5" width="87.914" height="87.914" rx="43.957" fill="none"/>
        </g>
      </g>
      <rect id="Rectángulo_400907" data-name="Rectángulo 400907" width="90.914" height="90.914" rx="45.457" transform="translate(0 0)" fill="none"/>
    </g>
    <g id="_x37_7_x2C__Appetizer_x2C__meal_x2C__cracker_x2C__salted_x2C__food" transform="translate(-2791.954 -9203.258)">
      <g id="XMLID_971_" transform="translate(18.5 18.5)">
        <path id="XMLID_1048_" d="M98.5,448.5h37.986a4.748,4.748,0,0,1-4.748,4.748H103.248A4.748,4.748,0,0,1,98.5,448.5Z" transform="translate(-89.004 -397.457)" fill="#b5dbff"/>
        <path id="XMLID_1047_" d="M83.1,378.5v.039a8.27,8.27,0,0,1-8.269,8.27H36.77a8.271,8.271,0,0,1-8.27-8.27V378.5Z" transform="translate(-27.313 -335.766)" fill="#d5e8fe"/>
        <path id="XMLID_1046_" d="M373.248,218.5a4.748,4.748,0,1,1-4.748,4.748A4.748,4.748,0,0,1,373.248,218.5Z" transform="translate(-326.953 -194.759)" fill="#97de3d"/>
        <path id="XMLID_1045_" d="M70.37,338.5v.87a3.878,3.878,0,0,1-3.877,3.878H62.378A3.879,3.879,0,0,1,58.5,339.37v-.87Z" transform="translate(-53.752 -300.514)" fill="#59c36a"/>
        <path id="XMLID_1044_" d="M220.37,298.5v4.748H208.5V298.5h11.87Z" transform="translate(-185.946 -265.263)" fill="#fed843"/>
        <path id="XMLID_1043_" d="M220.37,158.5v7.122H208.5V158.5h11.87Z" transform="translate(-185.946 -141.881)" fill="#fed843"/>
        <path id="XMLID_1042_" d="M70.37,298.5v4.748H58.5V298.5H70.37Z" transform="translate(-53.752 -265.263)" fill="#97de3d"/>
        <g id="Grupo_1108413" data-name="Grupo 1108413" transform="translate(5.935 16.619)">
          <path id="XMLID_1039_" d="M220.37,338.5v.87a3.878,3.878,0,0,1-3.877,3.878h-4.115a3.879,3.879,0,0,1-3.878-3.878v-.87Z" transform="translate(-191.881 -317.133)" fill="#cc6e44"/>
          <path id="XMLID_1036_" d="M370.37,158.5v7.122H358.5V158.5h11.87Z" transform="translate(-324.076 -158.5)" fill="#cc6e44"/>
          <path id="XMLID_1033_" d="M73.248,218.5a4.748,4.748,0,1,1-4.748,4.748A4.748,4.748,0,0,1,73.248,218.5Z" transform="translate(-68.5 -211.378)" fill="#cc6e44"/>
        </g>
        <path id="XMLID_1032_" d="M370.37,338.5v.87a3.877,3.877,0,0,1-3.877,3.878h-4.116a3.879,3.879,0,0,1-3.878-3.878v-.87Z" transform="translate(-318.14 -300.514)" fill="#ff435b"/>
        <path id="XMLID_1031_" d="M370.37,298.5v4.748H358.5V298.5h11.87Z" transform="translate(-318.14 -265.263)" fill="#ff7b4a"/>
        <path id="XMLID_1030_" d="M223.248,218.5a4.748,4.748,0,1,1-4.748,4.748A4.748,4.748,0,0,1,223.248,218.5Z" transform="translate(-194.759 -194.759)" fill="#ff7b4a"/>
        <path id="XMLID_1029_" d="M70.37,158.5v7.122H58.5V158.5H70.37Z" transform="translate(-53.752 -141.881)" fill="#ff7b4a"/>
        <path id="XMLID_1028_" d="M376.068,32.168l-2.525,2.461.6,3.474-3.121-1.64L367.9,38.1l.6-3.474-2.525-2.461,3.489-.507,1.56-3.161,1.561,3.161Z" transform="translate(-324.724 -27.313)" fill="#fed843"/>
        <path id="XMLID_1027_" d="M226.068,32.168l-2.525,2.461.6,3.474-3.121-1.64L217.9,38.1l.6-3.474-2.525-2.461,3.489-.507,1.56-3.161,1.561,3.161Z" transform="translate(-192.529 -27.313)" fill="#fabe2c"/>
        <path id="XMLID_1026_" d="M76.068,32.168l-2.525,2.461.6,3.474-3.121-1.64L67.9,38.1l.6-3.474L65.97,32.168l3.489-.507,1.56-3.161,1.561,3.161Z" transform="translate(-60.335 -27.313)" fill="#fed843"/>
        <path id="XMLID_1025_" d="M469.687,108.5a1.187,1.187,0,1,1-1.187,1.187A1.187,1.187,0,0,1,469.687,108.5Z" transform="translate(-415.083 -97.817)"/>
        <path id="XMLID_1024_" d="M319.687,98.5a1.187,1.187,0,1,1-1.187,1.187A1.187,1.187,0,0,1,319.687,98.5Z" transform="translate(-282.889 -89.004)"/>
        <path id="XMLID_1023_" d="M179.687,118.5a1.187,1.187,0,1,1-1.187,1.187A1.187,1.187,0,0,1,179.687,118.5Z" transform="translate(-159.507 -106.63)"/>
        <path id="XMLID_1022_" d="M169.687,18.5a1.187,1.187,0,1,1-1.187,1.187A1.187,1.187,0,0,1,169.687,18.5Z" transform="translate(-150.694 -18.5)"/>
        <path id="XMLID_1021_" d="M19.687,98.5A1.187,1.187,0,1,1,18.5,99.687,1.187,1.187,0,0,1,19.687,98.5Z" transform="translate(-18.5 -89.004)"/>
        <path id="XMLID_1020_" d="M32.4,383h-.039a8.874,8.874,0,0,1-8.864-8.864v-.039a.593.593,0,0,1,.594-.594h7.439a.594.594,0,1,1,0,1.187H24.707a7.686,7.686,0,0,0,7.657,7.122H32.4a.594.594,0,1,1,0,1.187Z" transform="translate(-22.906 -331.36)"/>
        <path id="XMLID_1019_" d="M135.124,374.687h-13.69a.594.594,0,1,1,0-1.187h13.69a.594.594,0,0,1,0,1.187Z" transform="translate(-108.692 -331.36)"/>
        <path id="XMLID_1018_" d="M285.124,374.687h-13.69a.594.594,0,0,1,0-1.187h13.69a.594.594,0,1,1,0,1.187Z" transform="translate(-240.886 -331.36)"/>
        <path id="XMLID_1017_" d="M414.134,383h-.04a.594.594,0,1,1,0-1.187h.04a7.686,7.686,0,0,0,7.656-7.122h-6.825a.594.594,0,1,1,0-1.187H422.4a.593.593,0,0,1,.594.594v.039A8.873,8.873,0,0,1,414.134,383Z" transform="translate(-366.612 -331.36)"/>
        <path id="XMLID_1014_" d="M127.331,449.435H98.842a5.348,5.348,0,0,1-5.342-5.342.594.594,0,0,1,.594-.594h37.986a.593.593,0,0,1,.594.594,5.342,5.342,0,0,1-5.342,5.342Zm-32.6-4.748a4.161,4.161,0,0,0,4.112,3.561h28.489a4.156,4.156,0,0,0,4.113-3.561Z" transform="translate(-84.597 -393.05)"/>
        <path id="XMLID_1011_" d="M62.087,304.183H57.972a4.477,4.477,0,0,1-4.472-4.472v-5.618a.594.594,0,0,1,.594-.594h11.87a.594.594,0,0,1,.594.594v5.618A4.476,4.476,0,0,1,62.087,304.183Zm-7.4-9.5v5.025A3.288,3.288,0,0,0,57.972,303h4.115a3.288,3.288,0,0,0,3.283-3.285v-5.025Z" transform="translate(-49.345 -260.856)"/>
        <path id="XMLID_1008_" d="M68.842,224.183a5.342,5.342,0,1,1,5.342-5.342A5.348,5.348,0,0,1,68.842,224.183Zm0-9.5A4.155,4.155,0,1,0,73,218.842,4.159,4.159,0,0,0,68.842,214.687Z" transform="translate(-58.158 -190.353)"/>
        <path id="XMLID_1005_" d="M69.732,34.29a.592.592,0,0,1-.276-.068l-2.845-1.5-2.843,1.5a.594.594,0,0,1-.861-.626l.543-3.167-2.3-2.243a.593.593,0,0,1,.329-1.012l3.18-.462,1.422-2.881a.594.594,0,0,1,1.064,0l1.423,2.881,3.18.462a.593.593,0,0,1,.329,1.012l-2.3,2.243.543,3.167a.593.593,0,0,1-.585.694Zm-3.121-2.828a.593.593,0,0,1,.276.068l2.056,1.081-.393-2.289a.594.594,0,0,1,.171-.525l1.664-1.621-2.3-.334a.594.594,0,0,1-.447-.325l-1.029-2.083-1.028,2.083a.594.594,0,0,1-.447.325l-2.3.334L64.5,29.8a.594.594,0,0,1,.171.525l-.393,2.289,2.055-1.081A.592.592,0,0,1,66.611,31.463Z" transform="translate(-55.928 -22.906)"/>
        <path id="XMLID_1004_" d="M104.094,99.236a.594.594,0,0,1-.594-.594V91.174a.594.594,0,1,1,1.187,0v7.469A.593.593,0,0,1,104.094,99.236Z" transform="translate(-93.41 -82.024)"/>
        <path id="XMLID_1003_" d="M65.964,334.687H54.094a.594.594,0,0,1,0-1.187h11.87a.594.594,0,0,1,0,1.187Z" transform="translate(-49.345 -296.108)"/>
        <path id="XMLID_1000_" d="M65.964,161.809H54.094a.594.594,0,0,1-.594-.594v-7.122a.594.594,0,0,1,.594-.594h11.87a.594.594,0,0,1,.594.594v7.122A.593.593,0,0,1,65.964,161.809Zm-11.277-1.187H65.37v-5.935H54.687Z" transform="translate(-49.345 -137.475)"/>
        <path id="XMLID_997_" d="M212.087,304.183h-4.115a4.477,4.477,0,0,1-4.472-4.472v-5.618a.594.594,0,0,1,.594-.594h11.87a.593.593,0,0,1,.594.594v5.618A4.476,4.476,0,0,1,212.087,304.183Zm-7.4-9.5v5.025A3.288,3.288,0,0,0,207.972,303h4.115a3.288,3.288,0,0,0,3.283-3.285v-5.025Z" transform="translate(-181.54 -260.856)"/>
        <path id="XMLID_994_" d="M218.842,224.183a5.342,5.342,0,1,1,5.342-5.342A5.348,5.348,0,0,1,218.842,224.183Zm0-9.5A4.155,4.155,0,1,0,223,218.842,4.159,4.159,0,0,0,218.842,214.687Z" transform="translate(-190.353 -190.353)"/>
        <path id="XMLID_991_" d="M219.732,34.289a.592.592,0,0,1-.276-.068l-2.845-1.5-2.843,1.5a.594.594,0,0,1-.861-.626l.543-3.167-2.3-2.243a.593.593,0,0,1,.329-1.012l3.18-.462,1.422-2.881a.594.594,0,0,1,1.064,0l1.423,2.882,3.18.462a.594.594,0,0,1,.329,1.012l-2.3,2.243.543,3.167a.593.593,0,0,1-.585.694Zm-3.121-2.828a.594.594,0,0,1,.276.068l2.056,1.081-.393-2.289a.594.594,0,0,1,.171-.525l1.664-1.621-2.3-.334a.594.594,0,0,1-.447-.325l-1.029-2.083-1.028,2.083a.594.594,0,0,1-.447.325l-2.3.334L214.5,29.8a.594.594,0,0,1,.171.525l-.393,2.289,2.055-1.081a.594.594,0,0,1,.276-.068Z" transform="translate(-188.122 -22.906)"/>
        <path id="XMLID_990_" d="M254.094,99.236a.594.594,0,0,1-.594-.594V91.174a.594.594,0,1,1,1.187,0v7.469A.593.593,0,0,1,254.094,99.236Z" transform="translate(-225.604 -82.024)"/>
        <path id="XMLID_989_" d="M215.964,334.687h-11.87a.594.594,0,0,1,0-1.187h11.87a.594.594,0,0,1,0,1.187Z" transform="translate(-181.54 -296.108)"/>
        <path id="XMLID_986_" d="M215.964,161.809h-11.87a.594.594,0,0,1-.594-.594v-7.122a.594.594,0,0,1,.594-.594h11.87a.593.593,0,0,1,.594.594v7.122A.593.593,0,0,1,215.964,161.809Zm-11.277-1.187H215.37v-5.935H204.687Z" transform="translate(-181.54 -137.475)"/>
        <path id="XMLID_983_" d="M362.087,304.183h-4.115a4.477,4.477,0,0,1-4.472-4.472v-5.618a.593.593,0,0,1,.594-.594h11.87a.593.593,0,0,1,.594.594v5.618A4.476,4.476,0,0,1,362.087,304.183Zm-7.4-9.5v5.025A3.288,3.288,0,0,0,357.972,303h4.115a3.288,3.288,0,0,0,3.283-3.285v-5.025Z" transform="translate(-313.734 -260.856)"/>
        <path id="XMLID_980_" d="M368.842,224.183a5.342,5.342,0,1,1,5.342-5.342A5.348,5.348,0,0,1,368.842,224.183Zm0-9.5A4.155,4.155,0,1,0,373,218.842,4.159,4.159,0,0,0,368.842,214.687Z" transform="translate(-322.547 -190.353)"/>
        <path id="XMLID_977_" d="M369.733,34.289a.592.592,0,0,1-.276-.068l-2.845-1.5-2.843,1.5a.594.594,0,0,1-.861-.626l.543-3.167-2.3-2.243a.594.594,0,0,1,.329-1.012l3.18-.462,1.422-2.881a.594.594,0,0,1,1.064,0l1.423,2.882,3.18.462a.594.594,0,0,1,.329,1.012l-2.3,2.243.543,3.167a.593.593,0,0,1-.585.694Zm-3.121-2.828a.592.592,0,0,1,.276.068l2.056,1.081-.393-2.289a.594.594,0,0,1,.171-.525l1.664-1.621-2.3-.334a.594.594,0,0,1-.447-.325l-1.029-2.083-1.028,2.083a.593.593,0,0,1-.447.325l-2.3.334L364.5,29.8a.594.594,0,0,1,.171.525l-.393,2.289,2.055-1.081a.593.593,0,0,1,.276-.068Z" transform="translate(-320.317 -22.906)"/>
        <path id="XMLID_976_" d="M404.094,99.236a.593.593,0,0,1-.594-.594V91.174a.594.594,0,1,1,1.187,0v7.469A.593.593,0,0,1,404.094,99.236Z" transform="translate(-357.799 -82.024)"/>
        <path id="XMLID_975_" d="M365.964,334.687h-11.87a.594.594,0,0,1,0-1.187h11.87a.594.594,0,0,1,0,1.187Z" transform="translate(-313.734 -296.108)"/>
        <path id="XMLID_972_" d="M365.964,161.809h-11.87a.593.593,0,0,1-.594-.594v-7.122a.593.593,0,0,1,.594-.594h11.87a.593.593,0,0,1,.594.594v7.122A.593.593,0,0,1,365.964,161.809Zm-11.277-1.187H365.37v-5.935H354.687Z" transform="translate(-313.734 -137.475)"/>
      </g>
    </g>
  </g>
</svg>
