<svg xmlns="http://www.w3.org/2000/svg" xmlns:xlink="http://www.w3.org/1999/xlink" width="108.914" height="108.914" viewBox="0 0 108.914 108.914">
  <defs>
    <filter id="Trazado_896036" x="0" y="0" width="108.914" height="108.914" filterUnits="userSpaceOnUse">
      <feOffset dy="3" input="SourceAlpha"/>
      <feGaussianBlur stdDeviation="3" result="blur"/>
      <feFlood flood-opacity="0.161"/>
      <feComposite operator="in" in2="blur"/>
      <feComposite in="SourceGraphic"/>
    </filter>
  </defs>
  <g id="Grupo_1108442" data-name="Grupo 1108442" transform="translate(1856.999 9209.702)">
    <g id="Grupo_1105800" data-name="Grupo 1105800" transform="translate(-1848 -9203.702)">
      <g transform="matrix(1, 0, 0, 1, -9, -6)" filter="url(#Trazado_896036)">
        <g id="Trazado_896036-2" data-name="Trazado 896036" transform="translate(9 6)" fill="#9ec9ff" opacity="0.859">
          <path d="M 45.45676803588867 89.41407012939453 C 39.52198028564453 89.41407012939453 33.76551818847656 88.25206756591797 28.34726715087891 85.96034240722656 C 23.11311721801758 83.74648284912109 18.41204261779785 80.57682800292969 14.37464332580566 76.5394287109375 C 10.33724308013916 72.50202941894531 7.167593002319336 67.80095672607422 4.953730583190918 62.56679534912109 C 2.662005424499512 57.14855575561523 1.500005483627319 51.39208221435547 1.500005483627319 45.45729446411133 C 1.500005483627319 39.52198028564453 2.662005424499512 33.76551818847656 4.953730583190918 28.34726905822754 C 7.167593002319336 23.11310577392578 10.33724308013916 18.41203117370605 14.37464332580566 14.37464332580566 C 18.41204261779785 10.33724403381348 23.11311721801758 7.167593955993652 28.34726715087891 4.953731060028076 C 33.76551818847656 2.662006139755249 39.52198028564453 1.500006198883057 45.45676803588867 1.500006198883057 C 51.39155578613281 1.500006198883057 57.14802932739258 2.662006139755249 62.56626892089844 4.953731060028076 C 67.80043029785156 7.167593955993652 72.50150299072266 10.33724403381348 76.53890228271484 14.37464332580566 C 80.57630920410156 18.41203117370605 83.74595642089844 23.11310577392578 85.95981597900391 28.34726905822754 C 88.25154113769531 33.76551818847656 89.41354370117188 39.52198028564453 89.41354370117188 45.45676803588867 C 89.41354370117188 51.39208221435547 88.25154113769531 57.14855575561523 85.95981597900391 62.56679534912109 C 83.74595642089844 67.80095672607422 80.57630920410156 72.50202941894531 76.53890228271484 76.5394287109375 C 72.50150299072266 80.57682800292969 67.80043029785156 83.74648284912109 62.56626892089844 85.96034240722656 C 57.14802932739258 88.25206756591797 51.39155578613281 89.41407012939453 45.45676803588867 89.41407012939453 Z" stroke="none"/>
          <path d="M 45.45676803588867 3 C 39.72381210327148 3 34.1639404296875 4.12213134765625 28.93159484863281 6.335227966308594 C 23.87622833251953 8.473472595214844 19.33542633056641 11.53517150878906 15.43529510498047 15.435302734375 C 11.53517150878906 19.33543395996094 8.473464965820312 23.87622833251953 6.335227966308594 28.93160247802734 C 4.122123718261719 34.16394424438477 3 39.72381591796875 3 45.4572868347168 C 3 51.19024658203125 4.122123718261719 56.75011825561523 6.335227966308594 61.98246002197266 C 8.473464965820312 67.03782653808594 11.53517150878906 71.57862854003906 15.43529510498047 75.478759765625 C 19.33542633056641 79.37889099121094 23.87622833251953 82.44058990478516 28.93159484863281 84.57883453369141 C 34.1639404296875 86.79193115234375 39.72381210327148 87.9140625 45.45676803588867 87.9140625 C 51.18972396850586 87.9140625 56.74959564208984 86.79193115234375 61.98194122314453 84.57883453369141 C 67.03730773925781 82.44058990478516 71.57810974121094 79.37889099121094 75.47824096679688 75.478759765625 C 79.37837219238281 71.57862854003906 82.44007110595703 67.03782653808594 84.57830810546875 61.98246002197266 C 86.79141235351562 56.75011825561523 87.91353607177734 51.19024658203125 87.91353607177734 45.4567756652832 C 87.91353607177734 39.72381591796875 86.79141235351562 34.16394424438477 84.57830810546875 28.93160247802734 C 82.44007110595703 23.87622833251953 79.37837219238281 19.33543395996094 75.47824096679688 15.435302734375 C 71.57810974121094 11.53517150878906 67.03730773925781 8.473472595214844 61.98194122314453 6.335227966308594 C 56.74959564208984 4.12213134765625 51.18972396850586 3 45.45676803588867 3 M 45.45676803588867 0 C 70.56185150146484 0 90.91353607177734 20.35169219970703 90.91353607177734 45.4567756652832 L 90.91353607177734 45.4572868347168 C 90.91353607177734 70.5623779296875 70.56185150146484 90.9140625 45.45676803588867 90.9140625 C 20.3516845703125 90.9140625 0 70.5623779296875 0 45.4572868347168 L 0 45.4567756652832 C 0 20.35169219970703 20.3516845703125 0 45.45676803588867 0 Z" stroke="none" fill="#fff"/>
        </g>
      </g>
      <g id="Rectángulo_400907" data-name="Rectángulo 400907" transform="translate(0 0)" fill="none" stroke="#fff" stroke-width="3">
        <rect width="90.914" height="90.914" rx="45.457" stroke="none"/>
        <rect x="1.5" y="1.5" width="87.914" height="87.914" rx="43.957" fill="none"/>
      </g>
    </g>
    <g id="Grupo_1108417" data-name="Grupo 1108417" transform="translate(-1829.911 -9185.429)">
      <g id="Grupo_1108416" data-name="Grupo 1108416" transform="translate(17.403 19.052)">
        <path id="Trazado_896488" data-name="Trazado 896488" d="M152.191,280.383H154v1.812h-1.812Zm0,0" transform="translate(-152.191 -267.701)" fill="#eaeaea"/>
        <path id="Trazado_896489" data-name="Trazado 896489" d="M152.191,248.383H154v1.812h-1.812Zm0,0" transform="translate(-152.191 -239.324)" fill="#eaeaea"/>
        <path id="Trazado_896490" data-name="Trazado 896490" d="M152.191,216.383H154v1.812h-1.812Zm0,0" transform="translate(-152.191 -210.948)" fill="#eaeaea"/>
        <path id="Trazado_896491" data-name="Trazado 896491" d="M152.191,168.383H154v3.624h-1.812Zm0,0" transform="translate(-152.191 -168.383)" fill="#eaeaea"/>
      </g>
      <path id="Trazado_896492" data-name="Trazado 896492" d="M404.72,232.383h-4.529v3.624h3.624a.906.906,0,0,1,.906.906v4.529a.906.906,0,0,1-.906.906h-3.624v3.624h4.529a3.624,3.624,0,0,0,3.624-3.624v-6.341A3.624,3.624,0,0,0,404.72,232.383Zm0,0" transform="translate(-354.706 -206.084)" fill="#dededc"/>
      <path id="Trazado_896493" data-name="Trazado 896493" d="M216.5,239.936v.906h-9.059v-.906a7.247,7.247,0,0,1-7.247-7.247V216.383h23.553v16.306A7.247,7.247,0,0,1,216.5,239.936Zm0,0" transform="translate(-177.353 -191.896)" fill="#ebebeb"/>
      <path id="Trazado_896494" data-name="Trazado 896494" d="M8.191,424.383H60.733V427.1a2.718,2.718,0,0,1-2.718,2.718H10.909A2.718,2.718,0,0,1,8.191,427.1Zm0,0" transform="translate(-7.094 -376.343)" fill="#dededc"/>
      <path id="Trazado_896495" data-name="Trazado 896495" d="M132.12,18.348a9.965,9.965,0,1,1-9.965-9.965A9.965,9.965,0,0,1,132.12,18.348Zm0,0" transform="translate(-99.318 -7.449)" fill="#b8eaee"/>
      <path id="Trazado_896496" data-name="Trazado 896496" d="M198.532,40.536H193.1a.906.906,0,0,1-.906-.906V33.289a.906.906,0,0,1,1.812,0v5.435h4.529a.906.906,0,1,1,0,1.812Zm0,0" transform="translate(-170.259 -28.731)" fill="#8aced8"/>
      <path id="Trazado_896497" data-name="Trazado 896497" d="M143.438,332.159h-7.247v-9.965A1.812,1.812,0,0,1,138,320.383h3.624a1.812,1.812,0,0,1,1.812,1.812Zm0,0" transform="translate(-120.6 -284.119)" fill="#fbb540"/>
      <path id="Trazado_896498" data-name="Trazado 896498" d="M93.626,346.348H88.191v-8.153A1.812,1.812,0,0,1,90,336.383h3.624Zm0,0" transform="translate(-78.035 -298.307)" fill="#ea9d2d"/>
      <path id="Trazado_896499" data-name="Trazado 896499" d="M31.438,360.536H24.191v-1.359A2.716,2.716,0,0,1,25.279,357l6.16-4.62Zm0,0" transform="translate(-21.283 -312.496)" fill="#fbb540"/>
      <path id="Trazado_896500" data-name="Trazado 896500" d="M200.191,346.348h5.435v-8.153a1.812,1.812,0,0,0-1.812-1.812h-3.624Zm0,0" transform="translate(-177.353 -298.307)" fill="#ea9d2d"/>
      <path id="Trazado_896501" data-name="Trazado 896501" d="M248.191,360.536h7.247v-1.359A2.717,2.717,0,0,0,254.351,357l-6.16-4.62Zm0,0" transform="translate(-219.918 -312.496)" fill="#fbb540"/>
      <path id="Trazado_896502" data-name="Trazado 896502" d="M336.191,216.383H338v4.529h-1.812Zm0,0" transform="translate(-297.953 -191.896)" fill="#d9d9d9"/>
      <path id="Trazado_896503" data-name="Trazado 896503" d="M319.438,258.348h-7.247v-8.153l3.624-1.812,3.624,1.812Zm0,0" transform="translate(-276.671 -220.272)" fill="#ffda75"/>
      <path id="Trazado_896504" data-name="Trazado 896504" d="M354,128.536h-1.812a3.67,3.67,0,0,1,1.134-2.641,1.86,1.86,0,0,0,0-2.872,3.67,3.67,0,0,1-1.134-2.641H354a1.9,1.9,0,0,0,.678,1.436,3.641,3.641,0,0,1,0,5.281A1.9,1.9,0,0,0,354,128.536Zm0,0" transform="translate(-312.141 -106.766)" fill="#ffefa9"/>
      <path id="Trazado_896505" data-name="Trazado 896505" d="M314,128.536h-1.812a3.67,3.67,0,0,1,1.134-2.641,1.86,1.86,0,0,0,0-2.872,3.67,3.67,0,0,1-1.134-2.641H314a1.9,1.9,0,0,0,.678,1.436,3.641,3.641,0,0,1,0,5.281A1.9,1.9,0,0,0,314,128.536Zm0,0" transform="translate(-276.671 -106.766)" fill="#ffefa9"/>
      <path id="Trazado_896506" data-name="Trazado 896506" d="M394,128.536h-1.812a3.67,3.67,0,0,1,1.134-2.641,1.86,1.86,0,0,0,0-2.872,3.67,3.67,0,0,1-1.134-2.641H394a1.9,1.9,0,0,0,.678,1.436,3.641,3.641,0,0,1,0,5.281A1.9,1.9,0,0,0,394,128.536Zm0,0" transform="translate(-347.612 -106.766)" fill="#ffefa9"/>
      <path id="Trazado_896507" data-name="Trazado 896507" d="M408.191,232.383H410v3.624h-1.812Zm0,0" transform="translate(-361.8 -206.084)" fill="#d6d6d4"/>
      <path id="Trazado_896508" data-name="Trazado 896508" d="M408.191,320.383H410v3.624h-1.812Zm0,0" transform="translate(-361.8 -284.119)" fill="#d6d6d4"/>
      <path id="Trazado_896509" data-name="Trazado 896509" d="M318.532,260.383v7.7h-6.341v.906h7.247v-8.153Zm0,0" transform="translate(-276.671 -230.913)" fill="#f7d371"/>
      <path id="Trazado_896510" data-name="Trazado 896510" d="M109.612,20.3v2.377h1.812v-1.54a10.888,10.888,0,1,0-1.812-.837ZM115.048,1.84a9.059,9.059,0,1,1-9.059,9.059A9.059,9.059,0,0,1,115.048,1.84Zm0,0" transform="translate(-92.209)"/>
      <path id="Trazado_896511" data-name="Trazado 896511" d="M193.1,40.536h5.435a.906.906,0,1,0,0-1.812H194V33.289a.906.906,0,1,0-1.812,0V39.63A.906.906,0,0,0,193.1,40.536Zm0,0" transform="translate(-170.259 -28.731)"/>
      <path id="Trazado_896512" data-name="Trazado 896512" d="M50.015,210.195H47.3v-.906a.906.906,0,0,0-.906-.906H22.838a.906.906,0,0,0-.906.906v11.037a2.685,2.685,0,0,0-.906-.167H17.4a2.718,2.718,0,0,0-2.551,1.812H11.968A2.718,2.718,0,0,0,9.3,224.2l-5.848,4.385a3.641,3.641,0,0,0-1.45,2.9v.453H1.1a.906.906,0,0,0-.906.906v2.718a3.624,3.624,0,0,0,3.624,3.624H50.921a3.624,3.624,0,0,0,3.624-3.624v-2.718a.906.906,0,0,0-.906-.906H44.257a8.137,8.137,0,0,0,3.04-6.341h2.718a4.535,4.535,0,0,0,4.529-4.529v-6.341a4.535,4.535,0,0,0-4.529-4.529ZM47.3,215.63h1.812v4.529H47.3Zm-8.153-1.7,2.718,1.359v6.687H36.426v-6.687Zm-4.529,18.011H30.085a6.4,6.4,0,0,1-.906-.065V226.5l4.711,3.533a1.822,1.822,0,0,1,.725,1.45Zm-7.247,0H23.744v-8.153h2.718a.906.906,0,0,1,.906.906ZM17.4,221.971h3.624a.906.906,0,0,1,.906.906v9.059H16.5v-9.059A.906.906,0,0,1,17.4,221.971Zm-5.435,1.812h2.718v8.153H11.062v-7.247A.906.906,0,0,1,11.968,223.783Zm-8.153,7.7a1.822,1.822,0,0,1,.725-1.45L9.25,226.5v5.435H3.815Zm48.918,2.265v1.812a1.812,1.812,0,0,1-1.812,1.812H3.815A1.812,1.812,0,0,1,2,235.56v-1.812Zm-7.247-8.153a6.348,6.348,0,0,1-6.341,6.341H36.426v-.453a3.641,3.641,0,0,0-1.45-2.9L29.129,224.2a2.718,2.718,0,0,0-2.668-2.228H23.744V210.195H38.238v2.158l-3.122,1.557a.906.906,0,0,0-.5.815v8.153a.906.906,0,0,0,.906.906h7.247a.906.906,0,0,0,.906-.906v-8.153a.906.906,0,0,0-.5-.815l-3.122-1.557v-2.158h5.435Zm7.247-4.529a2.718,2.718,0,0,1-2.718,2.718H47.3v-1.812h1.812a1.812,1.812,0,0,0,1.812-1.812V215.63a1.812,1.812,0,0,0-1.812-1.812H47.3v-1.812h2.718a2.718,2.718,0,0,1,2.718,2.718Zm0,0" transform="translate(0 -184.802)"/>
      <path id="Trazado_896513" data-name="Trazado 896513" d="M352.191,128.536H354a1.9,1.9,0,0,1,.678-1.436,3.641,3.641,0,0,0,0-5.281,1.9,1.9,0,0,1-.678-1.436h-1.812a3.67,3.67,0,0,0,1.134,2.641,1.86,1.86,0,0,1,0,2.872A3.67,3.67,0,0,0,352.191,128.536Zm0,0" transform="translate(-312.141 -106.766)"/>
      <path id="Trazado_896514" data-name="Trazado 896514" d="M312.191,128.536H314a1.9,1.9,0,0,1,.678-1.436,3.641,3.641,0,0,0,0-5.281,1.9,1.9,0,0,1-.678-1.436h-1.812a3.67,3.67,0,0,0,1.134,2.641,1.86,1.86,0,0,1,0,2.872A3.67,3.67,0,0,0,312.191,128.536Zm0,0" transform="translate(-276.671 -106.766)"/>
      <path id="Trazado_896515" data-name="Trazado 896515" d="M392.191,128.536H394a1.9,1.9,0,0,1,.678-1.436,3.641,3.641,0,0,0,0-5.281,1.9,1.9,0,0,1-.678-1.436h-1.812a3.67,3.67,0,0,0,1.134,2.641,1.86,1.86,0,0,1,0,2.872A3.67,3.67,0,0,0,392.191,128.536Zm0,0" transform="translate(-347.612 -106.766)"/>
      <path id="Trazado_896516" data-name="Trazado 896516" d="M152.191,280.383H154v1.812h-1.812Zm0,0" transform="translate(-134.788 -248.649)"/>
      <path id="Trazado_896517" data-name="Trazado 896517" d="M152.191,248.383H154v1.812h-1.812Zm0,0" transform="translate(-134.788 -220.272)"/>
      <path id="Trazado_896518" data-name="Trazado 896518" d="M152.191,216.383H154v1.812h-1.812Zm0,0" transform="translate(-134.788 -191.896)"/>
    </g>
  </g>
</svg>
