<svg xmlns="http://www.w3.org/2000/svg" xmlns:xlink="http://www.w3.org/1999/xlink" width="108.914" height="108.914" viewBox="0 0 108.914 108.914">
  <defs>
    <filter id="Rectángulo_400898" x="0" y="0" width="108.914" height="108.914" filterUnits="userSpaceOnUse">
      <feOffset dy="3" input="SourceAlpha"/>
      <feGaussianBlur stdDeviation="3" result="blur"/>
      <feFlood flood-opacity="0.161"/>
      <feComposite operator="in" in2="blur"/>
      <feComposite in="SourceGraphic"/>
    </filter>
  </defs>
  <g id="Grupo_1108443" data-name="Grupo 1108443" transform="translate(1538.092 9209.702)">
    <g id="Grupo_1105799" data-name="Grupo 1105799" transform="translate(-1529.093 -9203.702)">
      <g transform="matrix(1, 0, 0, 1, -9, -6)" filter="url(#Rectángulo_400898)">
        <g id="Rectángulo_400898-2" data-name="Rectángulo 400898" transform="translate(9 6)" fill="#9ec9ff" stroke="#fff" stroke-width="3" opacity="0.859">
          <rect width="90.914" height="90.914" rx="45.457" stroke="none"/>
          <rect x="1.5" y="1.5" width="87.914" height="87.914" rx="43.957" fill="none"/>
        </g>
      </g>
      <rect id="Rectángulo_400907" data-name="Rectángulo 400907" width="90.914" height="90.914" rx="45.457" transform="translate(0 0)" fill="none"/>
    </g>
    <g id="Grupo_1108418" data-name="Grupo 1108418" transform="translate(-1518.057 -9192.667)">
      <circle id="Elipse_11668" data-name="Elipse 11668" cx="33.412" cy="33.412" r="33.412" transform="translate(1.008 1.008)" fill="#f5f5f5"/>
      <path id="Trazado_896519" data-name="Trazado 896519" d="M243.017,7.5c-.677,0-1.349.023-2.017.062a33.411,33.411,0,0,1,0,66.7c.667.04,1.339.062,2.017.062a33.412,33.412,0,1,0,0-66.825Z" transform="translate(-208.596 -6.492)" fill="#e6e6e6"/>
      <circle id="Elipse_11669" data-name="Elipse 11669" cx="22.761" cy="22.761" r="22.761" transform="translate(11.66 11.66)" fill="#e6e6e6"/>
      <path id="Trazado_896520" data-name="Trazado 896520" d="M243.017,85c-.68,0-1.352.031-2.017.089a22.992,22.992,0,0,1,0,45.806c.665.058,1.337.089,2.017.089a22.992,22.992,0,0,0,0-45.984Z" transform="translate(-208.596 -73.571)" fill="#d4d4d4"/>
      <path id="Trazado_896521" data-name="Trazado 896521" d="M78.264,259.247a6.723,6.723,0,0,1-9.508,0l-19.4-19.4a6.723,6.723,0,0,1,9.508-9.508l19.4,19.4A6.723,6.723,0,0,1,78.264,259.247Z" transform="translate(-41.019 -197.669)" fill="#e36334"/>
      <path id="Trazado_896522" data-name="Trazado 896522" d="M54.259,230.345a6.719,6.719,0,0,0-1.208,1.644,6.725,6.725,0,0,1,7.863,1.208l19.4,19.4a6.726,6.726,0,0,1,1.208,7.863,6.727,6.727,0,0,0,1.644-10.716l-19.4-19.4A6.723,6.723,0,0,0,54.259,230.345Z" transform="translate(-45.918 -197.669)" fill="#d45728"/>
      <path id="Trazado_896523" data-name="Trazado 896523" d="M98.536,134.583l-2.282,2.282a.538.538,0,0,1-.761,0L84.655,126.026a.538.538,0,0,1,0-.761l2.282-2.282a.538.538,0,0,1,.761,0l10.839,10.839a.538.538,0,0,1,0,.761Z" transform="translate(-73.136 -106.312)" fill="#ffb300"/>
      <path id="Trazado_896524" data-name="Trazado 896524" d="M150.249,95.773l-2.282,2.282a.538.538,0,0,1-.761,0L136.368,87.216a.538.538,0,0,1,0-.761l2.282-2.282a.538.538,0,0,1,.761,0l10.839,10.839A.538.538,0,0,1,150.249,95.773Z" transform="translate(-117.896 -72.72)" fill="#ffb300"/>
      <path id="Trazado_896525" data-name="Trazado 896525" d="M162.088,62.358l-2.282,2.282a.538.538,0,0,1-.761,0L148.207,53.8a.538.538,0,0,1,0-.761l2.282-2.282a.538.538,0,0,1,.761,0L162.088,61.6a.538.538,0,0,1,0,.761Z" transform="translate(-128.143 -43.798)" fill="#ffd54f"/>
      <path id="Trazado_896526" data-name="Trazado 896526" d="M198.6,53.617,196.321,55.9a.538.538,0,0,1-.761,0L184.722,45.06a.538.538,0,0,1,0-.761L187,42.018a.538.538,0,0,1,.761,0L198.6,52.857A.538.538,0,0,1,198.6,53.617Z" transform="translate(-159.749 -36.232)" fill="#ffb300"/>
      <path id="Trazado_896527" data-name="Trazado 896527" d="M111.558,102.337l-2.282,2.282a.538.538,0,0,1-.761,0L97.677,93.78a.538.538,0,0,1,0-.761l2.282-2.282a.538.538,0,0,1,.761,0l10.839,10.839A.538.538,0,0,1,111.558,102.337Z" transform="translate(-84.407 -78.401)" fill="#ffd54f"/>
      <path id="Trazado_896528" data-name="Trazado 896528" d="M365.749,225.327l2.282-2.282a.538.538,0,0,1,.761,0l10.839,10.839a.538.538,0,0,1,0,.761l-2.282,2.282a.538.538,0,0,1-.761,0l-10.839-10.839A.538.538,0,0,1,365.749,225.327Z" transform="translate(-316.435 -192.919)" fill="#ffb300"/>
      <path id="Trazado_896529" data-name="Trazado 896529" d="M314.037,264.138l2.282-2.282a.538.538,0,0,1,.761,0l10.839,10.839a.538.538,0,0,1,0,.761l-2.282,2.282a.538.538,0,0,1-.761,0L314.037,264.9a.538.538,0,0,1,0-.761Z" transform="translate(-271.676 -226.511)" fill="#ffb300"/>
      <path id="Trazado_896530" data-name="Trazado 896530" d="M302.2,297.553l2.282-2.282a.538.538,0,0,1,.761,0l10.839,10.839a.538.538,0,0,1,0,.761l-2.282,2.282a.538.538,0,0,1-.761,0L302.2,298.313A.538.538,0,0,1,302.2,297.553Z" transform="translate(-261.428 -255.434)" fill="#ffd54f"/>
      <path id="Trazado_896531" data-name="Trazado 896531" d="M265.683,306.294l2.282-2.282a.538.538,0,0,1,.761,0l10.839,10.839a.538.538,0,0,1,0,.761l-2.282,2.282a.538.538,0,0,1-.761,0l-10.839-10.839a.538.538,0,0,1,0-.761Z" transform="translate(-229.824 -262.999)" fill="#ffb300"/>
      <path id="Trazado_896532" data-name="Trazado 896532" d="M352.727,257.573l2.282-2.282a.538.538,0,0,1,.761,0l10.839,10.839a.538.538,0,0,1,0,.761l-2.282,2.282a.538.538,0,0,1-.761,0l-10.839-10.839a.538.538,0,0,1,0-.761Z" transform="translate(-305.164 -220.829)" fill="#ffd54f"/>
      <circle id="Elipse_11670" data-name="Elipse 11670" cx="15.932" cy="15.932" r="15.932" transform="translate(28.731 9.384)" fill="#fde2c3"/>
      <path id="Trazado_896533" data-name="Trazado 896533" d="M321.017,72a16.023,16.023,0,0,0-2.017.127,15.868,15.868,0,0,1,0,31.478A15.867,15.867,0,1,0,321.017,72Z" transform="translate(-276.108 -62.319)" fill="#edc19d"/>
      <circle id="Elipse_11671" data-name="Elipse 11671" cx="6.828" cy="6.828" r="6.828" transform="translate(37.835 18.488)" fill="#ffb300"/>
      <path id="Trazado_896534" data-name="Trazado 896534" d="M321.017,137a7.123,7.123,0,0,0-2.017.291,7.126,7.126,0,0,1,0,13.67A7.126,7.126,0,1,0,321.017,137Z" transform="translate(-276.108 -118.579)" fill="#ffa000"/>
      <path id="Trazado_896535" data-name="Trazado 896535" d="M51.653,61.869A32.4,32.4,0,1,1,45.93,4.12a1.008,1.008,0,0,0,.716-1.885A34.426,34.426,0,0,0,10.082,58.76a34.433,34.433,0,0,0,42.645,4.815,1.008,1.008,0,1,0-1.074-1.707Z" transform="translate(0 0)"/>
      <path id="Trazado_896536" data-name="Trazado 896536" d="M367.358,29.531a1.008,1.008,0,0,0-.954,1.777,32.412,32.412,0,0,1,5.307,53.574,1.008,1.008,0,1,0,1.284,1.556,34.429,34.429,0,0,0-5.636-56.907Z" transform="translate(-316.679 -25.457)"/>
      <path id="Trazado_896537" data-name="Trazado 896537" d="M98.6,275.019l-4.564,4.564a1.009,1.009,0,0,0,1.426,1.426l4.564-4.564a1.009,1.009,0,1,0-1.426-1.426Z" transform="translate(-81.136 -237.786)"/>
      <path id="Trazado_896538" data-name="Trazado 896538" d="M124.252,300.673l-4.564,4.564a1.009,1.009,0,0,0,1.426,1.426l4.564-4.564a1.009,1.009,0,1,0-1.426-1.426Z" transform="translate(-103.34 -259.99)"/>
      <path id="Trazado_896539" data-name="Trazado 896539" d="M149.906,326.326l-4.563,4.564a1.009,1.009,0,0,0,1.426,1.426l4.563-4.564a1.009,1.009,0,0,0-1.426-1.426Z" transform="translate(-125.545 -282.194)"/>
      <path id="Trazado_896540" data-name="Trazado 896540" d="M175.559,351.979,171,356.543a1.008,1.008,0,0,0,1.426,1.426l4.563-4.563a1.009,1.009,0,1,0-1.426-1.426Z" transform="translate(-147.749 -304.398)"/>
      <path id="Trazado_896541" data-name="Trazado 896541" d="M196.648,383.622a1.009,1.009,0,0,0,1.426,0l4.564-4.564a1.008,1.008,0,0,0-1.426-1.426l-4.564,4.564A1.008,1.008,0,0,0,196.648,383.622Z" transform="translate(-169.952 -326.601)"/>
      <path id="Trazado_896542" data-name="Trazado 896542" d="M79.425,38.41a16.778,16.778,0,0,0-9.585,2.995l-6.595-6.595a1.545,1.545,0,0,0-2.186,0L59.11,36.76l-.774-.774a1.549,1.549,0,0,0-2.187,0L53.865,38.27a1.551,1.551,0,0,0,0,2.185l.357.357-1.616,1.616-1.067-1.067a1.549,1.549,0,0,0-2.187,0l-2.282,2.282a1.549,1.549,0,0,0,0,2.187l.2.2-1.95,1.95a1.549,1.549,0,0,0,0,2.187l2.527,2.527a23.75,23.75,0,0,0-2.513,7.088A7.682,7.682,0,0,0,42.144,61.7a1.008,1.008,0,0,0,1.426,1.426,5.711,5.711,0,0,1,8.081,0l19.4,19.4A5.714,5.714,0,1,1,62.966,90.6l-19.4-19.4a5.671,5.671,0,0,1-1.615-4.86,1.008,1.008,0,0,0-2-.287,7.672,7.672,0,0,0,2.185,6.573l19.4,19.4a7.73,7.73,0,0,0,13.144-4.564A23.806,23.806,0,0,0,80.4,85.247l.1.1a1.548,1.548,0,0,0,2.187,0L84.637,83.4l.773.773a1.547,1.547,0,0,0,2.187,0l2.282-2.282a1.548,1.548,0,0,0,0-2.186l-.357-.357,1.616-1.616L92.2,78.792a1.545,1.545,0,0,0,2.189,0l2.282-2.282a1.548,1.548,0,0,0,0-2.186l-.2-.2,1.952-1.952a1.551,1.551,0,0,0,0-2.185L93.3,64.87a16.866,16.866,0,0,0-13.88-26.46ZM94.282,55.285A14.857,14.857,0,1,1,79.425,40.427,14.874,14.874,0,0,1,94.282,55.285ZM62.152,36.57l6.09,6.09a17,17,0,0,0-1.6,1.627l-6.1-6.1Zm-4.91,1.174L65.4,45.906a16.887,16.887,0,0,0-1.179,2.054l-8.6-8.6ZM55.65,42.238,63.4,49.99a16.733,16.733,0,0,0-.635,2.6l-.378-.378-.009-.01-8.346-8.346Zm-5.2.882,1.818,1.818.009.01,8.346,8.346L59,54.91,48.832,44.737ZM48.7,47.456,58.87,57.629l-1.616,1.616L47.081,49.072ZM74.65,85.392a7.672,7.672,0,0,0-2.176-4.3l-19.4-19.4a7.708,7.708,0,0,0-5.617-2.257,21.721,21.721,0,0,1,1.88-5.258L56.161,61a1.549,1.549,0,0,0,2.187,0l2.282-2.282h0a1.549,1.549,0,0,0,0-2.187l-.2-.2,1.616-1.617.5.5c0,.02,0,.04,0,.06a16.892,16.892,0,0,0,9.148,15l-2.036,2.036a1.548,1.548,0,0,0,0,2.187l9.248,9.248A21.781,21.781,0,0,1,74.65,85.392Zm6.945-1.806L71.422,73.413,73.038,71.8,83.211,81.97ZM86.5,82.41,76.331,72.238l.31-.31a16.908,16.908,0,0,0,2.784.231h.059L87,79.677h0l1.116,1.116ZM88.1,77.918l-5.976-5.976a16.73,16.73,0,0,0,2.6-.635L89.713,76.3Zm5.2-.883-1.826-1.826h0l-4.723-4.723A16.868,16.868,0,0,0,88.8,69.307l6.112,6.112Zm3.367-5.952L95.049,72.7l-4.627-4.627a17.015,17.015,0,0,0,1.628-1.605Z" transform="translate(-34.516 -29.738)"/>
      <path id="Trazado_896543" data-name="Trazado 896543" d="M281.635,145.769a8.135,8.135,0,1,0-8.135-8.135A8.144,8.144,0,0,0,281.635,145.769Zm0-14.252a6.118,6.118,0,1,1-6.118,6.118A6.125,6.125,0,0,1,281.635,131.517Z" transform="translate(-236.726 -112.088)"/>
    </g>
  </g>
</svg>
