<svg xmlns="http://www.w3.org/2000/svg" xmlns:xlink="http://www.w3.org/1999/xlink" width="108.914" height="108.914" viewBox="0 0 108.914 108.914">
  <defs>
    <filter id="Trazado_896036" x="0" y="0" width="108.914" height="108.914" filterUnits="userSpaceOnUse">
      <feOffset dy="3" input="SourceAlpha"/>
      <feGaussianBlur stdDeviation="3" result="blur"/>
      <feFlood flood-opacity="0.161"/>
      <feComposite operator="in" in2="blur"/>
      <feComposite in="SourceGraphic"/>
    </filter>
  </defs>
  <g id="Grupo_1108444" data-name="Grupo 1108444" transform="translate(1222.481 9209.702)">
    <g id="Grupo_1105800" data-name="Grupo 1105800" transform="translate(-1213.481 -9203.702)">
      <g transform="matrix(1, 0, 0, 1, -9, -6)" filter="url(#Trazado_896036)">
        <g id="Trazado_896036-2" data-name="Trazado 896036" transform="translate(9 6)" fill="#9ec9ff" opacity="0.859">
          <path d="M 45.45676803588867 89.41407012939453 C 39.52198028564453 89.41407012939453 33.76551818847656 88.25206756591797 28.34726715087891 85.96034240722656 C 23.11311721801758 83.74648284912109 18.41204261779785 80.57682800292969 14.37464332580566 76.5394287109375 C 10.33724308013916 72.50202941894531 7.167593002319336 67.80095672607422 4.953730583190918 62.56679534912109 C 2.662005424499512 57.14855575561523 1.500005483627319 51.39208221435547 1.500005483627319 45.45729446411133 C 1.500005483627319 39.52198028564453 2.662005424499512 33.76551818847656 4.953730583190918 28.34726905822754 C 7.167593002319336 23.11310577392578 10.33724308013916 18.41203117370605 14.37464332580566 14.37464332580566 C 18.41204261779785 10.33724403381348 23.11311721801758 7.167593955993652 28.34726715087891 4.953731060028076 C 33.76551818847656 2.662006139755249 39.52198028564453 1.500006198883057 45.45676803588867 1.500006198883057 C 51.39155578613281 1.500006198883057 57.14802932739258 2.662006139755249 62.56626892089844 4.953731060028076 C 67.80043029785156 7.167593955993652 72.50150299072266 10.33724403381348 76.53890228271484 14.37464332580566 C 80.57630920410156 18.41203117370605 83.74595642089844 23.11310577392578 85.95981597900391 28.34726905822754 C 88.25154113769531 33.76551818847656 89.41354370117188 39.52198028564453 89.41354370117188 45.45676803588867 C 89.41354370117188 51.39208221435547 88.25154113769531 57.14855575561523 85.95981597900391 62.56679534912109 C 83.74595642089844 67.80095672607422 80.57630920410156 72.50202941894531 76.53890228271484 76.5394287109375 C 72.50150299072266 80.57682800292969 67.80043029785156 83.74648284912109 62.56626892089844 85.96034240722656 C 57.14802932739258 88.25206756591797 51.39155578613281 89.41407012939453 45.45676803588867 89.41407012939453 Z" stroke="none"/>
          <path d="M 45.45676803588867 3 C 39.72381210327148 3 34.1639404296875 4.12213134765625 28.93159484863281 6.335227966308594 C 23.87622833251953 8.473472595214844 19.33542633056641 11.53517150878906 15.43529510498047 15.435302734375 C 11.53517150878906 19.33543395996094 8.473464965820312 23.87622833251953 6.335227966308594 28.93160247802734 C 4.122123718261719 34.16394424438477 3 39.72381591796875 3 45.4572868347168 C 3 51.19024658203125 4.122123718261719 56.75011825561523 6.335227966308594 61.98246002197266 C 8.473464965820312 67.03782653808594 11.53517150878906 71.57862854003906 15.43529510498047 75.478759765625 C 19.33542633056641 79.37889099121094 23.87622833251953 82.44058990478516 28.93159484863281 84.57883453369141 C 34.1639404296875 86.79193115234375 39.72381210327148 87.9140625 45.45676803588867 87.9140625 C 51.18972396850586 87.9140625 56.74959564208984 86.79193115234375 61.98194122314453 84.57883453369141 C 67.03730773925781 82.44058990478516 71.57810974121094 79.37889099121094 75.47824096679688 75.478759765625 C 79.37837219238281 71.57862854003906 82.44007110595703 67.03782653808594 84.57830810546875 61.98246002197266 C 86.79141235351562 56.75011825561523 87.91353607177734 51.19024658203125 87.91353607177734 45.4567756652832 C 87.91353607177734 39.72381591796875 86.79141235351562 34.16394424438477 84.57830810546875 28.93160247802734 C 82.44007110595703 23.87622833251953 79.37837219238281 19.33543395996094 75.47824096679688 15.435302734375 C 71.57810974121094 11.53517150878906 67.03730773925781 8.473472595214844 61.98194122314453 6.335227966308594 C 56.74959564208984 4.12213134765625 51.18972396850586 3 45.45676803588867 3 M 45.45676803588867 0 C 70.56185150146484 0 90.91353607177734 20.35169219970703 90.91353607177734 45.4567756652832 L 90.91353607177734 45.4572868347168 C 90.91353607177734 70.5623779296875 70.56185150146484 90.9140625 45.45676803588867 90.9140625 C 20.3516845703125 90.9140625 0 70.5623779296875 0 45.4572868347168 L 0 45.4567756652832 C 0 20.35169219970703 20.3516845703125 0 45.45676803588867 0 Z" stroke="none" fill="#fff"/>
        </g>
      </g>
      <g id="Rectángulo_400907" data-name="Rectángulo 400907" transform="translate(0 0)" fill="none" stroke="#fff" stroke-width="3">
        <rect width="90.914" height="90.914" rx="45.457" stroke="none"/>
        <rect x="1.5" y="1.5" width="87.914" height="87.914" rx="43.957" fill="none"/>
      </g>
    </g>
    <g id="Grupo_1108419" data-name="Grupo 1108419" transform="translate(-1213.358 -9202.667)">
      <path id="Trazado_896544" data-name="Trazado 896544" d="M361.973,207.892,360,200h11.838v2.96l-4.933,6.906Z" transform="translate(-301.58 -161.31)" fill="#ffceb6"/>
      <path id="Trazado_896545" data-name="Trazado 896545" d="M72.34,185.037l-1.973,10.852-3.946,2.96H54.582v11.838H30.906v-6.906h-.987L24,198.849v-4.933l2.517-10.906a3.946,3.946,0,0,1,2.242-2.719l2.051-.911,5.029-2.234,2.114-2.819,1.985-2.646h5.613l1.985,2.646,2.114,2.819,5.029,2.234,3.85,1.712,4.281,9.635,4.6-7.662Z" transform="translate(-7.014 -136.482)" fill="#e0edff"/>
      <path id="Trazado_896546" data-name="Trazado 896546" d="M80,403.946H95.784v-2.96l5.919,1.973,1.973-2.96v10.852H80Z" transform="translate(-56.108 -336.647)" fill="#62798c"/>
      <path id="Trazado_896547" data-name="Trazado 896547" d="M103.089,218.234l-2.069,15.523H81.289L79.22,218.234,84.249,216l1.184,2.368,2.686,4.386,2.05,4.1.987,1.973.987-1.973,2.049-4.1,2.686-4.386L98.06,216Z" transform="translate(-55.424 -175.337)" fill="#62798c"/>
      <path id="Trazado_896548" data-name="Trazado 896548" d="M146.724,174.326l-4.792,4.792-4.792-4.792,1.985-2.646h5.613Z" transform="translate(-106.202 -136.482)" fill="#ffbfa1"/>
      <path id="Trazado_896549" data-name="Trazado 896549" d="M192,236.143l2.96,1.776,1.973-.987v-3.946L194.96,232,192,233.776Z" transform="translate(-154.297 -189.364)" fill="#e35430"/>
      <path id="Trazado_896550" data-name="Trazado 896550" d="M160,240h3.946v3.946H160Z" transform="translate(-126.243 -196.377)" fill="#ef5e3b"/>
      <path id="Trazado_896551" data-name="Trazado 896551" d="M124.933,236.143l-2.96,1.776L120,236.933v-3.946l1.973-.987,2.96,1.776Z" transform="translate(-91.175 -189.364)" fill="#e35430"/>
      <path id="Trazado_896552" data-name="Trazado 896552" d="M208,345.973,212.933,344l5.919,3.946v1.973l-2.96.987-1.973,2.96L208,351.892Z" transform="translate(-168.324 -287.553)" fill="#ffceb6"/>
      <path id="Trazado_896553" data-name="Trazado 896553" d="M130.852,360v9.865l-5.919,5.919H120V360Z" transform="translate(-91.175 -301.579)" fill="#ffc431"/>
      <path id="Trazado_896554" data-name="Trazado 896554" d="M312,168h21.7a3.946,3.946,0,0,1-3.946,3.946H315.946A3.946,3.946,0,0,1,312,168Z" transform="translate(-259.499 -133.256)" fill="#548aff"/>
      <path id="Trazado_896555" data-name="Trazado 896555" d="M368,24h7.892v3.946a3.946,3.946,0,1,1-7.892,0Z" transform="translate(-308.593 -7.013)" fill="#d1e4ff"/>
      <path id="Trazado_896556" data-name="Trazado 896556" d="M360,146.96l2.96-2.96h3.946l2.96,2.96Z" transform="translate(-301.58 -112.216)" fill="#d1e4ff"/>
      <path id="Trazado_896557" data-name="Trazado 896557" d="M375.892,56H368a3.946,3.946,0,0,0,3.946,3.946h0A3.946,3.946,0,0,0,375.892,56Z" transform="translate(-308.593 -35.067)" fill="#ef5e3b"/>
      <path id="Trazado_896558" data-name="Trazado 896558" d="M133.811,64v8.48a6.906,6.906,0,0,1-6.906,6.906h0A6.906,6.906,0,0,1,120,72.48V64Z" transform="translate(-91.175 -42.081)" fill="#ffceb6"/>
      <path id="Trazado_896559" data-name="Trazado 896559" d="M128.879,24h-4.439A4.439,4.439,0,0,0,120,28.439v.493h8.879Z" transform="translate(-91.175 -7.013)" fill="#a36522"/>
      <path id="Trazado_896560" data-name="Trazado 896560" d="M161.865,28.933H160.3a3.368,3.368,0,0,0-2.382.987,3.368,3.368,0,0,1-2.382.987h-.085a3.453,3.453,0,0,1,0-6.906h2.466a3.946,3.946,0,0,1,3.946,3.946Z" transform="translate(-119.229 -7.013)" fill="#b1712c"/>
      <path id="Trazado_896561" data-name="Trazado 896561" d="M160,123.946h.987a2.963,2.963,0,0,0,2.96-2.96V120h-1.973v.987a.988.988,0,0,1-.987.987H160Z" transform="translate(-126.243 -91.175)"/>
      <ellipse id="Elipse_11672" data-name="Elipse 11672" cx="1.335" cy="0.89" rx="1.335" ry="0.89" transform="translate(31.352 26.011)"/>
      <circle id="Elipse_11673" data-name="Elipse 11673" cx="0.89" cy="0.89" r="0.89" transform="translate(37.584 26.011)"/>
      <path id="Trazado_896562" data-name="Trazado 896562" d="M74.2,33.757h-5.51l-2.671-2.671a.987.987,0,0,0-.7-.289H64.34V25.766a4.941,4.941,0,0,0,3.946-4.833V16.987A.987.987,0,0,0,67.3,16H59.407a.987.987,0,0,0-.987.986v3.946a4.941,4.941,0,0,0,3.946,4.833V30.8H61.38a.987.987,0,0,0-.7.289l-2.671,2.671H52.5a.987.987,0,0,0-.987.986,4.938,4.938,0,0,0,4.933,4.933h1.2l1.687,6.748-3.41,5.683L53.033,45.6a4.924,4.924,0,0,0-2.5-2.5l-7.257-3.225-2.53-3.374A7.88,7.88,0,0,0,43.623,30.4V20.933A4.938,4.938,0,0,0,38.69,16H33.264a5.432,5.432,0,0,0-5.426,5.426V30.4a7.88,7.88,0,0,0,2.883,6.094l-2.531,3.373-6.845,3.042a4.957,4.957,0,0,0-2.8,3.4L16.025,57.212a.982.982,0,0,0-.025.222v4.933a.986.986,0,0,0,.355.758l5.919,4.933a.986.986,0,0,0,.632.229V74.2a.987.987,0,0,0,.986.987H47.569a.987.987,0,0,0,.987-.986V64.064l2.133-.711h8.718a.987.987,0,0,0,.592-.2l3.946-2.96a.987.987,0,0,0,.379-.613l1.934-10.634,4.8-6.726a.986.986,0,0,0,.184-.573V39.577a4.941,4.941,0,0,0,3.946-4.833.987.987,0,0,0-.986-.987ZM66.313,17.973v1.973H60.393V17.973Zm-5.749,3.946h5.58a2.959,2.959,0,0,1-5.58,0Zm1.225,10.852h3.129l.987.987H60.8Zm-16.8,22.766a.984.984,0,0,0-.742-.006l-4.756,1.9h-2.77V53.721l2.455-4.91.984.59a.987.987,0,0,0,.949.036l1.973-.987a.987.987,0,0,0,.545-.882V43.623a.987.987,0,0,0-.545-.882l-.3-.151.321-.642L46.59,43.5Zm-18.256,1.9L24.871,43.5l3.493-1.552.321.642-.3.151a.987.987,0,0,0-.545.882v3.946a.987.987,0,0,0,.545.882l1.973.987a.987.987,0,0,0,.949-.036l.984-.59,2.455,4.91v3.713Zm5.665-19.885a7.87,7.87,0,0,0,6.674,0l.152.2L35.73,41.241l-3.489-3.489ZM35.73,51.282l-1.363-2.727h2.727Zm-5.919-7.05.943-.472,2.016,1.21v1.25l-2.016,1.21-.943-.472Zm6.906.377v1.973H34.744V44.609Zm1.973,1.612v-1.25l2.016-1.21.943.472v2.727l-.943.472Zm2.318-4.508a.986.986,0,0,0-.853.077l-1.809,1.085a.982.982,0,0,0-.643-.239h-.578l3.29-3.29,1.066,1.421Zm-6.673.923h-.578a.982.982,0,0,0-.643.239L31.305,41.79a.986.986,0,0,0-.853-.077l-.473-.946,1.066-1.421ZM38.69,17.973a2.963,2.963,0,0,1,2.96,2.96h-.578a4.326,4.326,0,0,0-3.079,1.275,2.366,2.366,0,0,1-1.684.7h-.085a2.466,2.466,0,1,1,0-4.933Zm-6.214.091a4.412,4.412,0,0,0-.692,2.376,4.463,4.463,0,0,0,.028.493H29.846a3.462,3.462,0,0,1,2.63-2.869ZM29.811,30.4V22.906h2.723a4.438,4.438,0,0,0,3.689,1.973h.085A4.326,4.326,0,0,0,39.388,23.6a2.366,2.366,0,0,1,1.684-.7h.578V30.4a5.919,5.919,0,0,1-11.838,0ZM17.973,61.9V57.546l2.491-10.8a2.974,2.974,0,0,1,1.682-2.039l.846-.376,1.9,14.216a.986.986,0,0,0,.978.856h1.973v6.906H23.263Zm6.906,6.381h2.96v4.933h-2.96Zm4.933-8.879H38.69v8.47l-3.946,3.946v-6.5H32.771v7.892h-2.96Zm6.328,13.811,4.235-4.235a.987.987,0,0,0,.289-.7V65.708l4.621,1.54a.986.986,0,0,0,1.133-.389l.166-.249v6.607Zm13.4-11.563-2.285.762a.986.986,0,0,0-.509.389l-1.555,2.333-4.53-1.51v-4.54l3.831-1.532,5.048,3.365Zm12.91-2.806-3.374,2.53H51.515v-.987a.986.986,0,0,0-.439-.821l-4.26-2.84,1.653-12.4,1.258.559a2.955,2.955,0,0,1,1.5,1.5l3.457,7.779L53.628,55.94l1.692,1.015,5.487-9.145,3.4,1.362Zm6.821-17.516-4.3,6.018-3.745-1.5-1.544-6.177h.381l3.288,2.466v1.48h1.973V41.65a.987.987,0,0,0-.395-.789l-1.578-1.184h5.919Zm.987-3.63H56.447a2.965,2.965,0,0,1-2.79-1.973H73.049a2.965,2.965,0,0,1-2.79,1.973Z" transform="translate(0)"/>
    </g>
  </g>
</svg>
