<svg xmlns="http://www.w3.org/2000/svg" xmlns:xlink="http://www.w3.org/1999/xlink" width="108.914" height="108.914" viewBox="0 0 108.914 108.914">
  <defs>
    <filter id="Rectángulo_400898" x="0" y="0" width="108.914" height="108.914" filterUnits="userSpaceOnUse">
      <feOffset dy="3" input="SourceAlpha"/>
      <feGaussianBlur stdDeviation="3" result="blur"/>
      <feFlood flood-opacity="0.161"/>
      <feComposite operator="in" in2="blur"/>
      <feComposite in="SourceGraphic"/>
    </filter>
  </defs>
  <g id="Grupo_1108445" data-name="Grupo 1108445" transform="translate(910.092 9209.702)">
    <g id="Grupo_1105799" data-name="Grupo 1105799" transform="translate(-901.093 -9203.702)">
      <g transform="matrix(1, 0, 0, 1, -9, -6)" filter="url(#Rectángulo_400898)">
        <g id="Rectángulo_400898-2" data-name="Rectángulo 400898" transform="translate(9 6)" fill="#9ec9ff" stroke="#fff" stroke-width="3" opacity="0.859">
          <rect width="90.914" height="90.914" rx="45.457" stroke="none"/>
          <rect x="1.5" y="1.5" width="87.914" height="87.914" rx="43.957" fill="none"/>
        </g>
      </g>
      <rect id="Rectángulo_400907" data-name="Rectángulo 400907" width="90.914" height="90.914" rx="45.457" transform="translate(0 0)" fill="none"/>
    </g>
    <g id="Grupo_1108423" data-name="Grupo 1108423" transform="translate(-900.835 -9186.667)">
      <g id="Grupo_1108421" data-name="Grupo 1108421" transform="translate(19.532 0.86)">
        <path id="Trazado_896563" data-name="Trazado 896563" d="M156.056,312.527h-2.947l-.231.343v16.468l.316.408h2.962l.343-.408V312.87Z" transform="translate(-138.198 -277.256)" fill="#b5dcff"/>
        <path id="Trazado_896564" data-name="Trazado 896564" d="M154.689,312.87l.23-.343h-1.811l-.231.343v16.468l.316.408h1.811l-.317-.408Z" transform="translate(-138.198 -277.256)" fill="#8bcaff"/>
        <path id="Trazado_896565" data-name="Trazado 896565" d="M31.2,25.418H44.486l4.4,3.508H58.55l1.968-14.75-.2-.419-.962-5.306a1.233,1.233,0,0,0-1.213-1.012H34.453a1.233,1.233,0,0,0-1.213,1.012L30.317,24.57Z" transform="translate(-29.806 -7.439)" fill="#dbedff"/>
        <path id="Trazado_896566" data-name="Trazado 896566" d="M31.2,25.418h5.841L39.288,7.439H34.453a1.233,1.233,0,0,0-1.213,1.012L30.317,24.57Z" transform="translate(-29.806 -7.439)" fill="#b5dcff"/>
        <path id="Trazado_896567" data-name="Trazado 896567" d="M366.815,236.741l-6.429-19.907-.41-.245-7.673,3.295-.971,2.5,5.661,17.527a.58.58,0,0,0,1.027.153l1.6-2.294v-.511l1.362-1.828,2.074.723.377.385,2.639.925A.58.58,0,0,0,366.815,236.741Z" transform="translate(-313.709 -192.41)" fill="#60b9fe"/>
        <path id="Trazado_896568" data-name="Trazado 896568" d="M353.753,239.7l-1.45.623-.971,2.5,5.661,17.527a.58.58,0,0,0,1.027.153l1.6-2.294v-.345Z" transform="translate(-313.709 -212.852)" fill="#0094fd"/>
        <path id="Trazado_896569" data-name="Trazado 896569" d="M374.4,241.935l2.89.578.511-1.061h.316l5.515,17.077-1.959-.687a.58.58,0,0,0-.667.215l-1.187,1.7-5.647-17.484Z" transform="translate(-333.911 -214.398)" fill="#1ca8ff"/>
        <path id="Trazado_896570" data-name="Trazado 896570" d="M87.886,460.109l-.044-.011-8.882-2.16H75.337l-8.882,2.16-.044.011a1.63,1.63,0,0,0,.424,3.2H87.462A1.63,1.63,0,0,0,87.886,460.109Z" transform="translate(-60.657 -405.857)" fill="#dbedff"/>
        <path id="Trazado_896571" data-name="Trazado 896571" d="M134.556,462.4l-.044-.011-7.651-1.86-7.616,1.852-.045.011a1.659,1.659,0,0,0,.035,3.213h14.9a1.63,1.63,0,0,0,.424-3.2Z" transform="translate(-107.327 -408.148)" fill="#dbedff"/>
        <path id="Trazado_896572" data-name="Trazado 896572" d="M72.653,460.11l.044-.011,7.572-1.841-1.31-.319H75.337l-8.882,2.16-.044.011a1.63,1.63,0,0,0,.424,3.2h6.243A1.63,1.63,0,0,1,72.653,460.11Z" transform="translate(-60.657 -405.858)" fill="#b5dcff"/>
        <path id="Trazado_896573" data-name="Trazado 896573" d="M52.99,143.1v-3.314l-1.119-.361a12.936,12.936,0,0,1-9.484-2.28c-7.614-5.432-15.98,0-15.98,0l-.273,1.5c-1.486,8.2,4.143,13.865,12.228,16.474a13.1,13.1,0,0,0,8.051,0,26.033,26.033,0,0,0,4.182-1.748l.662-.436,2.831-9.009Z" transform="translate(-25.895 -120.019)" fill="#da4093"/>
        <path id="Trazado_896574" data-name="Trazado 896574" d="M38.806,150.982a12.815,12.815,0,0,1-5.7-12.369l.417-3.33a17.361,17.361,0,0,0-7.121,2.351l-.273,1.5c-1.486,8.2,4.143,13.865,12.228,16.474a13.1,13.1,0,0,0,8.051,0,26.429,26.429,0,0,0,3.706-1.5A21.751,21.751,0,0,1,38.806,150.982Z" transform="translate(-25.894 -120.503)" fill="#c3247d"/>
        <path id="Trazado_896575" data-name="Trazado 896575" d="M223.184,219.885l-7.673-3.295-.41.245-6.429,19.907a.58.58,0,0,0,.743.725l2.639-.925.378-.37,2.158-.713,1.272,1.725.005.59,1.6,2.294a.58.58,0,0,0,1.027-.153l5.661-17.527Z" transform="translate(-187.515 -192.41)" fill="#60b9fe"/>
        <path id="Trazado_896576" data-name="Trazado 896576" d="M209.414,237.466l2.639-.925.1-.1,6.039-18.7-2.685-1.153-.41.245L208.67,236.74A.58.58,0,0,0,209.414,237.466Z" transform="translate(-187.514 -192.41)" fill="#0094fd"/>
        <path id="Trazado_896577" data-name="Trazado 896577" d="M247.387,241.935l-2.89.578-.511-1.061h-.316l-5.515,17.077,1.959-.687a.58.58,0,0,1,.667.215l1.187,1.7,5.647-17.484Z" transform="translate(-213.616 -214.398)" fill="#1ca8ff"/>
        <path id="Trazado_896578" data-name="Trazado 896578" d="M305.4,70.542a.913.913,0,0,0,0-1.261l-1.74-1.823a.913.913,0,0,1-.227-.846l.6-2.448a.913.913,0,0,0-.631-1.093l-2.418-.706a.913.913,0,0,1-.621-.621l-.706-2.418a.913.913,0,0,0-1.093-.631l-2.448.6a.912.912,0,0,1-.7-.117l-.04-.008-2.476-.6a.924.924,0,0,0-1.105.639l-.714,2.446a.924.924,0,0,1-.628.628L288,62.992a.924.924,0,0,0-.639,1.105l.6,2.476a.923.923,0,0,1-.229.856l-1.76,1.845a.924.924,0,0,0,0,1.276l1.76,1.845a.924.924,0,0,1,.229.856l-.6,2.476A.924.924,0,0,0,288,76.832l2.446.714a.924.924,0,0,1,.628.628l.714,2.446a.924.924,0,0,0,1.105.639l2.476-.6.04-.008a.912.912,0,0,1,.7-.117l2.448.6a.913.913,0,0,0,1.093-.631l.706-2.418a.913.913,0,0,1,.621-.621l2.418-.706a.913.913,0,0,0,.631-1.092l-.6-2.448a.913.913,0,0,1,.227-.846Z" transform="translate(-255.682 -52.631)" fill="#ffc365"/>
        <g id="Grupo_1108420" data-name="Grupo 1108420" transform="translate(24.293 4.442)">
          <path id="Trazado_896579" data-name="Trazado 896579" d="M251.424,69.319l-2.448.6a.913.913,0,0,1-1.092-.631l-.25-.855a11.388,11.388,0,0,1-.456-3.191V52.16a11.388,11.388,0,0,1,.456-3.191l.25-.855a.913.913,0,0,1,1.093-.631l2.448.6a.911.911,0,0,0,.369.012.91.91,0,0,1-.477-.238l-1.823-1.74a.913.913,0,0,0-1.261,0l-1.823,1.74a.913.913,0,0,1-.846.227l-2.448-.6a.913.913,0,0,0-1.092.631l-.706,2.418a.913.913,0,0,1-.621.621l-2.418.706a.913.913,0,0,0-.631,1.092l.6,2.448a.913.913,0,0,1-.227.846l-1.74,1.823a.913.913,0,0,0,0,1.261l1.74,1.823a.913.913,0,0,1,.227.846l-.6,2.448a.913.913,0,0,0,.631,1.093l2.418.706a.913.913,0,0,1,.621.621l.706,2.418a.913.913,0,0,0,1.092.631l2.448-.6a.913.913,0,0,1,.846.227l1.823,1.74a.913.913,0,0,0,1.261,0l1.823-1.74a.911.911,0,0,1,.477-.238.912.912,0,0,0-.369.012Z" transform="translate(-236.024 -45.86)" fill="#ffa90f"/>
          <circle id="Elipse_11674" data-name="Elipse 11674" cx="7.643" cy="7.643" r="7.643" transform="translate(5.196 5.197)" fill="#ffa90f"/>
          <circle id="Elipse_11675" data-name="Elipse 11675" cx="7.643" cy="7.643" r="7.643" transform="translate(5.196 5.197)" fill="#ffa90f"/>
        </g>
        <path id="Trazado_896580" data-name="Trazado 896580" d="M285.921,98.454a7.644,7.644,0,0,1,5.168-7.231,7.643,7.643,0,1,0,0,14.461A7.644,7.644,0,0,1,285.921,98.454Z" transform="translate(-251.482 -81.173)" fill="#fc8900"/>
      </g>
      <g id="Grupo_1108422" data-name="Grupo 1108422" transform="translate(18.701 0)">
        <path id="Trazado_896581" data-name="Trazado 896581" d="M73.5,44.932,67.341,25.874l.182-.053a1.777,1.777,0,0,0,1.231-2.13l-.6-2.448a.046.046,0,0,1,.011-.043l1.74-1.823a1.778,1.778,0,0,0,0-2.458L68.169,15.1a.046.046,0,0,1-.011-.043l.6-2.448a1.777,1.777,0,0,0-1.231-2.13L65.105,9.77a.046.046,0,0,1-.031-.031L64.368,7.32a1.777,1.777,0,0,0-2.13-1.231l-2.448.6a.046.046,0,0,1-.043-.012l-1.823-1.74a1.778,1.778,0,0,0-2.458,0l-1.823,1.74a.046.046,0,0,1-.042.011l-2.448-.6a1.785,1.785,0,0,0-.4-.049l-.783-4.316A2.1,2.1,0,0,0,47.9,0H24.212a2.1,2.1,0,0,0-2.066,1.725C18.625,21.137,18.721,20.245,18.7,21.88c-.077,6.73,4.643,12.2,13.062,14.921a14.127,14.127,0,0,0,1.613.418V52.267l-8.221,2-.055.014a2.5,2.5,0,0,0,.64,4.911h8.291a.867.867,0,0,0,0-1.734H25.742a.739.739,0,0,1-.759-.676.707.707,0,0,1,.547-.821l8.819-2.145h3.415l8.78,2.135.034.008a.708.708,0,0,1,.552.822.739.739,0,0,1-.759.676H38.079a.867.867,0,0,0,0,1.734h8.291a2.5,2.5,0,0,0,.643-4.911l-8.279-2.014V37.218a14.138,14.138,0,0,0,1.614-.418q1.282-.414,2.473-.927L39.9,44.931a1.447,1.447,0,0,0,1.855,1.81l2.639-.925,1.753-.614L48.8,49.019a1.447,1.447,0,0,0,2.564-.383l5.327-16.5,5.327,16.5a1.447,1.447,0,0,0,2.564.383L67.248,45.2l4.392,1.54a1.447,1.447,0,0,0,1.855-1.81ZM53.19,8.37a1.773,1.773,0,0,0,1.65-.442l1.823-1.74a.046.046,0,0,1,.064,0l1.823,1.74a1.772,1.772,0,0,0,1.65.442l2.448-.6a.046.046,0,0,1,.055.032l.706,2.418a1.773,1.773,0,0,0,1.21,1.21l2.418.706a.046.046,0,0,1,.032.055l-.6,2.448a1.772,1.772,0,0,0,.442,1.65l1.74,1.823a.046.046,0,0,1,0,.064L66.915,20a1.772,1.772,0,0,0-.442,1.65l.6,2.448a.046.046,0,0,1-.032.055l-2.418.706a1.774,1.774,0,0,0-1.21,1.21L62.7,28.49a.047.047,0,0,1-.055.032l-2.448-.6a1.773,1.773,0,0,0-1.65.442l-1.826,1.741a.046.046,0,0,1-.061,0h0L54.84,28.368a1.775,1.775,0,0,0-1.65-.442l-2.448.6a.048.048,0,0,1-.018,0,.046.046,0,0,1-.037-.033l-.706-2.418a1.772,1.772,0,0,0-1.21-1.21l-2.418-.706a.046.046,0,0,1-.032-.055,15.7,15.7,0,0,0,.647-2.889s0,0,0,0a1.772,1.772,0,0,0-.493-1.2l-1.74-1.823a.046.046,0,0,1,0-.064l1.74-1.823a1.775,1.775,0,0,0,.442-1.65l-.6-2.448a.046.046,0,0,1,.032-.055l2.418-.706a1.773,1.773,0,0,0,1.21-1.21l.706-2.418a.041.041,0,0,1,.01-.017.045.045,0,0,1,.046-.015ZM23.852,2.034a.365.365,0,0,1,.36-.3H47.9a.365.365,0,0,1,.36.3l.9,4.954a1.8,1.8,0,0,0-.135.333l-.706,2.418a.046.046,0,0,1-.031.031l-2.418.706a1.777,1.777,0,0,0-1.231,2.13l.6,2.448a.046.046,0,0,1-.011.043l-1.74,1.823a1.778,1.778,0,0,0,0,2.458l.16.168a11.838,11.838,0,0,1-7.083-2.253c-4.61-3.289-10.225-3.243-15.312-.9Zm-3.2,17.621.2-1.115A17.074,17.074,0,0,1,25.422,16.8a12.212,12.212,0,0,1,10.13,1.9,13.651,13.651,0,0,0,9.66,2.487c.015.016.026.028.021.052l-.6,2.448a1.777,1.777,0,0,0,1.231,2.13l.182.053-2.5,7.748a25.52,25.52,0,0,1-3.733,1.528,12.319,12.319,0,0,1-2.02.468l-.047,0a12.232,12.232,0,0,1-3.383,0l-.046,0A12.336,12.336,0,0,1,32.3,35.15c-4.1-1.325-13.456-5.487-11.641-15.494ZM35.111,52.081V37.446c.314.022.629.034.944.034s.63-.013.944-.034V52.081Zm6.612-7.168L47.715,26.36l.571.166a.046.046,0,0,1,.031.031l.394,1.351-5.3,16.414Zm4.052-1.42-.31.109L49.85,30.025a1.8,1.8,0,0,0,1.3.182l1.115-.271L47.628,44.3l-.188-.269a1.451,1.451,0,0,0-1.666-.538Zm4.121,4.06-1.022-1.466,5.188-16.065,1.144,1.091Zm13.6,0-5.31-16.44,1.144-1.091,5.188,16.065Zm2.455-3.522-.188.269L61.123,29.935l1.115.271a1.8,1.8,0,0,0,1.3-.182L67.926,43.6l-.31-.108a1.451,1.451,0,0,0-1.666.538Zm4.03.291-5.3-16.414.394-1.35a.046.046,0,0,1,.031-.031l.571-.166,5.992,18.553Z" transform="translate(-18.701 0)"/>
        <path id="Trazado_896582" data-name="Trazado 896582" d="M273.743,91.881a8.51,8.51,0,0,0,16.716,2.252.867.867,0,1,0-1.672-.458,6.776,6.776,0,1,1,0-3.588.867.867,0,1,0,1.672-.458,8.51,8.51,0,0,0-16.716,2.252Z" transform="translate(-244.258 -73.733)"/>
      </g>
    </g>
  </g>
</svg>
