<svg xmlns="http://www.w3.org/2000/svg" xmlns:xlink="http://www.w3.org/1999/xlink" width="108.914" height="108.914" viewBox="0 0 108.914 108.914">
  <defs>
    <filter id="Trazado_896036" x="0" y="0" width="108.914" height="108.914" filterUnits="userSpaceOnUse">
      <feOffset dy="3" input="SourceAlpha"/>
      <feGaussianBlur stdDeviation="3" result="blur"/>
      <feFlood flood-opacity="0.161"/>
      <feComposite operator="in" in2="blur"/>
      <feComposite in="SourceGraphic"/>
    </filter>
  </defs>
  <g id="Grupo_1108446" data-name="Grupo 1108446" transform="translate(594.481 9209.702)">
    <g id="Grupo_1105800" data-name="Grupo 1105800" transform="translate(-585.481 -9203.702)">
      <g transform="matrix(1, 0, 0, 1, -9, -6)" filter="url(#Trazado_896036)">
        <g id="Trazado_896036-2" data-name="Trazado 896036" transform="translate(9 6)" fill="#9ec9ff" opacity="0.859">
          <path d="M 45.45676803588867 89.41407012939453 C 39.52198028564453 89.41407012939453 33.76551818847656 88.25206756591797 28.34726715087891 85.96034240722656 C 23.11311721801758 83.74648284912109 18.41204261779785 80.57682800292969 14.37464332580566 76.5394287109375 C 10.33724308013916 72.50202941894531 7.167593002319336 67.80095672607422 4.953730583190918 62.56679534912109 C 2.662005424499512 57.14855575561523 1.500005483627319 51.39208221435547 1.500005483627319 45.45729446411133 C 1.500005483627319 39.52198028564453 2.662005424499512 33.76551818847656 4.953730583190918 28.34726905822754 C 7.167593002319336 23.11310577392578 10.33724308013916 18.41203117370605 14.37464332580566 14.37464332580566 C 18.41204261779785 10.33724403381348 23.11311721801758 7.167593955993652 28.34726715087891 4.953731060028076 C 33.76551818847656 2.662006139755249 39.52198028564453 1.500006198883057 45.45676803588867 1.500006198883057 C 51.39155578613281 1.500006198883057 57.14802932739258 2.662006139755249 62.56626892089844 4.953731060028076 C 67.80043029785156 7.167593955993652 72.50150299072266 10.33724403381348 76.53890228271484 14.37464332580566 C 80.57630920410156 18.41203117370605 83.74595642089844 23.11310577392578 85.95981597900391 28.34726905822754 C 88.25154113769531 33.76551818847656 89.41354370117188 39.52198028564453 89.41354370117188 45.45676803588867 C 89.41354370117188 51.39208221435547 88.25154113769531 57.14855575561523 85.95981597900391 62.56679534912109 C 83.74595642089844 67.80095672607422 80.57630920410156 72.50202941894531 76.53890228271484 76.5394287109375 C 72.50150299072266 80.57682800292969 67.80043029785156 83.74648284912109 62.56626892089844 85.96034240722656 C 57.14802932739258 88.25206756591797 51.39155578613281 89.41407012939453 45.45676803588867 89.41407012939453 Z" stroke="none"/>
          <path d="M 45.45676803588867 3 C 39.72381210327148 3 34.1639404296875 4.12213134765625 28.93159484863281 6.335227966308594 C 23.87622833251953 8.473472595214844 19.33542633056641 11.53517150878906 15.43529510498047 15.435302734375 C 11.53517150878906 19.33543395996094 8.473464965820312 23.87622833251953 6.335227966308594 28.93160247802734 C 4.122123718261719 34.16394424438477 3 39.72381591796875 3 45.4572868347168 C 3 51.19024658203125 4.122123718261719 56.75011825561523 6.335227966308594 61.98246002197266 C 8.473464965820312 67.03782653808594 11.53517150878906 71.57862854003906 15.43529510498047 75.478759765625 C 19.33542633056641 79.37889099121094 23.87622833251953 82.44058990478516 28.93159484863281 84.57883453369141 C 34.1639404296875 86.79193115234375 39.72381210327148 87.9140625 45.45676803588867 87.9140625 C 51.18972396850586 87.9140625 56.74959564208984 86.79193115234375 61.98194122314453 84.57883453369141 C 67.03730773925781 82.44058990478516 71.57810974121094 79.37889099121094 75.47824096679688 75.478759765625 C 79.37837219238281 71.57862854003906 82.44007110595703 67.03782653808594 84.57830810546875 61.98246002197266 C 86.79141235351562 56.75011825561523 87.91353607177734 51.19024658203125 87.91353607177734 45.4567756652832 C 87.91353607177734 39.72381591796875 86.79141235351562 34.16394424438477 84.57830810546875 28.93160247802734 C 82.44007110595703 23.87622833251953 79.37837219238281 19.33543395996094 75.47824096679688 15.435302734375 C 71.57810974121094 11.53517150878906 67.03730773925781 8.473472595214844 61.98194122314453 6.335227966308594 C 56.74959564208984 4.12213134765625 51.18972396850586 3 45.45676803588867 3 M 45.45676803588867 0 C 70.56185150146484 0 90.91353607177734 20.35169219970703 90.91353607177734 45.4567756652832 L 90.91353607177734 45.4572868347168 C 90.91353607177734 70.5623779296875 70.56185150146484 90.9140625 45.45676803588867 90.9140625 C 20.3516845703125 90.9140625 0 70.5623779296875 0 45.4572868347168 L 0 45.4567756652832 C 0 20.35169219970703 20.3516845703125 0 45.45676803588867 0 Z" stroke="none" fill="#fff"/>
        </g>
      </g>
      <g id="Rectángulo_400907" data-name="Rectángulo 400907" transform="translate(0 0)" fill="none" stroke="#fff" stroke-width="3">
        <rect width="90.914" height="90.914" rx="45.457" stroke="none"/>
        <rect x="1.5" y="1.5" width="87.914" height="87.914" rx="43.957" fill="none"/>
      </g>
    </g>
    <g id="Grupo_1108425" data-name="Grupo 1108425" transform="translate(-616.207 -9209.015)">
      <g id="Grupo_1108424" data-name="Grupo 1108424" transform="translate(49.444 21.598)">
        <path id="Trazado_896583" data-name="Trazado 896583" d="M230.807,238.15v13.573q0,.383-.027.76a10.524,10.524,0,0,1-.681,3.051,10.713,10.713,0,0,1-9.966,6.863h-5.295V238.15Z" transform="translate(-193.954 -211.306)" fill="#e87a31"/>
        <path id="Trazado_896584" data-name="Trazado 896584" d="M108.327,238.15V262.4h-5.293a10.706,10.706,0,0,1-10.675-10.674V238.15Z" transform="translate(-87.443 -211.306)" fill="#fcb556"/>
        <path id="Trazado_896585" data-name="Trazado 896585" d="M218.712,292.232a8.787,8.787,0,0,1-3.874,2.3V282.183a5.169,5.169,0,0,1,5.112,1.063C222.09,285.386,221.534,289.409,218.712,292.232Z" transform="translate(-193.954 -249.39)" fill="#aa6139"/>
        <path id="Trazado_896586" data-name="Trazado 896586" d="M172.061,283.78v12.348a5.166,5.166,0,0,1-5.111-1.063c-2.14-2.14-1.585-6.162,1.237-8.984A8.785,8.785,0,0,1,172.061,283.78Z" transform="translate(-151.177 -250.987)" fill="#b56c47"/>
        <path id="Trazado_896587" data-name="Trazado 896587" d="M342.267,270.9v5.952c0,3.949-2.72,7.162-6.063,7.162h-4.317a10.525,10.525,0,0,0,.681-3.051H336.2c1.632,0,3.012-1.883,3.012-4.111v-2.9H332.6V270.9Z" transform="translate(-295.743 -239.786)" fill="#505a5d"/>
        <path id="Trazado_896588" data-name="Trazado 896588" d="M235.722,424.12a5.791,5.791,0,0,1-5.791,5.793v2.275H214.838V424.12Z" transform="translate(-193.954 -373.03)" fill="#bbb"/>
        <path id="Trazado_896589" data-name="Trazado 896589" d="M75.542,424.12v8.068H60.451v-2.275a5.793,5.793,0,0,1-5.793-5.793Z" transform="translate(-54.658 -373.03)" fill="#cccccd"/>
        <path id="Trazado_896590" data-name="Trazado 896590" d="M384.063,42.81h1.854A9.817,9.817,0,0,1,376.93,51.8V49.942a.782.782,0,0,0-.782-.782V43.134l2.73,2.73a.782.782,0,0,0,1.107-1.106L376.93,41.7V38.581a.781.781,0,0,0-.782-.782V34.9a.782.782,0,0,0,.782-.782V32.26a9.815,9.815,0,0,1,8.987,8.986h-1.854a.782.782,0,1,0,0,1.565Z" transform="translate(-334.232 -32.26)" fill="#a8d0ef"/>
        <path id="Trazado_896591" data-name="Trazado 896591" d="M310.214,38.581v3.447a.784.784,0,0,0,.229.553l.553.553V49.16a.783.783,0,0,0-.782.782V51.8a9.816,9.816,0,0,1-8.986-8.987h1.854a.782.782,0,1,0,0-1.565h-1.854a9.814,9.814,0,0,1,8.986-8.986v1.854A.783.783,0,0,0,311,34.9v2.9A.782.782,0,0,0,310.214,38.581Z" transform="translate(-269.08 -32.26)" fill="#c7e0f5"/>
      </g>
      <path id="Trazado_896592" data-name="Trazado 896592" d="M72.067,53.37A8.929,8.929,0,0,0,65.9,56.139a9.266,9.266,0,0,0-2.7,5.2,5.644,5.644,0,0,0,1.464,4.9,5.408,5.408,0,0,0,3.926,1.532,8.929,8.929,0,0,0,6.166-2.769,9.266,9.266,0,0,0,2.7-5.2,5.644,5.644,0,0,0-1.464-4.9,5.409,5.409,0,0,0-3.926-1.532ZM64.75,61.549a7.7,7.7,0,0,1,2.258-4.3,7.465,7.465,0,0,1,5.06-2.311c.05,0,.1,0,.15,0-1.488.925-3.242,2.52-2.993,4.816.266,2.456.158,4.069-3.469,5.355A4.127,4.127,0,0,1,64.75,61.549Zm11.157-1.964a7.7,7.7,0,0,1-2.258,4.3,7.465,7.465,0,0,1-5.06,2.311,4.664,4.664,0,0,1-1.078-.122c3.109-1.481,3.585-3.563,3.268-6.49-.234-2.162,2.6-3.582,3.584-4.006a3.433,3.433,0,0,1,.524.428,4.121,4.121,0,0,1,1.02,3.576Zm20.062-7.654h-8.89V48.443a.782.782,0,0,0-.782-.782H54.36a.782.782,0,0,0-.782.782V62.015a11.463,11.463,0,0,0,5.683,9.892H49.444a.782.782,0,0,0-.782.782,6.585,6.585,0,0,0,5.793,6.529v1.538a.782.782,0,0,0,.782.782H85.421a.782.782,0,0,0,.782-.782V79.218a6.584,6.584,0,0,0,5.791-6.529.782.782,0,0,0-.782-.782H81.4a11.53,11.53,0,0,0,4.721-5.3h3.789c3.775,0,6.846-3.564,6.846-7.944V52.713A.783.783,0,0,0,95.969,51.931Zm-8.89,4.616h5.056v2.118c0,1.773-1.042,3.329-2.23,3.329H87.079Zm3.29,16.926A5.017,5.017,0,0,1,85.421,77.7a.782.782,0,0,0-.782.782v1.492H56.019V78.482a.782.782,0,0,0-.782-.782,5.018,5.018,0,0,1-4.949-4.228ZM75.622,71.907H65.034a9.9,9.9,0,0,1-9.892-9.892V49.225H85.515v12.79a9.9,9.9,0,0,1-9.892,9.892ZM95.187,58.664c0,3.518-2.369,6.38-5.281,6.38H86.672a11.365,11.365,0,0,0,.3-1.487h2.93c2.092,0,3.795-2.2,3.795-4.893v-2.9a.782.782,0,0,0-.782-.782H87.079V53.5h8.108ZM58.326,33.047c.161-2.333,2.587-4.061,2.69-4.134a.782.782,0,0,1,.9,1.28c-.535.378-1.942,1.649-2.03,2.966a2.442,2.442,0,0,0,.944,1.964,4.843,4.843,0,0,1,1.329,5.334,8.325,8.325,0,0,1-1.4,2.583.782.782,0,1,1-1.194-1.011c.113-.135,2.772-3.368.2-5.761A3.952,3.952,0,0,1,58.326,33.047Zm7.061,0c.161-2.333,2.587-4.061,2.69-4.134a.782.782,0,0,1,.9,1.28c-.535.378-1.942,1.649-2.03,2.966a2.442,2.442,0,0,0,.944,1.964,4.843,4.843,0,0,1,1.329,5.334,8.325,8.325,0,0,1-1.4,2.583.782.782,0,1,1-1.194-1.011c.113-.135,2.772-3.368.2-5.761A3.951,3.951,0,0,1,65.387,33.047ZM91.36,20a11.367,11.367,0,1,0,11.367,11.367A11.38,11.38,0,0,0,91.36,20Zm.782,21.136V39.282a.782.782,0,1,0-1.565,0v1.854a9.815,9.815,0,0,1-8.986-8.986h1.854a.782.782,0,0,0,0-1.565H81.591A9.815,9.815,0,0,1,90.578,21.6v1.854a.782.782,0,1,0,1.565,0V21.6a9.815,9.815,0,0,1,8.986,8.986H99.274a.782.782,0,1,0,0,1.565h1.854a9.814,9.814,0,0,1-8.986,8.986ZM95.2,34.1A.782.782,0,1,1,94.09,35.2L90.807,31.92a.782.782,0,0,1-.229-.553V27.919a.782.782,0,1,1,1.565,0v3.124Z"/>
    </g>
  </g>
</svg>
