<svg xmlns="http://www.w3.org/2000/svg" width="90" height="90" viewBox="0 0 90 90">
  <g id="Grupo_1108448" data-name="Grupo 1108448" transform="translate(-335.051 -5505)">
    <g id="Grupo_1098742" data-name="Grupo 1098742" transform="translate(-868.27 5116.258)">
      <g id="Rect치ngulo_400898" data-name="Rect치ngulo 400898" transform="translate(1203.32 388.742)" fill="#9ec9ff" stroke="#fff" stroke-width="3" opacity="0.859">
        <rect width="90" height="90" rx="45" stroke="none"/>
        <rect x="1.5" y="1.5" width="87" height="87" rx="43.5" fill="none"/>
      </g>
      <g id="Rect치ngulo_400907" data-name="Rect치ngulo 400907" transform="translate(1203.32 388.742)" fill="none" stroke="#fff" stroke-width="3">
        <rect width="90" height="90" rx="45" stroke="none"/>
        <rect x="1.5" y="1.5" width="87" height="87" rx="43.5" fill="none"/>
      </g>
    </g>
    <g id="Grupo_1108434" data-name="Grupo 1108434" transform="translate(352.051 5509.14)">
      <g id="Grupo_1108432" data-name="Grupo 1108432" transform="translate(0.82 14.32)">
        <path id="Trazado_896617" data-name="Trazado 896617" d="M152.541,36.039A15.039,15.039,0,0,0,126.42,25.873s-.211.291-.333.435a14.609,14.609,0,0,0-3.136,9.732A14.119,14.119,0,0,0,137.5,50.467a13.932,13.932,0,0,0,9.257-3.05,2.36,2.36,0,0,1,.824-.217A15,15,0,0,0,152.541,36.039Z" transform="translate(-110.323 -21)" fill="#91dafa"/>
        <path id="Trazado_896618" data-name="Trazado 896618" d="M143.078,87.166a15.039,15.039,0,0,1-20.6-21.816,15.042,15.042,0,0,0,19.839,21.606A3.078,3.078,0,0,1,143.078,87.166Z" transform="translate(-106.359 -60.499)" fill="#75cff9"/>
        <path id="Trazado_896619" data-name="Trazado 896619" d="M193.94,240.724a15.042,15.042,0,0,1-18.94.993,15.312,15.312,0,0,1,1.606-2.52,2.393,2.393,0,0,1,1.88-.907,2.368,2.368,0,0,1,.412.036,14.523,14.523,0,0,1,4.627,1.7,12.785,12.785,0,0,1,2.078,1.5.329.329,0,0,0,.373.046,13.426,13.426,0,0,1,1.295-.589,15.442,15.442,0,0,1,4.812-1.029l.1,0a2.42,2.42,0,0,1,1.758.765Z" transform="translate(-156.68 -214.524)" fill="#75cff9"/>
        <g id="Grupo_1108431" data-name="Grupo 1108431" transform="translate(18 3.172)">
          <path id="Trazado_896620" data-name="Trazado 896620" d="M219.139,62.654c0-.035.06-.106.06-.106a1.54,1.54,0,0,0-1.537-1.436h-.4a1.468,1.468,0,0,0,1.441-1.55c0-.035.1-.093.1-.093a1.54,1.54,0,0,0-1.537-1.436h-3.444a2.536,2.536,0,0,1-2.489-3.042l.364-1.95a2.731,2.731,0,0,0-1.473-2.952.833.833,0,0,0-1.157.484l-1.676,5.307a6.727,6.727,0,0,1-3.007,3.609l.014,8.159c0,1.143,1.075,2.083,3.726,2.083h8.231c.758,0,1.227-.324,1.227-1.082a.764.764,0,0,1,.119-.271,1.373,1.373,0,0,0-1.346-1.1l.807-.115a1.4,1.4,0,0,0,1.508-1.4c0-.035.135-.125.135-.125a1.54,1.54,0,0,0-1.537-1.437l.321-.1c.851,0,1.557-1.442,1.557-1.442Z" transform="translate(-200.843 -50.002)" fill="#e3a76f"/>
          <path id="Trazado_896621" data-name="Trazado 896621" d="M217.838,201.408a1.372,1.372,0,0,1-1.372,1.373h-8.23c-2.651,0-3.726-.926-3.726-2.07V199.07c0,1.144,1.075,2.07,3.726,2.07h9.576A1.358,1.358,0,0,1,217.838,201.408Z" transform="translate(-200.962 -182.766)" fill="#d6995c"/>
          <path id="Trazado_896622" data-name="Trazado 896622" d="M173.239,124.549a1.076,1.076,0,0,1,1.076-1.076l.437-.058h.926a1.076,1.076,0,0,1,1.076,1.076v9.269l-.181.338a1.076,1.076,0,0,1-1.076,1.076l-1.108-.009a1.076,1.076,0,0,1-1.076-1.076Z" transform="translate(-173.111 -115.386)" fill="#857e87"/>
          <path id="Trazado_896623" data-name="Trazado 896623" d="M175.713,133.761v.564a1.076,1.076,0,0,1-1.076,1.076h-1.491a1.076,1.076,0,0,1-1.076-1.076v-9.834a1.076,1.076,0,0,1,1.076-1.075h.564V133.1a.657.657,0,0,0,.656.656Z" transform="translate(-172.07 -115.386)" fill="#766e7a"/>
          <g id="Grupo_1108430" data-name="Grupo 1108430" transform="translate(13.496 9.466)">
            <path id="Trazado_896624" data-name="Trazado 896624" d="M299.918,192.879c0,.034,0,.069,0,.1a1.54,1.54,0,0,1-1.54,1.54h-2.1a.821.821,0,0,1-.821-.821h0a.821.821,0,0,1,.821-.821Z" transform="translate(-295.46 -186.718)" fill="#d6995c"/>
            <path id="Trazado_896625" data-name="Trazado 896625" d="M295.46,137.372h0a.821.821,0,0,1,.821-.821h3.637c0,.034,0,.069,0,.1a1.539,1.539,0,0,1-1.54,1.54h-2.1A.821.821,0,0,1,295.46,137.372Z" transform="translate(-295.46 -136.549)" fill="#d6995c"/>
            <path id="Trazado_896626" data-name="Trazado 896626" d="M295.7,166.112a.821.821,0,0,1,.581-1.4h4.039c0,.034,0,.069,0,.1a1.539,1.539,0,0,1-1.5,1.539h-2.542A.819.819,0,0,1,295.7,166.112Z" transform="translate(-295.46 -161.63)" fill="#d6995c"/>
          </g>
        </g>
        <path id="Trazado_896627" data-name="Trazado 896627" d="M182.888,256.3a.435.435,0,0,0-.416.158,13.314,13.314,0,0,0-1.466,2.333,9.118,9.118,0,0,1-.3,1.492,9.869,9.869,0,0,0-.38,6.856c2.133,5.871,8.749,6.846,8.749,6.846s4.322-5.339,2.309-10.878A8.977,8.977,0,0,0,189,259.714a6.265,6.265,0,0,1-.6-.878A12.237,12.237,0,0,0,182.888,256.3Z" transform="translate(-161.006 -230.559)" fill="#86cc72"/>
        <path id="Trazado_896628" data-name="Trazado 896628" d="M188.164,294.325s-6.615-.975-8.749-6.846a10.528,10.528,0,0,1,.681-8.348,12.487,12.487,0,0,1,5.061,1.95.327.327,0,0,0,.436-.061,11.651,11.651,0,0,1,1.89-1.844,9.9,9.9,0,0,1,2.991,4.271C192.486,288.987,188.164,294.325,188.164,294.325Z" transform="translate(-160.096 -250.898)" fill="#79bf66"/>
        <path id="Trazado_896629" data-name="Trazado 896629" d="M247.886,271.76a.436.436,0,0,0-.392-.21c-1.139.047-5.827.468-8.654,4.2a7.518,7.518,0,0,1-.448,1.455c-3.006,5.434.282,10.747.282,10.747s6.823-.231,9.659-5.358a9.922,9.922,0,0,0,.6-7.765,7.293,7.293,0,0,1-.152-1.215A11.911,11.911,0,0,0,247.886,271.76Z" transform="translate(-212.011 -244.146)" fill="#98db7c"/>
        <path id="Trazado_896630" data-name="Trazado 896630" d="M32.414,286.635a.436.436,0,0,0-.382.228,13.671,13.671,0,0,0-1.328,3.7s.005,1.248-.021,1.928a9.861,9.861,0,0,0,1.559,5.25c3.149,5.465,9.423,5.4,9.423,5.4s3.363-6.07.392-11.225a9.244,9.244,0,0,0-2.479-2.385,8.41,8.41,0,0,1-1.005-1.2,12.292,12.292,0,0,0-6.159-1.7Z" transform="translate(-28.143 -257.581)" fill="#b8eb7c"/>
        <path id="Trazado_896631" data-name="Trazado 896631" d="M40.291,305.722a9.964,9.964,0,0,0-3.485-3.582,12.606,12.606,0,0,0-4.506,7,.329.329,0,0,1-.545.167,9.724,9.724,0,0,1-2.818-4.935A10.285,10.285,0,0,0,30,311.675c3.15,5.464,9.9,5.272,9.9,5.272S41.959,308.616,40.291,305.722Z" transform="translate(-26.377 -271.39)" fill="#98db7c"/>
        <path id="Trazado_896632" data-name="Trazado 896632" d="M246.419,299.39c-2.266,4.1-7.081,5.068-8.922,5.293-.463.056-.737.066-.737.066a10.2,10.2,0,0,1-.607-1.162c-.873-1.924-2.154-5.952.022-9.886a9.475,9.475,0,0,1,.75-1.154,12.6,12.6,0,0,1,1.389,1.575.436.436,0,0,0,.691.02l.113-.137a10.411,10.411,0,0,1,7.747-3.594A10.481,10.481,0,0,1,246.419,299.39Z" transform="translate(-210.096 -260.943)" fill="#86cc72"/>
        <path id="Trazado_896633" data-name="Trazado 896633" d="M103.537,306.709a10.6,10.6,0,0,0-9.82-10.582s-.512.035-.771.035c-5.849,0-9.873,4.688-9.873,10.547Z" transform="translate(-74.807 -266.035)" fill="#e27f86"/>
        <path id="Trazado_896634" data-name="Trazado 896634" d="M87.921,295.9a10.6,10.6,0,0,0-9.77,10.579H76.51A10.6,10.6,0,0,1,87.1,295.87C87.376,295.87,87.651,295.882,87.921,295.9Z" transform="translate(-68.962 -265.806)" fill="#df646e"/>
        <path id="Trazado_896635" data-name="Trazado 896635" d="M122.909,335.666a7.051,7.051,0,0,0-1.5-4.355l-.663-.489-.489-.678a7.022,7.022,0,0,0-3.592-1.5l-.82.267-.821-.267a7.018,7.018,0,0,0-3.526,1.452l-.414.838-.751.316a7.052,7.052,0,0,0-1.548,4.42Z" transform="translate(-97.71 -294.992)" fill="#df646e"/>
        <path id="Trazado_896636" data-name="Trazado 896636" d="M281.613,308.686a.435.435,0,0,0-.349-.285,10.463,10.463,0,0,0-5.11.562l-.772.4a7.6,7.6,0,0,0-2.208,1.971c-3.222,3.846-1.165,8.57-1.165,8.57s5.232,1.018,8.271-2.611A8.9,8.9,0,0,0,281.613,308.686Z" transform="translate(-242.503 -276.879)" fill="#b8eb7c"/>
        <path id="Trazado_896637" data-name="Trazado 896637" d="M277.507,323.878a10.84,10.84,0,0,1-7.108,1.5s-1.982-5.005,1.239-8.852a7.736,7.736,0,0,1,3.139-2.248,7.646,7.646,0,0,0-1.5,1.373c-3.221,3.847-1.239,8.852-1.239,8.852A11.642,11.642,0,0,0,277.507,323.878Z" transform="translate(-241.107 -282.2)" fill="#98db7c"/>
        <path id="Trazado_896638" data-name="Trazado 896638" d="M403.368,316.874a.434.434,0,0,0-.394-.22,10,10,0,0,0-4.078,1.051s-.779.644-1.19.969a6.743,6.743,0,0,0-1.864,1.913c-2.352,4.08.293,8.382.293,8.382s4.911-.142,7.13-3.991a8.449,8.449,0,0,0,.724-1.4c.208-.617.53-1.736.53-1.736A9.122,9.122,0,0,0,403.368,316.874Z" transform="translate(-352.5 -284.317)" fill="#b8eb7c"/>
        <path id="Trazado_896639" data-name="Trazado 896639" d="M399.5,332.252a10.836,10.836,0,0,0-.606-5.986,7.49,7.49,0,0,0-3.053,2.882c-2.352,4.081.292,8.381.292,8.381h.043c.1,0,.392-.018.8-.072h0c1.561-.205,4.884-.977,6.547-3.862a7.47,7.47,0,0,0,.991-3.187,9.384,9.384,0,0,1-4.631,2.228A.328.328,0,0,1,399.5,332.252Z" transform="translate(-352.502 -292.878)" fill="#98db7c"/>
        <path id="Trazado_896640" data-name="Trazado 896640" d="M285.312,321.709a8.522,8.522,0,0,0,12.236-.118,8.856,8.856,0,0,0,1-11.31s-.451-.408-.7-.684a.437.437,0,0,0-.633-.013Z" transform="translate(-254.926 -277.904)" fill="#ffd05b"/>
        <path id="Trazado_896641" data-name="Trazado 896641" d="M296.542,308.832l-12.3,12.308a8.9,8.9,0,0,1-1.187-1l6.579-5.361,2.783-4.017,2.8-2.807a.437.437,0,0,1,.633.013A8.793,8.793,0,0,1,296.542,308.832Z" transform="translate(-252.921 -276.456)" fill="#ffc244"/>
        <path id="Trazado_896642" data-name="Trazado 896642" d="M311.594,340.928a4.417,4.417,0,0,0,6.241-6.252l-2.806,3.773Z" transform="translate(-278.334 -300.368)" fill="#ffe077"/>
        <path id="Trazado_896643" data-name="Trazado 896643" d="M318.728,335.969l-5.848,5.855a4.393,4.393,0,0,1-1.29-.9l6.241-6.252A4.4,4.4,0,0,1,318.728,335.969Z" transform="translate(-278.33 -300.367)" fill="#ffd05b"/>
        <path id="Trazado_896644" data-name="Trazado 896644" d="M56.094,402.055l-36.274.235c-4.75,0-8.41-3.351-8.41-8.1v-1.239a1.015,1.015,0,0,1,1.015-1.015l.745-.176H64.327a1.015,1.015,0,0,1,1.015,1.015v1.239a8.59,8.59,0,0,1-.428,2.686l-.7.89-.034.751a8.637,8.637,0,0,1-1.7,2.087s-4.176,1.629-6.377,1.629Z" transform="translate(-10.982 -351.206)" fill="#dfbdf0"/>
        <path id="Trazado_896645" data-name="Trazado 896645" d="M58.989,400.426a8.568,8.568,0,0,1-5.731,2.187H16.1a8.6,8.6,0,0,1-7.435-4.274l.11-.925-.848-.715a8.592,8.592,0,0,1-.428-2.686v-1.238a1.014,1.014,0,0,1,1.015-1.015H9.687v.683a7.984,7.984,0,0,0,7.984,7.984Z" transform="translate(-7.5 -351.207)" fill="#cbb0f2"/>
      </g>
      <g id="Grupo_1108433" data-name="Grupo 1108433" transform="translate(0 13.5)">
        <path id="Trazado_896646" data-name="Trazado 896646" d="M184.572,55.975a2.356,2.356,0,0,0-.8-1.77,2.359,2.359,0,0,0-1.962-3.671h-3.444a1.68,1.68,0,0,1-1.316-.609,1.769,1.769,0,0,1-.367-1.462l.364-1.951a3.562,3.562,0,0,0-1.918-3.838,1.653,1.653,0,0,0-1.364-.043,1.8,1.8,0,0,0-.938,1.016l-1.671,5.291a6.328,6.328,0,0,1-1.691,2.5,1.9,1.9,0,0,0-1.615-.907h-1.381a1.9,1.9,0,0,0-1.9,1.9v3.661a.82.82,0,1,0,1.641,0V52.431a.256.256,0,0,1,.256-.256h1.381a.256.256,0,0,1,.256.256v9.833a.256.256,0,0,1-.256.256h-1.381a.256.256,0,0,1-.256-.256V59.919a.82.82,0,1,0-1.641,0v2.345a1.9,1.9,0,0,0,1.9,1.9h1.381a1.892,1.892,0,0,0,1.506-.748,6.09,6.09,0,0,0,3.311.748H180.9a2.193,2.193,0,0,0,2.028-3.025,2.359,2.359,0,0,0,.847-3.39,2.356,2.356,0,0,0,.8-1.77Zm-2.361.72H179.7a.82.82,0,1,0,0,1.641h2.111a.72.72,0,0,1,0,1.44H179.7a.82.82,0,1,0,0,1.641h1.2a.552.552,0,0,1,0,1.1h-8.231c-1.82,0-2.906-.467-2.906-1.25,0,0,0-7.789-.014-7.989a7.727,7.727,0,0,0,2.959-3.8c.028-.036,1.649-5.309,1.7-5.333a1.915,1.915,0,0,1,1.029,2.065l-.364,1.95a3.4,3.4,0,0,0,.718,2.811,3.338,3.338,0,0,0,2.578,1.2h3.444a.72.72,0,1,1,0,1.44H179.7a.82.82,0,0,0,0,1.641h2.513a.72.72,0,1,1,0,1.44Z" transform="translate(-146.572 -39.332)"/>
        <path id="Trazado_896647" data-name="Trazado 896647" d="M54.165,54.052h-.96A9.452,9.452,0,0,0,52.24,46.2a.82.82,0,0,0-.661-.369,10.478,10.478,0,0,0-5.695,1.719,9.622,9.622,0,0,0-1.861-2.631.82.82,0,0,0-1.161,0L40.987,46.8a8.578,8.578,0,0,0-.4-1.241A.821.821,0,0,0,40,45.082a8.982,8.982,0,0,0-1.184-.141,13.49,13.49,0,0,0-1.173-2.995,15.885,15.885,0,0,0,6.213-12.587,15.7,15.7,0,0,0-3.345-9.743.82.82,0,0,0-1.294,1.009,14.078,14.078,0,0,1,3,8.735A14.242,14.242,0,0,1,36.3,40.9a13.645,13.645,0,0,0-6.574,2.008,12.684,12.684,0,0,0-7.185-3.7.82.82,0,0,0-.708.27,12.476,12.476,0,0,0-1.347,1.953A14.219,14.219,0,0,1,28,15.141a14.085,14.085,0,0,1,8.649,2.932.82.82,0,0,0,1-1.3A15.713,15.713,0,0,0,28,13.5a15.86,15.86,0,0,0-8.246,29.407q-.138.323-.266.67-.264-.012-.529-.012a11.329,11.329,0,0,0-6.01,1.71,12.711,12.711,0,0,0-8.163-2.713.82.82,0,0,0-.65.389,13.977,13.977,0,0,0-1.556,4.166.82.82,0,1,0,1.607.328A13.061,13.061,0,0,1,5.322,44.2a11.294,11.294,0,0,1,6.252,2.082q-.324.276-.629.578a11.361,11.361,0,0,0-3.358,7.194H5.075a8.86,8.86,0,0,1-1.026-3.076.82.82,0,1,0-1.625.226,10.5,10.5,0,0,0,.818,2.85H1.835A1.837,1.837,0,0,0,0,55.887v1.239a9.432,9.432,0,0,0,9.421,9.421H46.579A9.432,9.432,0,0,0,56,57.126V55.887a1.837,1.837,0,0,0-1.835-1.835Zm-3.076-6.561a7.6,7.6,0,0,1,.344,6.561H46.57a9.7,9.7,0,0,0-.086-4.9A8.69,8.69,0,0,1,51.088,47.491Zm-7.677-.8a8.062,8.062,0,0,1,1.461,7.358H41.9a5.281,5.281,0,0,0-.467-5.377Zm-3.159,3.164a3.624,3.624,0,0,1-.287,4.194h-3.9ZM39.587,48.2l-5.838,5.849H30.33a7.375,7.375,0,0,1,1.65-4.879c2.35-2.805,6-2.683,7.254-2.545A9.284,9.284,0,0,1,39.587,48.2Zm-3.476-5.645a11.717,11.717,0,0,1,1.012,2.4,9.127,9.127,0,0,0-6.4,3.159,8.466,8.466,0,0,0-1.342,2.215,11.41,11.41,0,0,0-1.789-2.81l.026-.049c2.3-4.156,7.031-4.812,8.493-4.916ZM22.788,40.913a11.143,11.143,0,0,1,5.62,2.991,10.323,10.323,0,0,0-2.017,2.417,11.361,11.361,0,0,0-5.222-2.541,12.985,12.985,0,0,1,1.619-2.867ZM18.959,45.2a9.724,9.724,0,0,1,9.725,8.847h-1.9a7.881,7.881,0,0,0-15.651,0h-1.9A9.822,9.822,0,0,1,18.959,45.2ZM14.04,51.168l.867.869a.82.82,0,1,0,1.161-1.159l-.861-.863A6.21,6.21,0,0,1,18.139,48.8v1.54a.82.82,0,0,0,1.641,0V48.8a6.214,6.214,0,0,1,3,1.269l-.81.811a.82.82,0,0,0,1.161,1.159l.8-.8a6.224,6.224,0,0,1,1.2,2.817H12.792a6.227,6.227,0,0,1,1.247-2.883ZM46.579,64.906H9.421a7.779,7.779,0,0,1-6.463-3.454H36.618a.82.82,0,0,0,0-1.641H2.119a7.744,7.744,0,0,1-.478-2.685V55.887a.2.2,0,0,1,.194-.194h52.33a.2.2,0,0,1,.194.194v1.239a7.745,7.745,0,0,1-.478,2.685H40.446a.82.82,0,0,0,0,1.641h12.6a7.778,7.778,0,0,1-6.463,3.454Z" transform="translate(0 -13.5)"/>
      </g>
    </g>
  </g>
</svg>
