<svg xmlns="http://www.w3.org/2000/svg" xmlns:xlink="http://www.w3.org/1999/xlink" width="108" height="108" viewBox="0 0 108 108">
  <defs>
    <filter id="Rectángulo_400898" x="0" y="0" width="108" height="108" filterUnits="userSpaceOnUse">
      <feOffset dy="3" input="SourceAlpha"/>
      <feGaussianBlur stdDeviation="3" result="blur"/>
      <feFlood flood-opacity="0.161"/>
      <feComposite operator="in" in2="blur"/>
      <feComposite in="SourceGraphic"/>
    </filter>
  </defs>
  <g id="Grupo_1108449" data-name="Grupo 1108449" transform="translate(-748.051 -5499)">
    <g id="Grupo_1098742" data-name="Grupo 1098742" transform="translate(-446.27 5116.258)">
      <g transform="matrix(1, 0, 0, 1, 1194.32, 382.74)" filter="url(#Rectángulo_400898)">
        <g id="Rectángulo_400898-2" data-name="Rectángulo 400898" transform="translate(9 6)" fill="#997b4d" stroke="#fff" stroke-width="3" opacity="0.859">
          <rect width="90" height="90" rx="45" stroke="none"/>
          <rect x="1.5" y="1.5" width="87" height="87" rx="43.5" fill="none"/>
        </g>
      </g>
      <g id="Rectángulo_400907" data-name="Rectángulo 400907" transform="translate(1203.32 388.742)" fill="none" stroke="#fff" stroke-width="3">
        <rect width="90" height="90" rx="45" stroke="none"/>
        <rect x="1.5" y="1.5" width="87" height="87" rx="43.5" fill="none"/>
      </g>
    </g>
    <g id="Grupo_1108435" data-name="Grupo 1108435" transform="translate(770.05 5518)">
      <circle id="Elipse_11679" data-name="Elipse 11679" cx="30" cy="30" r="30" transform="translate(2 2)" fill="#a0a8b2"/>
      <circle id="Elipse_11680" data-name="Elipse 11680" cx="24" cy="24" r="24" transform="translate(8 8)" fill="#e3e8f6"/>
      <path id="Trazado_896648" data-name="Trazado 896648" d="M32,8a23.953,23.953,0,0,0-18.951,9.283C13.018,17.852,13,18.424,13,19c0,17.121,13.655,31,30.5,31a30.179,30.179,0,0,0,4.787-.383A24,24,0,0,0,32,8Z" fill="#f8f7fe"/>
      <circle id="Elipse_11681" data-name="Elipse 11681" cx="11" cy="11" r="11" transform="translate(2 40)" fill="#b3b9c1"/>
      <circle id="Elipse_11682" data-name="Elipse 11682" cx="7" cy="7" r="7" transform="translate(6 44)" fill="#e47c6f"/>
      <path id="Trazado_896649" data-name="Trazado 896649" d="M13,44a6.969,6.969,0,0,0-4.854,1.964,8.47,8.47,0,0,0,9.89,9.89A6.994,6.994,0,0,0,13,44Z" fill="#e9968c"/>
      <path id="Trazado_896650" data-name="Trazado 896650" d="M54,16a4,4,0,0,0,0-8A5,5,0,0,0,44,8a4,4,0,0,0,0,8Z" fill="#669e54"/>
      <path id="Trazado_896651" data-name="Trazado 896651" d="M21.464,22.979h7.071V47.021H21.464Z" transform="translate(-17.426 27.929) rotate(-45)" fill="#f5cd90"/>
      <path id="Trazado_896652" data-name="Trazado 896652" d="M26,31H16l-2-2,5-5Z" fill="#fbe3bc"/>
      <path id="Trazado_896653" data-name="Trazado 896653" d="M30,35H20l4,4H34Z" fill="#fbe3bc"/>
      <path id="Trazado_896654" data-name="Trazado 896654" d="M58,20a4,4,0,0,0,0-8,5,5,0,0,0-10,0,4,4,0,0,0,0,8Z" fill="#78b761"/>
      <path id="Trazado_896655" data-name="Trazado 896655" d="M28.464,19.979h7.071V44.021H28.464Z" transform="translate(-13.255 32) rotate(-45)" fill="#f5b95b"/>
      <path id="Trazado_896656" data-name="Trazado 896656" d="M33,28H23l-2-2,5-5Z" fill="#fbe3bc"/>
      <path id="Trazado_896657" data-name="Trazado 896657" d="M37,32H27l4,4H41Z" fill="#fbe3bc"/>
      <path id="Trazado_896658" data-name="Trazado 896658" d="M35.464,16.979h7.071V41.021H35.464Z" transform="translate(-9.083 36.071) rotate(-45)" fill="#f5cd90"/>
      <path id="Trazado_896659" data-name="Trazado 896659" d="M40,25H30l-2-2,5-5Z" fill="#fbe3bc"/>
      <path id="Trazado_896660" data-name="Trazado 896660" d="M44,29H34l4,4H48Z" fill="#fbe3bc"/>
      <path id="Trazado_896661" data-name="Trazado 896661" d="M31,47a1,1,0,0,0,.707-.293L36,42.414l1.293,1.293a1,1,0,0,0,1.414,0L43,39.414l1.293,1.293a1,1,0,0,0,1.414,0l5-5a1,1,0,0,0,0-1.414l-17-17a1,1,0,0,0-1.414,0L28,21.586l-1.293-1.293a1,1,0,0,0-1.414,0L21,24.586l-1.293-1.293a1,1,0,0,0-1.414,0l-5,5a1,1,0,0,0,0,1.414l17,17A1,1,0,0,0,31,47Zm0-2.414L26.414,40h7.172l1,1ZM41.586,28H34.414l-2-2h7.172ZM29.414,33h7.172l2,2H31.414Zm7-3h7.172l2,2H38.414Zm-1.828,1H27.414l-2-2h7.172Zm-7,3H20.414l-2-2h7.172Zm2,2,2,2H24.414l-2-2ZM38,41.586l-1.293-1.293L33.414,37h7.172l1,1Zm7-3-1.293-1.293L40.414,34h7.172l1,1ZM33,19.414,37.586,24H30.414l-1-1Zm-7,3,1.293,1.293L30.586,27H23.414l-1-1Zm-7,3,1.293,1.293L23.586,30H16.414l-1-1Z"/>
      <path id="Trazado_896662" data-name="Trazado 896662" d="M63,16a5.009,5.009,0,0,0-4.069-4.913,6,6,0,0,0-4.207-4.81,5.95,5.95,0,0,0-9.939-2.513A31,31,0,0,0,3.367,43.875,11.977,11.977,0,0,0,20.125,60.633,31,31,0,0,0,60.669,20.212,4.989,4.989,0,0,0,63,16Zm-6-4a1,1,0,0,0,1,1,3,3,0,0,1,0,6H48a3,3,0,0,1,0-6,1,1,0,0,0,1-1,4,4,0,0,1,8,0ZM13,39a11.968,11.968,0,0,0-2.78.338A22.952,22.952,0,0,1,39.332,10.219a4.981,4.981,0,0,0,3.76,6.689A5,5,0,0,0,48,21h4.189A22.966,22.966,0,0,1,24.662,53.78,11.957,11.957,0,0,0,13,39ZM49,4a4.011,4.011,0,0,1,3.481,2.048,6,6,0,0,0-5.412,5.039,5,5,0,0,0-3.922,3.774A2.991,2.991,0,0,1,44,9a1,1,0,0,0,1-1,4,4,0,0,1,4-4ZM32,3A28.718,28.718,0,0,1,43.6,5.426a5.908,5.908,0,0,0-.536,1.661,4.97,4.97,0,0,0-2.6,1.407A24.952,24.952,0,0,0,8.318,39.952a12.008,12.008,0,0,0-3.467,2.265A29.019,29.019,0,0,1,32,3ZM3,51A10,10,0,1,1,13,61,10,10,0,0,1,3,51ZM61,32A29.021,29.021,0,0,1,21.783,59.15a12.026,12.026,0,0,0,2.265-3.468A24.982,24.982,0,0,0,54.445,21H58a4.871,4.871,0,0,0,.8-.081A28.782,28.782,0,0,1,61,32Z"/>
      <path id="Trazado_896663" data-name="Trazado 896663" d="M13,43a8,8,0,1,0,8,8,8,8,0,0,0-8-8Zm0,14a6,6,0,1,1,6-6,6,6,0,0,1-6,6Z"/>
      <path id="Trazado_896664" data-name="Trazado 896664" d="M9,48h2v2H9Z"/>
      <path id="Trazado_896665" data-name="Trazado 896665" d="M15,49h2v2H15Z"/>
      <path id="Trazado_896666" data-name="Trazado 896666" d="M11,52h2v2H11Z"/>
      <path id="Trazado_896667" data-name="Trazado 896667" d="M26.293,17.293l1.414,1.414,1-1a2.417,2.417,0,0,0,0-3.416.414.414,0,0,1,0-.585l1-1-1.414-1.414-1,1a2.417,2.417,0,0,0,0,3.416.414.414,0,0,1,0,.585Z"/>
      <path id="Trazado_896668" data-name="Trazado 896668" d="M37.707,46.707l-1.414-1.414-1,1a2.417,2.417,0,0,0,0,3.416.414.414,0,0,1,0,.585l-1,1,1.414,1.414,1-1a2.417,2.417,0,0,0,0-3.416.414.414,0,0,1,0-.585Z"/>
      <path id="Trazado_896669" data-name="Trazado 896669" d="M42,44h2v2H42Z"/>
      <path id="Trazado_896670" data-name="Trazado 896670" d="M19,16h2v2H19Z"/>
    </g>
  </g>
</svg>
