<svg xmlns="http://www.w3.org/2000/svg" xmlns:xlink="http://www.w3.org/1999/xlink" width="90" height="90" viewBox="0 0 90 90">
  <defs>
    <filter id="Rectángulo_400898" x="0" y="0" width="90" height="90" filterUnits="userSpaceOnUse">
      <feOffset dy="3" input="SourceAlpha"/>
      <feGaussianBlur stdDeviation="3" result="blur"/>
      <feFlood flood-opacity="0.161" result="color"/>
      <feComposite operator="out" in="SourceGraphic" in2="blur"/>
      <feComposite operator="in" in="color"/>
      <feComposite operator="in" in2="SourceGraphic"/>
    </filter>
  </defs>
  <g id="Grupo_1108450" data-name="Grupo 1108450" transform="translate(-1176.051 -5505)">
    <g data-type="innerShadowGroup">
      <rect id="Rectángulo_400898-2" data-name="Rectángulo 400898" width="90" height="90" rx="45" transform="translate(1176.051 5505)" fill="#997b4d" opacity="0.859"/>
      <g transform="matrix(1, 0, 0, 1, 1176.05, 5505)" filter="url(#Rectángulo_400898)">
        <rect id="Rectángulo_400898-3" data-name="Rectángulo 400898" width="90" height="90" rx="45" fill="#fff" opacity="0.859"/>
      </g>
      <g id="Rectángulo_400898-4" data-name="Rectángulo 400898" transform="translate(1176.051 5505)" fill="none" stroke="#fff" stroke-width="3" opacity="0.859">
        <rect width="90" height="90" rx="45" stroke="none"/>
        <rect x="1.5" y="1.5" width="87" height="87" rx="43.5" fill="none"/>
      </g>
    </g>
    <g id="Grupo_1108436" data-name="Grupo 1108436" transform="translate(1189.05 5518)">
      <circle id="Elipse_11683" data-name="Elipse 11683" cx="30" cy="30" r="30" transform="translate(2 2)" fill="#a0a8b2"/>
      <circle id="Elipse_11684" data-name="Elipse 11684" cx="26" cy="26" r="26" transform="translate(6 6)" fill="#e3e8f6"/>
      <path id="Trazado_896671" data-name="Trazado 896671" d="M32,6A25.975,25.975,0,0,0,10.055,18.064C10.021,18.7,10,19.35,10,20c0,18.778,14.327,34,32,34a30.347,30.347,0,0,0,4.351-.321A26,26,0,0,0,32,6Z" fill="#f8f7fe"/>
      <path id="Trazado_896672" data-name="Trazado 896672" d="M50,43a2.994,2.994,0,0,0-5.17-2.063l-3.883-3.884-4,4,3.883,3.884a3.008,3.008,0,1,0,4.853.746A2.961,2.961,0,0,0,47,46a3,3,0,0,0,3-3Z" fill="#e3e8f6"/>
      <path id="Trazado_896673" data-name="Trazado 896673" d="M40.893,37V30.379a16.706,16.706,0,0,0-8.569-14.793A12.331,12.331,0,0,0,15.58,32.4,16.614,16.614,0,0,0,30.314,41h6.579l.054.053,4-4Z" fill="#c18e5c"/>
      <path id="Trazado_896674" data-name="Trazado 896674" d="M40.893,35V30.379a16.706,16.706,0,0,0-8.569-14.793,12.147,12.147,0,0,0-13.733,1.185A12.435,12.435,0,0,0,19.633,26.4,16.617,16.617,0,0,0,34.367,35Z" fill="#cda57d"/>
      <path id="Trazado_896675" data-name="Trazado 896675" d="M54,16a4,4,0,0,0,0-8A5,5,0,0,0,44,8a4,4,0,0,0,0,8Z" fill="#669e54"/>
      <path id="Trazado_896676" data-name="Trazado 896676" d="M58,20a4,4,0,0,0,0-8,5,5,0,0,0-10,0,4,4,0,0,0,0,8Z" fill="#78b761"/>
      <circle id="Elipse_11685" data-name="Elipse 11685" cx="11" cy="11" r="11" transform="translate(2 40)" fill="#b3b9c1"/>
      <circle id="Elipse_11686" data-name="Elipse 11686" cx="7" cy="7" r="7" transform="translate(6 44)" fill="#e47c6f"/>
      <path id="Trazado_896677" data-name="Trazado 896677" d="M13,44a6.969,6.969,0,0,0-4.854,1.964,8.47,8.47,0,0,0,9.89,9.89A6.994,6.994,0,0,0,13,44Z" fill="#e9968c"/>
      <path id="Trazado_896678" data-name="Trazado 896678" d="M63,16a5.008,5.008,0,0,0-4.069-4.913,6,6,0,0,0-4.207-4.811,5.951,5.951,0,0,0-9.939-2.512A31,31,0,0,0,3.367,43.875,11.977,11.977,0,0,0,20.125,60.633a31,31,0,0,0,40.544-40.42A4.991,4.991,0,0,0,63,16Zm-6-4a1,1,0,0,0,1,1,3,3,0,0,1,0,6H48a3,3,0,0,1,0-6,1,1,0,0,0,1-1,4,4,0,0,1,8,0ZM13,39a11.915,11.915,0,0,0-4.681.952A24.986,24.986,0,0,1,40.476,8.481a4.97,4.97,0,0,0,2.616,8.427A5,5,0,0,0,48,21h6.445a24.965,24.965,0,0,1-30.4,34.681A12,12,0,0,0,13,39ZM49,4a4.007,4.007,0,0,1,3.48,2.048,5.994,5.994,0,0,0-5.411,5.039,5,5,0,0,0-3.922,3.774A2.991,2.991,0,0,1,44,9a1,1,0,0,0,1-1,4,4,0,0,1,4-4ZM32,3A28.715,28.715,0,0,1,43.6,5.426a5.908,5.908,0,0,0-.536,1.661c-.137.026-.264.075-.4.112A26.966,26.966,0,0,0,6.532,40.908,12.13,12.13,0,0,0,4.85,42.217,29.021,29.021,0,0,1,32,3ZM3,51A10,10,0,1,1,13,61,10,10,0,0,1,3,51ZM61,32A29.021,29.021,0,0,1,21.783,59.15a12.114,12.114,0,0,0,1.308-1.681A27,27,0,0,0,56.663,21H58a4.871,4.871,0,0,0,.8-.081A28.774,28.774,0,0,1,61,32Z"/>
      <path id="Trazado_896679" data-name="Trazado 896679" d="M13,43a8,8,0,1,0,8,8,8,8,0,0,0-8-8Zm0,14a6,6,0,1,1,6-6,6,6,0,0,1-6,6Z"/>
      <path id="Trazado_896680" data-name="Trazado 896680" d="M9,48h2v2H9Z"/>
      <path id="Trazado_896681" data-name="Trazado 896681" d="M15,49h2v2H15Z"/>
      <path id="Trazado_896682" data-name="Trazado 896682" d="M11,52h2v2H11Z"/>
      <path id="Trazado_896683" data-name="Trazado 896683" d="M36.479,42l3.039,3.039A4,4,0,1,0,47,47a4,4,0,0,0,0-8,3.947,3.947,0,0,0-2.1.6l-3.01-3.011v-6.21A17.626,17.626,0,0,0,32.79,14.7,13.33,13.33,0,0,0,14.7,32.866,17.538,17.538,0,0,0,30.314,42Zm7.644-.355a.957.957,0,0,0,.72.293,1,1,0,0,0,.712-.311A1.979,1.979,0,0,1,47,41a2,2,0,1,1-.875,3.786,1,1,0,0,0-1.338,1.34A1.974,1.974,0,0,1,45,47a2,2,0,1,1-3.445-1.374,1,1,0,0,0-.018-1.4L38.307,41l2.586-2.586ZM16.462,31.927a11.337,11.337,0,0,1,1.9-13.614,11.084,11.084,0,0,1,7.873-3.294,11.877,11.877,0,0,1,5.618,1.448,15.632,15.632,0,0,1,8.041,13.912v6.207L36.479,40H30.314a15.546,15.546,0,0,1-13.852-8.073Z"/>
      <path id="Trazado_896684" data-name="Trazado 896684" d="M46.708,32.707a2.419,2.419,0,0,0,0-3.414.415.415,0,0,1,0-.586l1-1-1.414-1.414-1,1a2.419,2.419,0,0,0,0,3.414.415.415,0,0,1,0,.586l-1,1,1.414,1.414Z"/>
      <path id="Trazado_896685" data-name="Trazado 896685" d="M31.707,47.707l-1.414-1.414-1,1a2.419,2.419,0,0,0,0,3.414.415.415,0,0,1,0,.586l-1,1,1.414,1.414,1-1a2.419,2.419,0,0,0,0-3.414.415.415,0,0,1,0-.586Z"/>
      <path id="Trazado_896686" data-name="Trazado 896686" d="M51,28h2v2H51Z"/>
      <path id="Trazado_896687" data-name="Trazado 896687" d="M34,46h2v2H34Z"/>
    </g>
  </g>
</svg>
